;TYPE=PLATED
;Layer: PTH_Through
;EasyEDA Pro Client v2.2.47.7, 2026-06-08 22:07:34
;Gerber Generator version 0.3
M48
METRIC,LZ,0000.00000
;Hole size 1 = 0.30500 METRIC
T01C0.30500
;Hole size 2 = 0.70002 METRIC
T02C0.70002
;Hole size 3 = 0.76200 METRIC
T03C0.76200
;Hole size 4 = 0.80000 METRIC
T04C0.80000
;Hole size 5 = 0.90002 METRIC
T05C0.90002
;Hole size 6 = 0.91440 METRIC
T06C0.91440
;Hole size 7 = 1.00000 METRIC
T07C1.00000
;Hole size 8 = 1.10002 METRIC
T08C1.10002
;Hole size 9 = 1.20000 METRIC
T09C1.20000
%
G05
G90
T01
X-7.493Y-15.367
X5.588Y-13.335
X15.494Y-18.542
X34.417Y16.383
X-8.509Y9.779
X16.383Y5.842
X1.778Y-17.907
X-3.302Y9.779
X-20.32Y-6.731
X-5.842Y9.779
X13.589Y-5.969
X16.129Y-1.651
X-18.288Y-6.223
X-10.922Y-11.049
X-9.525Y-8.128
X-5.842Y-8.128
T02
X24.892Y-4.021
X24.892Y-14.521
T03
X6.98487Y16.38313
X6.985Y13.88301
X6.985Y18.883
T04
X-17.129Y-12.319
X-15.129Y-12.319
X-8.37863Y-3.97334
X-8.37863Y3.96665
X-5.83863Y-3.97334
X-5.83863Y3.96665
X-3.29865Y-3.97334
X-3.29865Y3.96665
X-0.75865Y-3.97334
X-0.75865Y3.96665
X1.78135Y-3.97334
X1.78135Y3.96665
X4.32135Y-3.97334
X4.32135Y3.96665
X6.86135Y-3.97334
X6.86135Y3.96665
X9.40132Y-3.97334
X9.40132Y3.96665
T05
X-21.717Y13.208
X-21.717Y10.668
X-21.717Y8.128
X-21.717Y5.588
X-14.097Y13.208
X-14.097Y10.668
X-14.097Y8.128
X-14.097Y5.588
T06
X17.145Y-3.76695
X17.145Y-14.26695
T07
X-43.561Y-2.032
X-41.021Y-2.032
X-19.812Y37.084
X-17.272Y37.084
X11.176Y38.481
X13.716Y38.481
X36.068Y23.368
X38.608Y23.368
X44.069Y-1.397
X46.609Y-1.397
X35.687Y-24.13
X33.147Y-24.13
X-15.875Y-39.37
X-13.335Y-39.37
X-35.179Y-25.019
X-32.639Y-25.019
X-39.243Y19.431
X-36.703Y19.431
X13.716Y-40.259
X13.716Y-37.719
T08
X20.39672Y7.16295
T09
X9.525Y-19.558
X4.445Y-19.558
X-4.953Y-20.32
X-7.493Y-20.32
M30