G04 Layer: BottomLayer*
G04 EasyEDA Pro v2.2.47.7, 2026-06-08 22:07:34*
G04 Gerber Generator version 0.3*
G04 Scale: 100 percent, Rotated: No, Reflected: No*
G04 Dimensions in millimeters*
G04 Leading zeros omitted, absolute positions, 4 integers and 5 decimals*
G04 Generated by one-click*
G04 Object Configs: Pad,Via,Track,Text,Image,Dimension,BoardOutline,BoardCutout,CopperFilled,SolidRegion,FPCStiffener,Line,PlaneZone,ComponentProperty,ComponentSilkscreen,TearDrop*
G04 Layer Configs: 1,2,3,4,5,6,7,8,9,10,11,13,14,56*
G04 Copper Areas: 0*
%FSLAX45Y45*%
%MOMM*%
%ADD10C,1.3*%
%ADD11C,1.8*%
%ADD12R,2.0X2.0*%
%ADD13C,2.0*%
%ADD14R,1.7X1.7*%
%ADD15C,1.4*%
%ADD16C,1.6094*%
%ADD17C,1.6*%
%ADD18C,1.524*%
%ADD19R,1.5X1.5*%
%ADD20C,1.5*%
%ADD21O,1.44X1.8*%
%ADD22C,0.61*%
%ADD23C,0.254*%
G75*


G04 Pad Start*
G54D10*
G01X-1712900Y-1231900D03*
G01X-1512900Y-1231900D03*
G54D11*
G01X952500Y-1955800D03*
G01X444500Y-1955800D03*
G54D12*
G01X-495300Y-2032000D03*
G54D13*
G01X-749300Y-2032000D03*
G54D11*
G01X-4356100Y-203200D03*
G01X-4102100Y-203200D03*
G01X-1981200Y3708400D03*
G01X-1727200Y3708400D03*
G01X1117600Y3848100D03*
G01X1371600Y3848100D03*
G01X3606800Y2336800D03*
G01X3860800Y2336800D03*
G01X4406900Y-139700D03*
G01X4660900Y-139700D03*
G01X3568700Y-2413000D03*
G01X3314700Y-2413000D03*
G01X-1587500Y-3937000D03*
G01X-1333500Y-3937000D03*
G01X-3517900Y-2501900D03*
G01X-3263900Y-2501900D03*
G01X-3924300Y1943100D03*
G01X-3670300Y1943100D03*
G01X1371600Y-4025900D03*
G01X1371600Y-3771900D03*
G54D14*
G01X2039672Y716295D03*
G54D15*
G01X2489200Y-402107D03*
G01X2489200Y-1452093D03*
G54D17*
G01X1714500Y-376695D03*
G01X1714500Y-1426705D03*
G54D18*
G01X698500Y1638313D03*
G01X698500Y1388301D03*
G01X698500Y1888300D03*
G54D19*
G01X-2171700Y1320800D03*
G54D20*
G01X-2171700Y1066800D03*
G01X-2171700Y812800D03*
G01X-2171700Y558800D03*
G01X-1409700Y1320800D03*
G01X-1409700Y1066800D03*
G01X-1409700Y812800D03*
G01X-1409700Y558800D03*
G54D21*
G01X-837865Y-397337D03*
G01X-837865Y396667D03*
G01X-583865Y-397337D03*
G01X-583865Y396667D03*
G01X-329865Y-397337D03*
G01X-329865Y396667D03*
G01X-75865Y-397337D03*
G01X-75865Y396667D03*
G01X178135Y-397337D03*
G01X178135Y396667D03*
G01X432135Y-397337D03*
G01X432135Y396667D03*
G01X686135Y-397337D03*
G01X686135Y396667D03*
G01X940135Y-397337D03*
G01X940135Y396667D03*
G04 Pad End*

G04 Via Start*
G54D22*
G01X-749300Y-1536700D03*
G01X558800Y-1333500D03*
G01X1549400Y-1854200D03*
G01X3441700Y1638300D03*
G01X-850900Y977900D03*
G01X1638300Y584200D03*
G01X177800Y-1790700D03*
G01X-330200Y977900D03*
G01X-2032000Y-673100D03*
G01X-584200Y977900D03*
G01X1358900Y-596900D03*
G01X1612900Y-165100D03*
G01X-1828800Y-622300D03*
G01X-1092200Y-1104900D03*
G01X-952500Y-812800D03*
G01X-584200Y-812800D03*
G04 Via End*

G04 Track Start*
G54D23*
G01X-1981200Y3708400D02*
G01X-2159000Y3708400D01*
G01X-3924300Y1943100D01*
G01X-4356100Y1511300D01*
G01X-4356100Y-203200D01*
G01X-4356100Y-1663700D01*
G01X-3517900Y-2501900D01*
G01X-2082800Y-3937000D01*
G01X-1587500Y-3937000D01*
G01X-1284664Y-4054900D02*
G01X-1255664Y-4025900D01*
G01X1371600Y-4025900D01*
G01X-1587500Y-3937000D02*
G01X-1469600Y-4054900D01*
G01X-1284664Y-4054900D01*
G01X4406900Y1536700D02*
G01X3606800Y2336800D01*
G01X1322764Y3966000D02*
G01X1204864Y3848100D01*
G01X1117600Y3848100D01*
G01X3606800Y2336800D02*
G01X1977600Y3966000D01*
G01X1322764Y3966000D01*
G01X3568700Y-2413000D02*
G01X4406900Y-1574800D01*
G01X4406900Y-139700D01*
G01X4406900Y1536700D01*
G01X1371600Y-4025900D02*
G01X1714500Y-3683000D01*
G01X1714500Y-1401305D02*
G01X2209800Y-1896605D01*
G01X2209800Y-3213100D01*
G01X2227761Y-3231061D01*
G01X3004639Y-3231061D01*
G01X3543300Y-2692400D01*
G01X3543300Y-2438400D01*
G01X3568700Y-2413000D01*
G01X-749300Y-1536700D02*
G01X-749300Y-2032000D01*
G01X-1409700Y558800D02*
G01X-1117600Y266700D01*
G01X-1117600Y-977900D01*
G01X-139700Y-1955800D01*
G01X444500Y-1955800D01*
G01X-75865Y396667D02*
G01X18854Y396667D01*
G01X136754Y278768D01*
G01X264030Y278768D01*
G01X940135Y-397337D01*
G01X2039672Y716295D02*
G01X-10238Y716295D01*
G01X-329865Y396667D01*
G01X-745998Y812800D01*
G01X-1264178Y812800D01*
G01X-1367078Y709900D01*
G01X-1452322Y709900D01*
G01X-1555222Y812800D01*
G01X-2171700Y812800D01*
G01X-3263900Y-2501900D02*
G01X-1672429Y-2501900D01*
G01X-784900Y-1614371D01*
G01X-784900Y-1583691D01*
G01X-807700Y-1560890D01*
G01X-807700Y-1512510D01*
G01X-773490Y-1478300D01*
G01X-725110Y-1478300D01*
G01X493336Y-2073700D02*
G01X562400Y-2004636D01*
G01X562400Y-1906964D01*
G01X432135Y-1776699D01*
G01X432135Y-397337D01*
G01X-725110Y-1478300D02*
G01X-129710Y-2073700D01*
G01X493336Y-2073700D01*
G01X698500Y1888300D02*
G01X698500Y1638313D01*
G01X558800Y-1333500D02*
G01X1028700Y-1333500D01*
G01X1549400Y-1854200D01*
G01X686135Y-397337D02*
G01X780854Y-397337D01*
G01X898754Y-515236D01*
G01X1046864Y-515236D01*
G01X1955800Y393700D02*
G01X2463800Y393700D01*
G01X1046864Y-515236D02*
G01X1955800Y393700D01*
G01X2463800Y393700D02*
G01X3441700Y1371600D01*
G01X3441700Y1638300D01*
G01X-1409700Y1320800D02*
G01X-1193800Y1320800D01*
G01X-850900Y977900D01*
G01X686135Y396667D02*
G01X873667Y584200D01*
G01X1638300Y584200D01*
G01X178135Y-397337D02*
G01X178135Y-1790365D01*
G01X177800Y-1790700D01*
G01X-605629Y-673100D02*
G01X-329865Y-397337D01*
G01X-2032000Y-673100D02*
G01X-1512600Y-153700D01*
G01X-1512600Y601422D01*
G01X-1452322Y661700D01*
G01X-1367078Y661700D01*
G01X-1306800Y601422D01*
G01X-1306800Y506246D01*
G01X-1082000Y281446D01*
G01X-1082000Y-673100D01*
G01X-605629Y-673100D01*
G01X-2171700Y1320800D02*
G01X-2171700Y1638300D01*
G01X-1955800Y1854200D01*
G01X-1460500Y1854200D01*
G01X-584200Y977900D01*
G01X-330200Y977900D02*
G01X-1295400Y1943100D01*
G01X-3670300Y1943100D01*
G01X1358900Y-596900D02*
G01X1358900Y-419100D01*
G01X1612900Y-165100D01*
G01X1714500Y-3683000D02*
G01X1714500Y-1566405D01*
G01X1714500Y-1401305D01*
G01X-1828800Y-622300D02*
G01X-1574800Y-622300D01*
G01X-1092200Y-1104900D01*
G01X-952500Y-812800D02*
G01X-584200Y-812800D01*
G01X-2171700Y1066800D02*
G01X-1953300Y848400D01*
G01X-1540476Y848400D01*
G01X-1504877Y812800D01*
G01X-1409700Y812800D01*
G04 Track End*

M02*

