G04 Layer: TopSilkscreenLayer*
G04 EasyEDA Pro v2.2.47.7, 2026-06-08 22:07:34*
G04 Gerber Generator version 0.3*
G04 Scale: 100 percent, Rotated: No, Reflected: No*
G04 Dimensions in millimeters*
G04 Leading zeros omitted, absolute positions, 4 integers and 5 decimals*
G04 Generated by one-click*
G04 Object Configs: Pad,Via,Track,Text,Image,Dimension,BoardOutline,BoardCutout,CopperFilled,SolidRegion,FPCStiffener,Line,PlaneZone,ComponentProperty,ComponentSilkscreen,TearDrop*
G04 Layer Configs: 1,2,3,4,5,6,7,8,9,10,11,13,14,56*
G04 Copper Areas: 0*
%FSLAX45Y45*%
%MOMM*%
%ADD10C,0.203*%
%ADD11C,0.1524*%
%ADD12C,0.254*%
%ADD13C,0.2032*%
%ADD14C,0.2*%
%ADD15C,0.25*%
%ADD16C,0.6*%
%ADD17C,0.3032*%
%ADD18C,0.3*%
G75*


G04 Image Start*
G36*
G01X-2375461Y-2285552D02*
G01X-2375461Y-2285552D01*
G01X-2409930Y-2327704D01*
G01X-2409930Y-2327704D01*
G01X-2415133Y-2336813D01*
G01X-2415133Y-2336813D01*
G01X-2419177Y-2342752D01*
G01X-2419177Y-2342752D01*
G01X-2427522Y-2352971D01*
G01X-2427522Y-2352971D01*
G01X-2436529Y-2364109D01*
G01X-2436529Y-2364109D01*
G01X-2438840Y-2366623D01*
G01X-2438840Y-2366623D01*
G01X-2446567Y-2380090D01*
G01X-2446567Y-2380090D01*
G01X-2482861Y-2442213D01*
G01X-2482861Y-2442213D01*
G01X-2491687Y-2458228D01*
G01X-2491687Y-2458228D01*
G01X-2496383Y-2469436D01*
G01X-2496383Y-2469436D01*
G01X-2500695Y-2479816D01*
G01X-2500695Y-2479816D01*
G01X-2503906Y-2486399D01*
G01X-2503906Y-2486399D01*
G01X-2507848Y-2497091D01*
G01X-2507848Y-2497091D01*
G01X-2514329Y-2514496D01*
G01X-2514329Y-2514496D01*
G01X-2518537Y-2525648D01*
G01X-2518537Y-2525648D01*
G01X-2521628Y-2539468D01*
G01X-2521628Y-2539468D01*
G01X-2525507Y-2556132D01*
G01X-2525507Y-2556132D01*
G01X-2529420Y-2577846D01*
G01X-2531198Y-2614107D01*
G01X-2527451Y-2675019D01*
G01X-2527451Y-2675019D01*
G01X-2522367Y-2695079D01*
G01X-2522367Y-2695079D01*
G01X-2517698Y-2710276D01*
G01X-2517698Y-2710276D01*
G01X-2513907Y-2720090D01*
G01X-2513907Y-2720090D01*
G01X-2509952Y-2730180D01*
G01X-2509952Y-2730180D01*
G01X-2505538Y-2739752D01*
G01X-2505538Y-2739752D01*
G01X-2500663Y-2749867D01*
G01X-2500663Y-2749867D01*
G01X-2495577Y-2757669D01*
G01X-2495577Y-2757669D01*
G01X-2468364Y-2797069D01*
G01X-2468364Y-2797069D01*
G01X-2454181Y-2813650D01*
G01X-2454181Y-2813650D01*
G01X-2431527Y-2836380D01*
G01X-2431527Y-2836380D01*
G01X-2416881Y-2849336D01*
G01X-2416881Y-2849336D01*
G01X-2406475Y-2857793D01*
G01X-2406475Y-2857793D01*
G01X-2394275Y-2866613D01*
G01X-2394275Y-2866613D01*
G01X-2382721Y-2874803D01*
G01X-2382721Y-2874803D01*
G01X-2374554Y-2881119D01*
G01X-2374554Y-2881119D01*
G01X-2364346Y-2887518D01*
G01X-2355800Y-2891994D01*
G01X-2351136Y-2881618D01*
G01X-2351136Y-2881618D01*
G01X-2344672Y-2859138D01*
G01X-2344672Y-2859138D01*
G01X-2341272Y-2843072D01*
G01X-2336406Y-2836709D01*
G01X-2336406Y-2836709D01*
G01X-2332339Y-2836344D01*
G01X-2329296Y-2840513D01*
G01X-2325920Y-2863361D01*
G01X-2325920Y-2863361D01*
G01X-2322909Y-2877690D01*
G01X-2322909Y-2877690D01*
G01X-2318497Y-2887636D01*
G01X-2316442Y-2895600D01*
G01X-2312169Y-2892144D01*
G01X-2312169Y-2892144D01*
G01X-2277738Y-2869557D01*
G01X-2277738Y-2869557D01*
G01X-2264190Y-2860130D01*
G01X-2264190Y-2860130D01*
G01X-2256132Y-2854095D01*
G01X-2256132Y-2854095D01*
G01X-2188668Y-2786585D01*
G01X-2188668Y-2786585D01*
G01X-2166399Y-2750990D01*
G01X-2166399Y-2750990D01*
G01X-2162382Y-2743124D01*
G01X-2162382Y-2743124D01*
G01X-2150924Y-2719735D01*
G01X-2150924Y-2719735D01*
G01X-2147678Y-2711105D01*
G01X-2147678Y-2711105D01*
G01X-2142130Y-2694048D01*
G01X-2142130Y-2694048D01*
G01X-2137043Y-2674850D01*
G01X-2137043Y-2674850D01*
G01X-2132497Y-2642580D01*
G01X-2133629Y-2599291D01*
G01X-2139109Y-2561331D01*
G01X-2143064Y-2549457D01*
G01X-2147608Y-2545045D01*
G01X-2147608Y-2545045D01*
G01X-2156878Y-2538717D01*
G01X-2156878Y-2538717D01*
G01X-2169224Y-2530003D01*
G01X-2169224Y-2530003D01*
G01X-2173697Y-2526260D01*
G01X-2173697Y-2526260D01*
G01X-2178984Y-2522072D01*
G01X-2178984Y-2522072D01*
G01X-2189018Y-2514864D01*
G01X-2189018Y-2514864D01*
G01X-2233346Y-2470871D01*
G01X-2233346Y-2470871D01*
G01X-2256642Y-2445318D01*
G01X-2256642Y-2445318D01*
G01X-2263843Y-2436545D01*
G01X-2263843Y-2436545D01*
G01X-2272085Y-2425432D01*
G01X-2272085Y-2425432D01*
G01X-2274570Y-2421983D01*
G01X-2274570Y-2421983D01*
G01X-2304391Y-2382368D01*
G01X-2304391Y-2382368D01*
G01X-2317642Y-2362138D01*
G01X-2317642Y-2362138D01*
G01X-2329760Y-2344191D01*
G01X-2329760Y-2344191D01*
G01X-2336362Y-2333004D01*
G01X-2336362Y-2333004D01*
G01X-2343275Y-2320868D01*
G01X-2343275Y-2320868D01*
G01X-2360997Y-2290036D01*
G01X-2360997Y-2290036D01*
G01X-2368160Y-2282497D01*
G01X-2375461Y-2285552D01*
G37*
G36*
G01X-2004013Y-2133727D02*
G01X-2004013Y-2133727D01*
G01X-2009279Y-2138527D01*
G01X-2009279Y-2138527D01*
G01X-2017112Y-2145689D01*
G01X-2017112Y-2145689D01*
G01X-2029907Y-2155111D01*
G01X-2029907Y-2155111D01*
G01X-2038447Y-2160688D01*
G01X-2038447Y-2160688D01*
G01X-2040312Y-2162331D01*
G01X-2040312Y-2162331D01*
G01X-2045599Y-2166804D01*
G01X-2045599Y-2166804D01*
G01X-2052512Y-2171795D01*
G01X-2052512Y-2171795D01*
G01X-2066339Y-2180463D01*
G01X-2066339Y-2180463D01*
G01X-2082605Y-2189730D01*
G01X-2082605Y-2189730D01*
G01X-2091282Y-2193665D01*
G01X-2091282Y-2193665D01*
G01X-2099748Y-2198836D01*
G01X-2099748Y-2198836D01*
G01X-2108557Y-2202832D01*
G01X-2108557Y-2202832D01*
G01X-2113511Y-2204379D01*
G01X-2113511Y-2204379D01*
G01X-2121238Y-2208934D01*
G01X-2121238Y-2208934D01*
G01X-2133844Y-2214967D01*
G01X-2133844Y-2214967D01*
G01X-2141188Y-2217998D01*
G01X-2141188Y-2217998D01*
G01X-2149322Y-2221128D01*
G01X-2149322Y-2221128D01*
G01X-2161497Y-2226405D01*
G01X-2161497Y-2226405D01*
G01X-2169743Y-2229978D01*
G01X-2169743Y-2229978D01*
G01X-2182757Y-2234070D01*
G01X-2182757Y-2234070D01*
G01X-2200537Y-2239873D01*
G01X-2200537Y-2239873D01*
G01X-2214363Y-2244189D01*
G01X-2214363Y-2244189D01*
G01X-2226563Y-2247979D01*
G01X-2226563Y-2247979D01*
G01X-2241203Y-2252710D01*
G01X-2241203Y-2252710D01*
G01X-2263976Y-2258309D01*
G01X-2263976Y-2258309D01*
G01X-2310576Y-2269374D01*
G01X-2310576Y-2269374D01*
G01X-2318110Y-2277011D01*
G01X-2318255Y-2281672D01*
G01X-2315015Y-2283750D01*
G01X-2315015Y-2283750D01*
G01X-2310716Y-2290057D01*
G01X-2310716Y-2290057D01*
G01X-2303600Y-2300167D01*
G01X-2303600Y-2300167D01*
G01X-2298186Y-2308610D01*
G01X-2298186Y-2308610D01*
G01X-2292729Y-2319151D01*
G01X-2292729Y-2319151D01*
G01X-2285942Y-2329422D01*
G01X-2285942Y-2329422D01*
G01X-2269669Y-2354899D01*
G01X-2269669Y-2354899D01*
G01X-2260248Y-2369064D01*
G01X-2260248Y-2369064D01*
G01X-2252354Y-2379371D01*
G01X-2252354Y-2379371D01*
G01X-2244203Y-2390461D01*
G01X-2244203Y-2390461D01*
G01X-2239431Y-2396145D01*
G01X-2239431Y-2396145D01*
G01X-2234797Y-2401537D01*
G01X-2234797Y-2401537D01*
G01X-2218640Y-2421141D01*
G01X-2218640Y-2421141D01*
G01X-2203842Y-2438841D01*
G01X-2203842Y-2438841D01*
G01X-2197183Y-2445453D01*
G01X-2197183Y-2445453D01*
G01X-2189005Y-2454304D01*
G01X-2189005Y-2454304D01*
G01X-2184718Y-2459070D01*
G01X-2184718Y-2459070D01*
G01X-2175407Y-2467115D01*
G01X-2175407Y-2467115D01*
G01X-2163124Y-2478286D01*
G01X-2163124Y-2478286D01*
G01X-2154991Y-2484619D01*
G01X-2154991Y-2484619D01*
G01X-2131585Y-2502058D01*
G01X-2131585Y-2502058D01*
G01X-2117890Y-2510908D01*
G01X-2117890Y-2510908D01*
G01X-2107861Y-2516387D01*
G01X-2107861Y-2516387D01*
G01X-2101030Y-2520371D01*
G01X-2101030Y-2520371D01*
G01X-2092365Y-2525621D01*
G01X-2092365Y-2525621D01*
G01X-2082605Y-2530033D01*
G01X-2082605Y-2530033D01*
G01X-2046006Y-2543659D01*
G01X-2046006Y-2543659D01*
G01X-2029354Y-2547783D01*
G01X-2029354Y-2547783D01*
G01X-1971725Y-2552580D01*
G01X-1940647Y-2551209D01*
G01X-1921776Y-2547378D01*
G01X-1921776Y-2547378D01*
G01X-1914247Y-2545018D01*
G01X-1914247Y-2545018D01*
G01X-1904318Y-2541829D01*
G01X-1904318Y-2541829D01*
G01X-1888985Y-2536763D01*
G01X-1888985Y-2536763D01*
G01X-1875329Y-2531654D01*
G01X-1875329Y-2531654D01*
G01X-1864210Y-2527295D01*
G01X-1864210Y-2527295D01*
G01X-1857226Y-2524667D01*
G01X-1857226Y-2524667D01*
G01X-1843164Y-2516319D01*
G01X-1843164Y-2516319D01*
G01X-1780172Y-2473600D01*
G01X-1780172Y-2473600D01*
G01X-1774479Y-2469167D01*
G01X-1774479Y-2469167D01*
G01X-1762156Y-2458919D01*
G01X-1751583Y-2448689D01*
G01X-1757215Y-2443765D01*
G01X-1757215Y-2443765D01*
G01X-1764817Y-2438841D01*
G01X-1764817Y-2438841D01*
G01X-1771581Y-2434660D01*
G01X-1771581Y-2434660D01*
G01X-1783687Y-2427231D01*
G01X-1783687Y-2427231D01*
G01X-1794357Y-2419198D01*
G01X-1795709Y-2411034D01*
G01X-1793588Y-2408028D01*
G01X-1769888Y-2410090D01*
G01X-1769888Y-2410090D01*
G01X-1742632Y-2410180D01*
G01X-1742632Y-2410180D01*
G01X-1739900Y-2406964D01*
G01X-1742382Y-2397540D01*
G01X-1742382Y-2397540D01*
G01X-1745647Y-2384053D01*
G01X-1745647Y-2384053D01*
G01X-1756485Y-2343894D01*
G01X-1756485Y-2343894D01*
G01X-1758918Y-2336898D01*
G01X-1758918Y-2336898D01*
G01X-1762934Y-2325051D01*
G01X-1762934Y-2325051D01*
G01X-1766985Y-2315363D01*
G01X-1766985Y-2315363D01*
G01X-1771916Y-2303399D01*
G01X-1771916Y-2303399D01*
G01X-1776796Y-2291030D01*
G01X-1776796Y-2291030D01*
G01X-1783367Y-2279644D01*
G01X-1783367Y-2279644D01*
G01X-1792178Y-2263186D01*
G01X-1792178Y-2263186D01*
G01X-1797807Y-2253989D01*
G01X-1797807Y-2253989D01*
G01X-1801196Y-2249161D01*
G01X-1801196Y-2249161D01*
G01X-1804235Y-2243778D01*
G01X-1804235Y-2243778D01*
G01X-1815021Y-2230648D01*
G01X-1815021Y-2230648D01*
G01X-1863292Y-2182603D01*
G01X-1863292Y-2182603D01*
G01X-1871681Y-2176867D01*
G01X-1871681Y-2176867D01*
G01X-1901410Y-2158992D01*
G01X-1941001Y-2143357D01*
G01X-1979016Y-2133692D01*
G01X-2004013Y-2133727D01*
G37*
G36*
G01X-2692597Y-2164062D02*
G01X-2692597Y-2164062D01*
G01X-2764982Y-2180740D01*
G01X-2764982Y-2180740D01*
G01X-2793203Y-2193566D01*
G01X-2793203Y-2193566D01*
G01X-2800074Y-2197899D01*
G01X-2800074Y-2197899D01*
G01X-2807179Y-2202115D01*
G01X-2807179Y-2202115D01*
G01X-2817096Y-2208901D01*
G01X-2817096Y-2208901D01*
G01X-2825111Y-2214633D01*
G01X-2825111Y-2214633D01*
G01X-2874781Y-2264343D01*
G01X-2874781Y-2264343D01*
G01X-2892016Y-2287964D01*
G01X-2892016Y-2287964D01*
G01X-2895944Y-2295550D01*
G01X-2895944Y-2295550D01*
G01X-2900079Y-2303979D01*
G01X-2900079Y-2303979D01*
G01X-2907247Y-2317233D01*
G01X-2907247Y-2317233D01*
G01X-2915369Y-2328756D01*
G01X-2915369Y-2328756D01*
G01X-2919091Y-2337947D01*
G01X-2919091Y-2337947D01*
G01X-2923074Y-2350868D01*
G01X-2923074Y-2350868D01*
G01X-2928288Y-2363824D01*
G01X-2928288Y-2363824D01*
G01X-2932419Y-2375649D01*
G01X-2932419Y-2375649D01*
G01X-2936294Y-2386607D01*
G01X-2936294Y-2386607D01*
G01X-2941158Y-2405969D01*
G01X-2941158Y-2405969D01*
G01X-2945849Y-2424655D01*
G01X-2945353Y-2433688D01*
G01X-2937265Y-2436338D01*
G01X-2919181Y-2435876D01*
G01X-2919181Y-2435876D01*
G01X-2896549Y-2436209D01*
G01X-2893774Y-2438691D01*
G01X-2893906Y-2443563D01*
G01X-2893906Y-2443563D01*
G01X-2897267Y-2448846D01*
G01X-2910292Y-2456414D01*
G01X-2910292Y-2456414D01*
G01X-2926982Y-2465769D01*
G01X-2933533Y-2472763D01*
G01X-2930666Y-2480240D01*
G01X-2919107Y-2491041D01*
G01X-2919107Y-2491041D01*
G01X-2897295Y-2509928D01*
G01X-2897295Y-2509928D01*
G01X-2888349Y-2516886D01*
G01X-2888349Y-2516886D01*
G01X-2881946Y-2521723D01*
G01X-2881946Y-2521723D01*
G01X-2872999Y-2527961D01*
G01X-2872999Y-2527961D01*
G01X-2856888Y-2537394D01*
G01X-2856888Y-2537394D01*
G01X-2839808Y-2547465D01*
G01X-2839808Y-2547465D01*
G01X-2830048Y-2553052D01*
G01X-2830048Y-2553052D01*
G01X-2795019Y-2568646D01*
G01X-2795019Y-2568646D01*
G01X-2778089Y-2573559D01*
G01X-2778089Y-2573559D01*
G01X-2750178Y-2580431D01*
G01X-2719544Y-2584047D01*
G01X-2690088Y-2584164D01*
G01X-2665709Y-2580540D01*
G01X-2665709Y-2580540D01*
G01X-2647613Y-2577075D01*
G01X-2647613Y-2577075D01*
G01X-2636939Y-2574738D01*
G01X-2636939Y-2574738D01*
G01X-2617771Y-2566872D01*
G01X-2617771Y-2566872D01*
G01X-2593533Y-2555722D01*
G01X-2593533Y-2555722D01*
G01X-2579468Y-2550102D01*
G01X-2579468Y-2550102D01*
G01X-2570372Y-2543545D01*
G01X-2563570Y-2527898D01*
G01X-2563570Y-2527898D01*
G01X-2549458Y-2482671D01*
G01X-2549458Y-2482671D01*
G01X-2539417Y-2457586D01*
G01X-2539417Y-2457586D01*
G01X-2530741Y-2438834D01*
G01X-2530741Y-2438834D01*
G01X-2521841Y-2420967D01*
G01X-2521841Y-2420967D01*
G01X-2513754Y-2406003D01*
G01X-2513754Y-2406003D01*
G01X-2508211Y-2396275D01*
G01X-2508211Y-2396275D01*
G01X-2504099Y-2389954D01*
G01X-2504099Y-2389954D01*
G01X-2501413Y-2386161D01*
G01X-2501413Y-2386161D01*
G01X-2483166Y-2357211D01*
G01X-2483166Y-2357211D01*
G01X-2474626Y-2344020D01*
G01X-2474626Y-2344020D01*
G01X-2450633Y-2309504D01*
G01X-2450633Y-2309504D01*
G01X-2443720Y-2300428D01*
G01X-2443720Y-2300428D01*
G01X-2435830Y-2289970D01*
G01X-2435830Y-2289970D01*
G01X-2426477Y-2278409D01*
G01X-2426477Y-2278409D01*
G01X-2408164Y-2256862D01*
G01X-2391315Y-2238128D01*
G01X-2393251Y-2233285D01*
G01X-2393251Y-2233285D01*
G01X-2401153Y-2227285D01*
G01X-2401153Y-2227285D01*
G01X-2416067Y-2221878D01*
G01X-2416067Y-2221878D01*
G01X-2431520Y-2214539D01*
G01X-2431520Y-2214539D01*
G01X-2446160Y-2209431D01*
G01X-2446160Y-2209431D01*
G01X-2458360Y-2205189D01*
G01X-2458360Y-2205189D01*
G01X-2488453Y-2193416D01*
G01X-2488453Y-2193416D01*
G01X-2499839Y-2189164D01*
G01X-2499839Y-2189164D01*
G01X-2517285Y-2184323D01*
G01X-2517285Y-2184323D01*
G01X-2532738Y-2180671D01*
G01X-2532738Y-2180671D01*
G01X-2584425Y-2169086D01*
G01X-2584425Y-2169086D01*
G01X-2608011Y-2165847D01*
G01X-2608011Y-2165847D01*
G01X-2692597Y-2164062D01*
G37*
G36*
G01X-2704853Y-1708818D02*
G01X-2704853Y-1708818D01*
G01X-2709157Y-1712652D01*
G01X-2710335Y-1719181D01*
G01X-2703325Y-1740087D01*
G01X-2703325Y-1740087D01*
G01X-2700740Y-1747698D01*
G01X-2700740Y-1747698D01*
G01X-2697477Y-1756542D01*
G01X-2697477Y-1756542D01*
G01X-2694726Y-1770181D01*
G01X-2696930Y-1772370D01*
G01X-2700896Y-1769167D01*
G01X-2700896Y-1769167D01*
G01X-2705823Y-1764531D01*
G01X-2705823Y-1764531D01*
G01X-2715525Y-1756102D01*
G01X-2715525Y-1756102D01*
G01X-2725151Y-1747673D01*
G01X-2725151Y-1747673D01*
G01X-2732331Y-1742497D01*
G01X-2732331Y-1742497D01*
G01X-2741576Y-1737862D01*
G01X-2748087Y-1740930D01*
G01X-2748087Y-1740930D01*
G01X-2756036Y-1760276D01*
G01X-2756036Y-1760276D01*
G01X-2759432Y-1768810D01*
G01X-2759432Y-1768810D01*
G01X-2765247Y-1787289D01*
G01X-2765247Y-1787289D01*
G01X-2770079Y-1802973D01*
G01X-2770079Y-1802973D01*
G01X-2774827Y-1819500D01*
G01X-2774827Y-1819500D01*
G01X-2778740Y-1835199D01*
G01X-2778740Y-1835199D01*
G01X-2782061Y-1854075D01*
G01X-2782061Y-1854075D01*
G01X-2786400Y-1888988D01*
G01X-2786400Y-1888988D01*
G01X-2788103Y-1912362D01*
G01X-2784472Y-1942380D01*
G01X-2784472Y-1942380D01*
G01X-2780334Y-1969831D01*
G01X-2780334Y-1969831D01*
G01X-2769039Y-2008125D01*
G01X-2769039Y-2008125D01*
G01X-2764830Y-2019926D01*
G01X-2764830Y-2019926D01*
G01X-2759683Y-2029960D01*
G01X-2759683Y-2029960D01*
G01X-2751128Y-2044701D01*
G01X-2751128Y-2044701D01*
G01X-2741869Y-2060796D01*
G01X-2741869Y-2060796D01*
G01X-2734103Y-2072185D01*
G01X-2734103Y-2072185D01*
G01X-2715913Y-2094690D01*
G01X-2715913Y-2094690D01*
G01X-2693731Y-2114826D01*
G01X-2683566Y-2117319D01*
G01X-2670649Y-2116378D01*
G01X-2670649Y-2116378D01*
G01X-2636593Y-2117412D01*
G01X-2636593Y-2117412D01*
G01X-2594185Y-2121949D01*
G01X-2594185Y-2121949D01*
G01X-2562465Y-2126965D01*
G01X-2562465Y-2126965D01*
G01X-2542132Y-2131206D01*
G01X-2542132Y-2131206D01*
G01X-2444502Y-2160811D01*
G01X-2444502Y-2160811D01*
G01X-2434742Y-2164113D01*
G01X-2434742Y-2164113D01*
G01X-2423429Y-2169170D01*
G01X-2423429Y-2169170D01*
G01X-2411021Y-2174174D01*
G01X-2411021Y-2174174D01*
G01X-2406526Y-2176430D01*
G01X-2406526Y-2176430D01*
G01X-2397787Y-2180807D01*
G01X-2397787Y-2180807D01*
G01X-2385782Y-2186137D01*
G01X-2385782Y-2186137D01*
G01X-2377850Y-2189346D01*
G01X-2377850Y-2189346D01*
G01X-2365635Y-2194273D01*
G01X-2365635Y-2194273D01*
G01X-2354752Y-2197135D01*
G01X-2352599Y-2183530D01*
G01X-2352599Y-2183530D01*
G01X-2350188Y-2155631D01*
G01X-2350188Y-2155631D01*
G01X-2347814Y-2091135D01*
G01X-2349401Y-2030883D01*
G01X-2349401Y-2030883D01*
G01X-2352656Y-2002272D01*
G01X-2352656Y-2002272D01*
G01X-2356050Y-1974457D01*
G01X-2356050Y-1974457D01*
G01X-2361473Y-1949123D01*
G01X-2361473Y-1949123D01*
G01X-2375253Y-1902764D01*
G01X-2375253Y-1902764D01*
G01X-2379352Y-1890490D01*
G01X-2379352Y-1890490D01*
G01X-2384428Y-1878037D01*
G01X-2384428Y-1878037D01*
G01X-2390046Y-1865657D01*
G01X-2390046Y-1865657D01*
G01X-2410679Y-1829433D01*
G01X-2410679Y-1829433D01*
G01X-2421472Y-1812663D01*
G01X-2421472Y-1812663D01*
G01X-2432100Y-1798164D01*
G01X-2432100Y-1798164D01*
G01X-2441729Y-1787540D01*
G01X-2441729Y-1787540D01*
G01X-2448588Y-1781389D01*
G01X-2448588Y-1781389D01*
G01X-2455629Y-1775910D01*
G01X-2455629Y-1775910D01*
G01X-2493333Y-1748190D01*
G01X-2493333Y-1748190D01*
G01X-2512538Y-1738303D01*
G01X-2512538Y-1738303D01*
G01X-2522475Y-1734305D01*
G01X-2522475Y-1734305D01*
G01X-2533999Y-1729129D01*
G01X-2533999Y-1729129D01*
G01X-2545208Y-1724274D01*
G01X-2545208Y-1724274D01*
G01X-2559212Y-1720708D01*
G01X-2559212Y-1720708D01*
G01X-2573852Y-1716493D01*
G01X-2573852Y-1716493D01*
G01X-2586052Y-1713429D01*
G01X-2586052Y-1713429D01*
G01X-2617771Y-1709885D01*
G01X-2617771Y-1709885D01*
G01X-2704853Y-1708818D01*
G37*
G36*
G01X-2102938Y-1690371D02*
G01X-2102938Y-1690371D01*
G01X-2155335Y-1700211D01*
G01X-2155335Y-1700211D01*
G01X-2168769Y-1703834D01*
G01X-2168769Y-1703834D01*
G01X-2182508Y-1708191D01*
G01X-2182508Y-1708191D01*
G01X-2189106Y-1710606D01*
G01X-2189106Y-1710606D01*
G01X-2199183Y-1714644D01*
G01X-2199183Y-1714644D01*
G01X-2212196Y-1720781D01*
G01X-2212196Y-1720781D01*
G01X-2228366Y-1729386D01*
G01X-2228366Y-1729386D01*
G01X-2239852Y-1735873D01*
G01X-2239852Y-1735873D01*
G01X-2245292Y-1739628D01*
G01X-2245292Y-1739628D01*
G01X-2257392Y-1749738D01*
G01X-2257392Y-1749738D01*
G01X-2297291Y-1788132D01*
G01X-2297291Y-1788132D01*
G01X-2307210Y-1801618D01*
G01X-2307210Y-1801618D01*
G01X-2326574Y-1832843D01*
G01X-2326574Y-1832843D01*
G01X-2330928Y-1842076D01*
G01X-2330928Y-1842076D01*
G01X-2340049Y-1857046D01*
G01X-2338896Y-1871099D01*
G01X-2338896Y-1871099D01*
G01X-2327147Y-1908665D01*
G01X-2327147Y-1908665D01*
G01X-2322991Y-1922092D01*
G01X-2322991Y-1922092D01*
G01X-2318294Y-1942322D01*
G01X-2318294Y-1942322D01*
G01X-2312884Y-1968254D01*
G01X-2312884Y-1968254D01*
G01X-2308786Y-2000284D01*
G01X-2308786Y-2000284D01*
G01X-2305579Y-2031726D01*
G01X-2305579Y-2031726D01*
G01X-2303908Y-2091645D01*
G01X-2306197Y-2157652D01*
G01X-2306197Y-2157652D01*
G01X-2309383Y-2192929D01*
G01X-2309383Y-2192929D01*
G01X-2310460Y-2210630D01*
G01X-2310460Y-2210630D01*
G01X-2309422Y-2220047D01*
G01X-2302119Y-2221275D01*
G01X-2302119Y-2221275D01*
G01X-2249403Y-2207884D01*
G01X-2249403Y-2207884D01*
G01X-2230696Y-2202179D01*
G01X-2230696Y-2202179D01*
G01X-2216011Y-2197800D01*
G01X-2216011Y-2197800D01*
G01X-2203417Y-2193462D01*
G01X-2203417Y-2193462D01*
G01X-2192009Y-2189937D01*
G01X-2192009Y-2189937D01*
G01X-2181017Y-2185974D01*
G01X-2181017Y-2185974D01*
G01X-2172884Y-2181864D01*
G01X-2172884Y-2181864D01*
G01X-2107914Y-2151724D01*
G01X-2107914Y-2151724D01*
G01X-2095331Y-2144387D01*
G01X-2095331Y-2144387D01*
G01X-2075811Y-2132406D01*
G01X-2075811Y-2132406D01*
G01X-2059832Y-2122758D01*
G01X-2059832Y-2122758D01*
G01X-2049848Y-2115123D01*
G01X-2049848Y-2115123D01*
G01X-2035208Y-2102077D01*
G01X-2035208Y-2102077D01*
G01X-1998020Y-2063088D01*
G01X-1998020Y-2063088D01*
G01X-1994031Y-2059572D01*
G01X-1994031Y-2059572D01*
G01X-1987284Y-2052449D01*
G01X-1987284Y-2052449D01*
G01X-1979297Y-2040155D01*
G01X-1979297Y-2040155D01*
G01X-1972964Y-2028632D01*
G01X-1972964Y-2028632D01*
G01X-1968087Y-2020203D01*
G01X-1968087Y-2020203D01*
G01X-1963102Y-2012340D01*
G01X-1963102Y-2012340D01*
G01X-1955689Y-1994639D01*
G01X-1955689Y-1994639D01*
G01X-1947037Y-1971038D01*
G01X-1947037Y-1971038D01*
G01X-1942003Y-1951652D01*
G01X-1942003Y-1951652D01*
G01X-1937339Y-1922460D01*
G01X-1935918Y-1885070D01*
G01X-1937702Y-1847044D01*
G01X-1942655Y-1815947D01*
G01X-1942655Y-1815947D01*
G01X-1946800Y-1796561D01*
G01X-1946800Y-1796561D01*
G01X-1962359Y-1746830D01*
G01X-1962359Y-1746830D01*
G01X-1968298Y-1729129D01*
G01X-1968298Y-1729129D01*
G01X-1974624Y-1721127D01*
G01X-1985401Y-1726107D01*
G01X-1985401Y-1726107D01*
G01X-1994580Y-1734187D01*
G01X-1994580Y-1734187D01*
G01X-2007006Y-1745683D01*
G01X-2007006Y-1745683D01*
G01X-2016126Y-1752700D01*
G01X-2021590Y-1752552D01*
G01X-2022664Y-1745993D01*
G01X-2018614Y-1733774D01*
G01X-2018614Y-1733774D01*
G01X-2009359Y-1710002D01*
G01X-2005769Y-1698460D01*
G01X-2008459Y-1695673D01*
G01X-2008459Y-1695673D01*
G01X-2022071Y-1692630D01*
G01X-2022071Y-1692630D01*
G01X-2042752Y-1690665D01*
G01X-2042752Y-1690665D01*
G01X-2102938Y-1690371D01*
G37*
G36*
G01X850431Y3187166D02*
G01X850060Y3186632D01*
G01X846477Y3186325D01*
G01X846477Y3186325D01*
G01X839770Y3185393D01*
G01X839770Y3185393D01*
G01X835231Y3184768D01*
G01X835231Y3184768D01*
G01X832305Y3184286D01*
G01X832305Y3184286D01*
G01X828394Y3183592D01*
G01X828394Y3183592D01*
G01X824770Y3182931D01*
G01X824770Y3182931D01*
G01X821533Y3182298D01*
G01X821533Y3182298D01*
G01X818257Y3181646D01*
G01X818257Y3181646D01*
G01X814840Y3180885D01*
G01X814840Y3180885D01*
G01X811244Y3180087D01*
G01X811244Y3180087D01*
G01X808618Y3179569D01*
G01X808618Y3179569D01*
G01X806456Y3179098D01*
G01X806456Y3179098D01*
G01X803697Y3178399D01*
G01X803697Y3178399D01*
G01X800465Y3177560D01*
G01X800465Y3177560D01*
G01X798116Y3176954D01*
G01X798116Y3176954D01*
G01X796179Y3176455D01*
G01X796179Y3176455D01*
G01X793673Y3175752D01*
G01X793673Y3175752D01*
G01X789315Y3174582D01*
G01X789315Y3174582D01*
G01X784519Y3173195D01*
G01X784519Y3173195D01*
G01X782181Y3172441D01*
G01X782181Y3172441D01*
G01X780312Y3171880D01*
G01X780312Y3171880D01*
G01X777621Y3171036D01*
G01X777621Y3171036D01*
G01X775642Y3170430D01*
G01X775642Y3170430D01*
G01X773838Y3169781D01*
G01X773838Y3169781D01*
G01X771948Y3169131D01*
G01X771948Y3169131D01*
G01X769796Y3168478D01*
G01X769796Y3168478D01*
G01X767998Y3167826D01*
G01X767998Y3167826D01*
G01X766199Y3167175D01*
G01X766199Y3167175D01*
G01X764401Y3166522D01*
G01X764401Y3166522D01*
G01X762603Y3165871D01*
G01X762603Y3165871D01*
G01X760771Y3165219D01*
G01X760771Y3165219D01*
G01X759327Y3164753D01*
G01X759327Y3164753D01*
G01X756214Y3163444D01*
G01X756214Y3163444D01*
G01X752726Y3161957D01*
G01X752726Y3161957D01*
G01X750702Y3161310D01*
G01X750702Y3161310D01*
G01X749569Y3160830D01*
G01X749569Y3160830D01*
G01X747919Y3160145D01*
G01X747919Y3160145D01*
G01X746292Y3159484D01*
G01X746292Y3159484D01*
G01X745536Y3159029D01*
G01X745536Y3159029D01*
G01X737512Y3155694D01*
G01X737512Y3155694D01*
G01X726362Y3150385D01*
G01X726362Y3150385D01*
G01X722406Y3148424D01*
G01X722406Y3148424D01*
G01X719708Y3147030D01*
G01X719708Y3147030D01*
G01X714852Y3144512D01*
G01X714852Y3144512D01*
G01X712155Y3143069D01*
G01X712155Y3143069D01*
G01X709458Y3141584D01*
G01X709458Y3141584D01*
G01X707479Y3140560D01*
G01X707479Y3140560D01*
G01X705185Y3139101D01*
G01X705185Y3139101D01*
G01X703130Y3137851D01*
G01X703130Y3137851D01*
G01X699870Y3136025D01*
G01X699870Y3136025D01*
G01X696349Y3134005D01*
G01X696349Y3134005D01*
G01X693101Y3132031D01*
G01X693101Y3132031D01*
G01X691024Y3130693D01*
G01X691024Y3130693D01*
G01X689137Y3129327D01*
G01X689137Y3129327D01*
G01X688647Y3129055D01*
G01X688647Y3129055D01*
G01X686888Y3128159D01*
G01X686888Y3128159D01*
G01X684815Y3126775D01*
G01X684815Y3126775D01*
G01X683246Y3125727D01*
G01X683246Y3125727D01*
G01X681351Y3124343D01*
G01X681351Y3124343D01*
G01X679943Y3123517D01*
G01X679943Y3123517D01*
G01X679096Y3123012D01*
G01X679096Y3123012D01*
G01X676482Y3121138D01*
G01X676482Y3121138D01*
G01X670840Y3117082D01*
G01X670840Y3117082D01*
G01X666990Y3114394D01*
G01X666990Y3114394D01*
G01X665967Y3113661D01*
G01X665967Y3113661D01*
G01X663229Y3111419D01*
G01X663229Y3111419D01*
G01X658195Y3107509D01*
G01X658195Y3107509D01*
G01X654491Y3104619D01*
G01X654491Y3104619D01*
G01X636266Y3088527D01*
G01X636266Y3088527D01*
G01X624396Y3077275D01*
G01X624396Y3077275D01*
G01X618233Y3070652D01*
G01X618233Y3070652D01*
G01X617203Y3069584D01*
G01X617203Y3069584D01*
G01X612697Y3064292D01*
G01X612697Y3064292D01*
G01X607572Y3058417D01*
G01X607572Y3058417D01*
G01X606323Y3057122D01*
G01X606323Y3057122D01*
G01X605693Y3056294D01*
G01X605693Y3056294D01*
G01X603353Y3053441D01*
G01X603353Y3053441D01*
G01X602816Y3052561D01*
G01X602816Y3052561D01*
G01X602360Y3051937D01*
G01X602360Y3051937D01*
G01X597982Y3046421D01*
G01X597982Y3046421D01*
G01X593996Y3041250D01*
G01X593996Y3041250D01*
G01X591833Y3038318D01*
G01X591833Y3038318D01*
G01X590529Y3036516D01*
G01X590529Y3036516D01*
G01X589136Y3034439D01*
G01X589136Y3034439D01*
G01X587678Y3032169D01*
G01X587678Y3032169D01*
G01X585552Y3029134D01*
G01X585552Y3029134D01*
G01X584203Y3027113D01*
G01X584203Y3027113D01*
G01X581238Y3022680D01*
G01X581238Y3022680D01*
G01X577548Y3016697D01*
G01X577548Y3016697D01*
G01X576632Y3015350D01*
G01X576632Y3015350D01*
G01X575881Y3014047D01*
G01X575881Y3014047D01*
G01X575162Y3012743D01*
G01X575162Y3012743D01*
G01X574463Y3011440D01*
G01X574463Y3011440D01*
G01X567949Y2999711D01*
G01X567949Y2999711D01*
G01X567235Y2998408D01*
G01X567235Y2998408D01*
G01X565408Y2994986D01*
G01X565408Y2994986D01*
G01X563223Y2990751D01*
G01X563223Y2990751D01*
G01X562532Y2989184D01*
G01X562532Y2989184D01*
G01X560171Y2984347D01*
G01X560171Y2984347D01*
G01X559655Y2983040D01*
G01X559655Y2983040D01*
G01X558936Y2981380D01*
G01X558936Y2981380D01*
G01X558217Y2979751D01*
G01X558217Y2979751D01*
G01X557498Y2978123D01*
G01X557498Y2978123D01*
G01X556766Y2976498D01*
G01X556766Y2976498D01*
G01X556059Y2974786D01*
G01X556059Y2974786D01*
G01X555352Y2972891D01*
G01X555352Y2972891D01*
G01X554916Y2971589D01*
G01X554916Y2971589D01*
G01X552424Y2965501D01*
G01X552424Y2965501D01*
G01X551579Y2963384D01*
G01X551579Y2963384D01*
G01X550124Y2959474D01*
G01X550124Y2959474D01*
G01X548786Y2955727D01*
G01X548786Y2955727D01*
G01X547960Y2953284D01*
G01X547960Y2953284D01*
G01X547133Y2950677D01*
G01X547133Y2950677D01*
G01X546377Y2948316D01*
G01X546377Y2948316D01*
G01X544660Y2942695D01*
G01X544660Y2942695D01*
G01X543792Y2939437D01*
G01X543792Y2939437D01*
G01X542941Y2936342D01*
G01X542941Y2936342D01*
G01X542198Y2933410D01*
G01X542198Y2933410D01*
G01X541604Y2931177D01*
G01X541604Y2931177D01*
G01X540913Y2928408D01*
G01X540913Y2928408D01*
G01X540069Y2924939D01*
G01X540069Y2924939D01*
G01X539332Y2921533D01*
G01X539332Y2921533D01*
G01X538752Y2918839D01*
G01X538752Y2918839D01*
G01X538046Y2915412D01*
G01X538046Y2915412D01*
G01X537196Y2910940D01*
G01X537196Y2910940D01*
G01X536491Y2906368D01*
G01X536491Y2906368D01*
G01X535740Y2901837D01*
G01X535740Y2901837D01*
G01X535195Y2898415D01*
G01X535195Y2898415D01*
G01X534827Y2893661D01*
G01X534462Y2890729D01*
G01X533931Y2890367D01*
G01X533400Y2890006D01*
G01X533400Y2855778D01*
G01X533400Y2821550D01*
G01X533779Y2821436D01*
G01X533779Y2821436D01*
G01X535032Y2815468D01*
G01X535032Y2815468D01*
G01X535946Y2809052D01*
G01X535946Y2809052D01*
G01X536637Y2804375D01*
G01X536637Y2804375D01*
G01X537162Y2801017D01*
G01X537162Y2801017D01*
G01X538034Y2796409D01*
G01X538034Y2796409D01*
G01X538947Y2791858D01*
G01X538947Y2791858D01*
G01X539515Y2789078D01*
G01X539515Y2789078D01*
G01X540234Y2786224D01*
G01X540234Y2786224D01*
G01X540953Y2783353D01*
G01X540953Y2783353D01*
G01X541639Y2780169D01*
G01X541639Y2780169D01*
G01X543094Y2774743D01*
G01X543094Y2774743D01*
G01X544250Y2770507D01*
G01X544250Y2770507D01*
G01X544994Y2767901D01*
G01X544994Y2767901D01*
G01X545854Y2765131D01*
G01X545854Y2765131D01*
G01X546684Y2762525D01*
G01X546684Y2762525D01*
G01X547617Y2759430D01*
G01X547617Y2759430D01*
G01X548544Y2756905D01*
G01X548544Y2756905D01*
G01X549981Y2752995D01*
G01X549981Y2752995D01*
G01X550853Y2750208D01*
G01X550853Y2750208D01*
G01X551663Y2748091D01*
G01X551663Y2748091D01*
G01X552387Y2746398D01*
G01X552387Y2746398D01*
G01X553728Y2742814D01*
G01X553728Y2742814D01*
G01X555187Y2739103D01*
G01X555187Y2739103D01*
G01X556015Y2737311D01*
G01X556015Y2737311D01*
G01X556605Y2735809D01*
G01X556605Y2735809D01*
G01X557546Y2733533D01*
G01X557546Y2733533D01*
G01X558217Y2732012D01*
G01X558217Y2732012D01*
G01X558742Y2730704D01*
G01X558742Y2730704D01*
G01X561094Y2725810D01*
G01X561094Y2725810D01*
G01X561864Y2724080D01*
G01X561864Y2724080D01*
G01X563084Y2721637D01*
G01X563084Y2721637D01*
G01X565812Y2716261D01*
G01X565812Y2716261D01*
G01X566357Y2715284D01*
G01X566357Y2715284D01*
G01X569549Y2709256D01*
G01X569549Y2709256D01*
G01X572748Y2703228D01*
G01X572748Y2703228D01*
G01X573853Y2701437D01*
G01X573853Y2701437D01*
G01X575649Y2698342D01*
G01X575649Y2698342D01*
G01X576760Y2696550D01*
G01X576760Y2696550D01*
G01X578235Y2694024D01*
G01X578235Y2694024D01*
G01X579097Y2692803D01*
G01X579097Y2692803D01*
G01X579777Y2691907D01*
G01X579777Y2691907D01*
G01X581063Y2689708D01*
G01X581063Y2689708D01*
G01X582376Y2687590D01*
G01X582376Y2687590D01*
G01X583410Y2686124D01*
G01X583410Y2686124D01*
G01X584870Y2684011D01*
G01X584870Y2684011D01*
G01X589059Y2678048D01*
G01X589059Y2678048D01*
G01X589868Y2676663D01*
G01X589868Y2676663D01*
G01X590587Y2675698D01*
G01X590587Y2675698D01*
G01X591306Y2674860D01*
G01X591306Y2674860D01*
G01X593195Y2672114D01*
G01X593195Y2672114D01*
G01X595475Y2668993D01*
G01X595475Y2668993D01*
G01X596463Y2667774D01*
G01X596463Y2667774D01*
G01X597061Y2666923D01*
G01X597061Y2666923D01*
G01X597966Y2665645D01*
G01X597966Y2665645D01*
G01X599141Y2664295D01*
G01X599141Y2664295D01*
G01X602636Y2659650D01*
G01X602636Y2659650D01*
G01X603795Y2658347D01*
G01X603795Y2658347D01*
G01X605774Y2656104D01*
G01X605774Y2656104D01*
G01X612062Y2648560D01*
G01X612062Y2648560D01*
G01X614228Y2646279D01*
G01X614228Y2646279D01*
G01X615756Y2644550D01*
G01X615756Y2644550D01*
G01X616574Y2643518D01*
G01X616574Y2643518D01*
G01X618102Y2641888D01*
G01X618102Y2641888D01*
G01X627493Y2632126D01*
G01X627493Y2632126D01*
G01X628712Y2630771D01*
G01X628712Y2630771D01*
G01X656742Y2605572D01*
G01X656742Y2605572D01*
G01X660185Y2602881D01*
G01X660185Y2602881D01*
G01X663758Y2600112D01*
G01X663758Y2600112D01*
G01X666069Y2598288D01*
G01X666069Y2598288D01*
G01X677022Y2590389D01*
G01X677022Y2590389D01*
G01X678731Y2589116D01*
G01X678731Y2589116D01*
G01X679767Y2588546D01*
G01X679767Y2588546D01*
G01X680397Y2588135D01*
G01X680397Y2588135D01*
G01X682303Y2586774D01*
G01X682303Y2586774D01*
G01X685605Y2584659D01*
G01X685605Y2584659D01*
G01X688582Y2582681D01*
G01X688582Y2582681D01*
G01X690639Y2581296D01*
G01X690639Y2581296D01*
G01X691677Y2580726D01*
G01X691677Y2580726D01*
G01X693769Y2579422D01*
G01X693769Y2579422D01*
G01X695904Y2578119D01*
G01X695904Y2578119D01*
G01X696870Y2577468D01*
G01X696870Y2577468D01*
G01X697930Y2576817D01*
G01X697930Y2576817D01*
G01X699044Y2576328D01*
G01X699044Y2576328D01*
G01X704945Y2572907D01*
G01X704945Y2572907D01*
G01X705698Y2572399D01*
G01X705698Y2572399D01*
G01X707271Y2571423D01*
G01X707271Y2571423D01*
G01X709458Y2570311D01*
G01X709458Y2570311D01*
G01X711795Y2568994D01*
G01X711795Y2568994D01*
G01X714493Y2567534D01*
G01X714493Y2567534D01*
G01X716472Y2566513D01*
G01X716472Y2566513D01*
G01X718933Y2565276D01*
G01X718933Y2565276D01*
G01X735533Y2557446D01*
G01X735533Y2557446D01*
G01X748713Y2551729D01*
G01X748713Y2551729D01*
G01X749561Y2551241D01*
G01X749561Y2551241D01*
G01X750731Y2550753D01*
G01X750731Y2550753D01*
G01X752575Y2550136D01*
G01X752575Y2550136D01*
G01X754840Y2549300D01*
G01X754840Y2549300D01*
G01X756413Y2548614D01*
G01X756413Y2548614D01*
G01X757310Y2548146D01*
G01X757310Y2548146D01*
G01X763925Y2545868D01*
G01X763925Y2545868D01*
G01X769787Y2543914D01*
G01X769787Y2543914D01*
G01X771336Y2543235D01*
G01X771336Y2543235D01*
G01X772336Y2542933D01*
G01X772336Y2542933D01*
G01X774424Y2542304D01*
G01X774424Y2542304D01*
G01X777073Y2541446D01*
G01X778427Y2541215D01*
G01X778602Y2540608D01*
G01X778777Y2540000D01*
G01X790605Y2540000D01*
G01X802432Y2540000D01*
G01X802437Y2540408D01*
G01X802437Y2540408D01*
G01X804179Y2542119D01*
G01X804179Y2542119D01*
G01X807136Y2545051D01*
G01X807136Y2545051D01*
G01X808587Y2546843D01*
G01X808587Y2546843D01*
G01X810845Y2553033D01*
G01X810845Y2553033D01*
G01X810824Y2586998D01*
G01X810586Y2619171D01*
G01X809443Y2619171D01*
G01X809443Y2619171D01*
G01X806535Y2618686D01*
G01X806535Y2618686D01*
G01X802432Y2618007D01*
G01X802432Y2618007D01*
G01X798182Y2617336D01*
G01X798182Y2617336D01*
G01X791708Y2616571D01*
G01X791708Y2616571D01*
G01X780671Y2615882D01*
G01X774198Y2615480D01*
G01X766825Y2616013D01*
G01X766825Y2616013D01*
G01X755536Y2616743D01*
G01X755536Y2616743D01*
G01X750717Y2617252D01*
G01X750717Y2617252D01*
G01X745999Y2617902D01*
G01X745999Y2617902D01*
G01X740390Y2618678D01*
G01X740390Y2618678D01*
G01X736641Y2619326D01*
G01X736641Y2619326D01*
G01X733967Y2619885D01*
G01X733967Y2619885D01*
G01X731422Y2620648D01*
G01X731422Y2620648D01*
G01X725643Y2622451D01*
G01X725643Y2622451D01*
G01X723229Y2623262D01*
G01X723229Y2623262D01*
G01X721837Y2623927D01*
G01X721837Y2623927D01*
G01X720791Y2624383D01*
G01X720791Y2624383D01*
G01X719250Y2625036D01*
G01X719250Y2625036D01*
G01X717812Y2625687D01*
G01X717812Y2625687D01*
G01X716426Y2626257D01*
G01X716426Y2626257D01*
G01X712785Y2628296D01*
G01X712785Y2628296D01*
G01X711435Y2629277D01*
G01X711435Y2629277D01*
G01X710915Y2629597D01*
G01X710915Y2629597D01*
G01X697156Y2640837D01*
G01X697156Y2640837D01*
G01X695088Y2643165D01*
G01X695088Y2643165D01*
G01X694172Y2644390D01*
G01X694172Y2644390D01*
G01X692896Y2646234D01*
G01X692896Y2646234D01*
G01X691279Y2648593D01*
G01X691279Y2648593D01*
G01X690601Y2649797D01*
G01X690601Y2649797D01*
G01X689561Y2651751D01*
G01X689561Y2651751D01*
G01X687917Y2655071D01*
G01X687917Y2655071D01*
G01X686978Y2657556D01*
G01X686978Y2657556D01*
G01X686448Y2658586D01*
G01X686448Y2658586D01*
G01X685692Y2660080D01*
G01X685692Y2660080D01*
G01X684962Y2661554D01*
G01X684962Y2661554D01*
G01X684461Y2662429D01*
G01X684461Y2662429D01*
G01X683517Y2664751D01*
G01X683517Y2664751D01*
G01X681917Y2667879D01*
G01X681917Y2667879D01*
G01X679043Y2673254D01*
G01X679043Y2673254D01*
G01X678339Y2674557D01*
G01X678339Y2674557D01*
G01X676908Y2676839D01*
G01X676908Y2676839D01*
G01X675514Y2678969D01*
G01X675514Y2678969D01*
G01X674608Y2680069D01*
G01X674608Y2680069D01*
G01X674030Y2680900D01*
G01X674030Y2680900D01*
G01X673311Y2681888D01*
G01X673311Y2681888D01*
G01X672592Y2682866D01*
G01X672592Y2682866D01*
G01X671872Y2683843D01*
G01X671872Y2683843D01*
G01X671153Y2684690D01*
G01X671153Y2684690D01*
G01X663779Y2693591D01*
G01X663779Y2693591D01*
G01X648854Y2705421D01*
G01X648854Y2705421D01*
G01X644006Y2708109D01*
G01X644006Y2708109D01*
G01X640922Y2710071D01*
G01X640922Y2710071D01*
G01X639297Y2711400D01*
G01X639297Y2711400D01*
G01X633985Y2716913D01*
G01X633985Y2716913D01*
G01X632953Y2718504D01*
G01X632309Y2719281D01*
G01X632309Y2720804D01*
G01X632309Y2722329D01*
G01X633390Y2723052D01*
G01X633390Y2723052D01*
G01X636897Y2724499D01*
G01X639322Y2725220D01*
G01X645257Y2725210D01*
G01X651191Y2725199D01*
G01X653225Y2724640D01*
G01X653225Y2724640D01*
G01X656642Y2724066D01*
G01X656642Y2724066D01*
G01X659463Y2723557D01*
G01X659463Y2723557D01*
G01X662161Y2722723D01*
G01X662161Y2722723D01*
G01X664320Y2721930D01*
G01X664320Y2721930D01*
G01X666118Y2721151D01*
G01X666118Y2721151D01*
G01X667556Y2720532D01*
G01X667556Y2720532D01*
G01X668995Y2719882D01*
G01X668995Y2719882D01*
G01X670434Y2719210D01*
G01X670434Y2719210D01*
G01X674030Y2717353D01*
G01X674030Y2717353D01*
G01X677375Y2715383D01*
G01X677375Y2715383D01*
G01X678019Y2714957D01*
G01X678019Y2714957D01*
G01X681632Y2712840D01*
G01X681632Y2712840D01*
G01X695599Y2700999D01*
G01X695599Y2700999D01*
G01X697358Y2699060D01*
G01X697358Y2699060D01*
G01X700467Y2695097D01*
G01X700467Y2695097D01*
G01X704621Y2688913D01*
G01X704621Y2688913D01*
G01X706509Y2686333D01*
G01X706509Y2686333D01*
G01X707839Y2684472D01*
G01X707839Y2684472D01*
G01X709368Y2682531D01*
G01X709368Y2682531D01*
G01X712463Y2678846D01*
G01X712463Y2678846D01*
G01X727765Y2665471D01*
G01X727765Y2665471D01*
G01X730106Y2664060D01*
G01X730106Y2664060D01*
G01X738637Y2659904D01*
G01X738637Y2659904D01*
G01X739490Y2659408D01*
G01X739490Y2659408D01*
G01X740483Y2658919D01*
G01X740483Y2658919D01*
G01X742507Y2658295D01*
G01X742507Y2658295D01*
G01X750100Y2656154D01*
G01X750100Y2656154D01*
G01X753874Y2655357D01*
G01X755130Y2655010D01*
G01X765262Y2655010D01*
G01X775393Y2655010D01*
G01X778032Y2655464D01*
G01X778032Y2655464D01*
G01X783909Y2656154D01*
G01X783909Y2656154D01*
G01X788289Y2656814D01*
G01X788289Y2656814D01*
G01X791526Y2657468D01*
G01X791526Y2657468D01*
G01X794571Y2658137D01*
G01X794571Y2658137D01*
G01X797089Y2658785D01*
G01X797089Y2658785D01*
G01X799411Y2659423D01*
G01X799411Y2659423D01*
G01X801484Y2660073D01*
G01X801484Y2660073D01*
G01X804130Y2660911D01*
G01X804130Y2660911D01*
G01X805926Y2661525D01*
G01X805926Y2661525D01*
G01X807733Y2662177D01*
G01X807733Y2662177D01*
G01X809477Y2662829D01*
G01X809477Y2662829D01*
G01X810884Y2663671D01*
G01X811887Y2664514D01*
G01X812183Y2667420D01*
G01X812183Y2667420D01*
G01X812882Y2671009D01*
G01X812882Y2671009D01*
G01X813616Y2673796D01*
G01X813616Y2673796D01*
G01X814482Y2676841D01*
G01X814482Y2676841D01*
G01X815020Y2678700D01*
G01X815020Y2678700D01*
G01X815739Y2680833D01*
G01X815739Y2680833D01*
G01X816458Y2682625D01*
G01X816458Y2682625D01*
G01X817179Y2684417D01*
G01X817179Y2684417D01*
G01X817898Y2686057D01*
G01X817898Y2686057D01*
G01X823114Y2695411D01*
G01X823114Y2695411D01*
G01X823652Y2696302D01*
G01X823652Y2696302D01*
G01X825090Y2698303D01*
G01X825090Y2698303D01*
G01X826530Y2700153D01*
G01X826530Y2700153D01*
G01X832667Y2706486D01*
G01X832667Y2706486D01*
G01X835625Y2709497D01*
G01X835855Y2710064D01*
G01X835059Y2710210D01*
G01X835059Y2710210D01*
G01X830224Y2710544D01*
G01X830224Y2710544D01*
G01X825196Y2711074D01*
G01X825196Y2711074D01*
G01X820063Y2711730D01*
G01X820063Y2711730D01*
G01X814327Y2712523D01*
G01X814327Y2712523D01*
G01X811237Y2713003D01*
G01X811237Y2713003D01*
G01X807075Y2713610D01*
G01X807075Y2713610D01*
G01X802145Y2714420D01*
G01X802145Y2714420D01*
G01X799124Y2714992D01*
G01X799124Y2714992D01*
G01X795668Y2715662D01*
G01X795668Y2715662D01*
G01X792287Y2716297D01*
G01X792287Y2716297D01*
G01X789416Y2716948D01*
G01X789416Y2716948D01*
G01X786289Y2717699D01*
G01X786289Y2717699D01*
G01X783549Y2718367D01*
G01X783549Y2718367D01*
G01X781282Y2718952D01*
G01X781282Y2718952D01*
G01X779304Y2719554D01*
G01X779304Y2719554D01*
G01X772164Y2721667D01*
G01X772164Y2721667D01*
G01X770540Y2722125D01*
G01X770540Y2722125D01*
G01X768529Y2722777D01*
G01X768529Y2722777D01*
G01X766776Y2723428D01*
G01X766776Y2723428D01*
G01X764706Y2724116D01*
G01X764706Y2724116D01*
G01X761610Y2725371D01*
G01X761610Y2725371D01*
G01X752078Y2729286D01*
G01X752078Y2729286D01*
G01X747454Y2731464D01*
G01X747454Y2731464D01*
G01X736845Y2736705D01*
G01X736845Y2736705D01*
G01X734917Y2737764D01*
G01X734917Y2737764D01*
G01X727154Y2742561D01*
G01X727154Y2742561D01*
G01X726500Y2742977D01*
G01X726500Y2742977D01*
G01X724090Y2744446D01*
G01X724090Y2744446D01*
G01X721686Y2746163D01*
G01X721686Y2746163D01*
G01X703938Y2761874D01*
G01X703938Y2761874D01*
G01X700931Y2765133D01*
G01X700931Y2765133D01*
G01X694172Y2774254D01*
G01X694172Y2774254D01*
G01X692722Y2776372D01*
G01X692722Y2776372D01*
G01X691468Y2778326D01*
G01X691468Y2778326D01*
G01X690569Y2779792D01*
G01X690569Y2779792D01*
G01X689856Y2781096D01*
G01X689856Y2781096D01*
G01X689160Y2782399D01*
G01X689160Y2782399D01*
G01X687853Y2784843D01*
G01X687853Y2784843D01*
G01X686568Y2787286D01*
G01X686568Y2787286D01*
G01X686038Y2788263D01*
G01X686038Y2788263D01*
G01X683429Y2793512D01*
G01X683429Y2793512D01*
G01X682662Y2795387D01*
G01X682662Y2795387D01*
G01X681943Y2796975D01*
G01X681943Y2796975D01*
G01X681224Y2798757D01*
G01X681224Y2798757D01*
G01X680533Y2800717D01*
G01X680533Y2800717D01*
G01X678346Y2806031D01*
G01X678346Y2806031D01*
G01X677830Y2807600D01*
G01X677830Y2807600D01*
G01X675815Y2813677D01*
G01X675815Y2813677D01*
G01X674710Y2817186D01*
G01X674710Y2817186D01*
G01X674030Y2820216D01*
G01X674030Y2820216D01*
G01X673534Y2822082D01*
G01X673534Y2822082D01*
G01X672641Y2825661D01*
G01X672641Y2825661D01*
G01X671875Y2828984D01*
G01X671875Y2828984D01*
G01X671292Y2832149D01*
G01X671292Y2832149D01*
G01X670586Y2836264D01*
G01X670586Y2836264D01*
G01X669874Y2840825D01*
G01X669874Y2840825D01*
G01X669154Y2846325D01*
G01X669154Y2846325D01*
G01X668996Y2892195D01*
G01X668996Y2892195D01*
G01X669723Y2896394D01*
G01X669723Y2896394D01*
G01X670615Y2900885D01*
G01X670615Y2900885D01*
G01X671153Y2903292D01*
G01X671153Y2903292D01*
G01X671872Y2906120D01*
G01X671872Y2906120D01*
G01X672594Y2908963D01*
G01X672594Y2908963D01*
G01X673138Y2910892D01*
G01X673138Y2910892D01*
G01X674181Y2913661D01*
G01X674181Y2913661D01*
G01X675634Y2917771D01*
G01X675634Y2917771D01*
G01X676968Y2921190D01*
G01X676968Y2921190D01*
G01X677848Y2922973D01*
G01X677848Y2922973D01*
G01X678346Y2924053D01*
G01X678346Y2924053D01*
G01X679286Y2926343D01*
G01X679286Y2926343D01*
G01X680929Y2929663D01*
G01X680929Y2929663D01*
G01X681948Y2931617D01*
G01X681948Y2931617D01*
G01X683553Y2934387D01*
G01X683553Y2934387D01*
G01X685706Y2937971D01*
G01X685706Y2937971D01*
G01X687131Y2940251D01*
G01X687131Y2940251D01*
G01X691529Y2946382D01*
G01X691529Y2946382D01*
G01X692876Y2948447D01*
G01X692876Y2948447D01*
G01X694081Y2950025D01*
G01X694081Y2950025D01*
G01X696618Y2952847D01*
G01X696618Y2952847D01*
G01X698957Y2955469D01*
G01X698957Y2955469D01*
G01X701353Y2958023D01*
G01X701353Y2958023D01*
G01X703827Y2960615D01*
G01X703827Y2960615D01*
G01X705213Y2962139D01*
G01X705731Y2962850D01*
G01X705026Y2964094D01*
G01X705026Y2964094D01*
G01X702973Y2969085D01*
G01X702973Y2969085D01*
G01X701967Y2972018D01*
G01X701967Y2972018D01*
G01X700263Y2977800D01*
G01X700263Y2977800D01*
G01X699531Y2980733D01*
G01X699531Y2980733D01*
G01X698791Y2985213D01*
G01X698791Y2985213D01*
G01X697927Y2990751D01*
G01X697408Y2993357D01*
G01X697424Y3000525D01*
G01X697424Y3000525D01*
G01X697776Y3009159D01*
G01X697776Y3009159D01*
G01X698483Y3014767D01*
G01X698483Y3014767D01*
G01X699239Y3019816D01*
G01X699239Y3019816D01*
G01X699931Y3023397D01*
G01X699931Y3023397D01*
G01X700784Y3027796D01*
G01X700784Y3027796D01*
G01X701896Y3031640D01*
G01X701896Y3031640D01*
G01X703679Y3037341D01*
G01X703679Y3037341D01*
G01X704417Y3039702D01*
G01X704417Y3039702D01*
G01X704948Y3041243D01*
G01X704948Y3041243D01*
G01X706571Y3045154D01*
G01X707910Y3048907D01*
G01X708882Y3049850D01*
G01X709854Y3050793D01*
G01X713066Y3051035D01*
G01X713066Y3051035D01*
G01X732478Y3049006D01*
G01X732478Y3049006D01*
G01X734896Y3048471D01*
G01X734896Y3048471D01*
G01X737235Y3047942D01*
G01X737235Y3047942D01*
G01X743583Y3045948D01*
G01X743583Y3045948D01*
G01X745731Y3045150D01*
G01X745731Y3045150D01*
G01X747171Y3044672D01*
G01X747171Y3044672D01*
G01X756214Y3041419D01*
G01X756214Y3041419D01*
G01X759991Y3039957D01*
G01X759991Y3039957D01*
G01X763228Y3038664D01*
G01X763228Y3038664D01*
G01X765271Y3038009D01*
G01X765271Y3038009D01*
G01X766844Y3037321D01*
G01X766844Y3037321D01*
G01X767790Y3036852D01*
G01X767790Y3036852D01*
G01X772938Y3034877D01*
G01X772938Y3034877D01*
G01X774378Y3034246D01*
G01X774378Y3034246D01*
G01X775816Y3033643D01*
G01X775816Y3033643D01*
G01X778694Y3032314D01*
G01X778694Y3032314D01*
G01X781571Y3030977D01*
G01X781571Y3030977D01*
G01X784355Y3029674D01*
G01X784355Y3029674D01*
G01X786807Y3028351D01*
G01X786807Y3028351D01*
G01X788160Y3027569D01*
G01X788160Y3027569D01*
G01X790013Y3026677D01*
G01X790013Y3026677D01*
G01X795105Y3023820D01*
G01X795105Y3023820D01*
G01X798533Y3021865D01*
G01X798533Y3021865D01*
G01X801912Y3019911D01*
G01X801912Y3019911D01*
G01X803709Y3018851D01*
G01X803709Y3018851D01*
G01X805972Y3017467D01*
G01X805972Y3017467D01*
G01X807422Y3016571D01*
G01X807422Y3016571D01*
G01X812071Y3016451D01*
G01X812071Y3016451D01*
G01X814661Y3017126D01*
G01X814661Y3017126D01*
G01X818348Y3017980D01*
G01X818348Y3017980D01*
G01X821508Y3018608D01*
G01X821508Y3018608D01*
G01X823865Y3019088D01*
G01X823865Y3019088D01*
G01X827000Y3019766D01*
G01X827000Y3019766D01*
G01X830219Y3020424D01*
G01X830219Y3020424D01*
G01X834355Y3021202D01*
G01X834355Y3021202D01*
G01X839106Y3022018D01*
G01X839106Y3022018D01*
G01X842556Y3022518D01*
G01X842556Y3022518D01*
G01X845804Y3022999D01*
G01X845804Y3022999D01*
G01X850268Y3023673D01*
G01X850268Y3023673D01*
G01X855393Y3024336D01*
G01X855393Y3024336D01*
G01X862767Y3025124D01*
G01X862767Y3025124D01*
G01X869150Y3025763D01*
G01X869150Y3025763D01*
G01X933974Y3025642D01*
G01X933974Y3025642D01*
G01X941084Y3024971D01*
G01X941084Y3024971D01*
G01X946659Y3024330D01*
G01X946659Y3024330D01*
G01X951603Y3023684D01*
G01X951603Y3023684D01*
G01X955559Y3023135D01*
G01X955559Y3023135D01*
G01X959860Y3022480D01*
G01X959860Y3022480D01*
G01X964434Y3021692D01*
G01X964434Y3021692D01*
G01X967070Y3021214D01*
G01X967070Y3021214D01*
G01X970408Y3020705D01*
G01X970408Y3020705D01*
G01X974533Y3019885D01*
G01X974533Y3019885D01*
G01X978129Y3019112D01*
G01X978129Y3019112D01*
G01X981512Y3018448D01*
G01X981512Y3018448D01*
G01X984390Y3017821D01*
G01X984390Y3017821D01*
G01X987038Y3017193D01*
G01X987038Y3017193D01*
G01X989807Y3016496D01*
G01X989807Y3016496D01*
G01X992237Y3016001D01*
G01X993611Y3016001D01*
G01X995761Y3017295D01*
G01X995761Y3017295D01*
G01X998306Y3018598D01*
G01X998306Y3018598D01*
G01X999350Y3019259D01*
G01X999350Y3019259D01*
G01X1000293Y3019911D01*
G01X1000293Y3019911D01*
G01X1006079Y3023220D01*
G01X1006079Y3023220D01*
G01X1007235Y3023820D01*
G01X1007235Y3023820D01*
G01X1010324Y3025615D01*
G01X1010324Y3025615D01*
G01X1014384Y3027889D01*
G01X1014384Y3027889D01*
G01X1016075Y3028686D01*
G01X1016075Y3028686D01*
G01X1028843Y3034874D01*
G01X1028843Y3034874D01*
G01X1034058Y3037214D01*
G01X1034058Y3037214D01*
G01X1035137Y3037708D01*
G01X1035137Y3037708D01*
G01X1040600Y3039912D01*
G01X1040600Y3039912D01*
G01X1042937Y3040761D01*
G01X1042937Y3040761D01*
G01X1044668Y3041382D01*
G01X1044668Y3041382D01*
G01X1050149Y3043369D01*
G01X1050149Y3043369D01*
G01X1051291Y3043823D01*
G01X1051291Y3043823D01*
G01X1053002Y3044498D01*
G01X1053002Y3044498D01*
G01X1055592Y3045347D01*
G01X1055592Y3045347D01*
G01X1057446Y3045975D01*
G01X1057446Y3045975D01*
G01X1059415Y3046626D01*
G01X1059415Y3046626D01*
G01X1061749Y3047279D01*
G01X1061749Y3047279D01*
G01X1063399Y3047741D01*
G01X1063399Y3047741D01*
G01X1065547Y3048420D01*
G01X1065547Y3048420D01*
G01X1069037Y3049262D01*
G01X1069037Y3049262D01*
G01X1072171Y3049884D01*
G01X1072171Y3049884D01*
G01X1074958Y3050454D01*
G01X1076679Y3051024D01*
G01X1083692Y3051024D01*
G01X1090705Y3051025D01*
G01X1091936Y3050311D01*
G01X1093165Y3049597D01*
G01X1093989Y3047868D01*
G01X1093989Y3047868D01*
G01X1094827Y3045637D01*
G01X1094827Y3045637D01*
G01X1095562Y3043857D01*
G01X1095562Y3043857D01*
G01X1096293Y3041753D01*
G01X1096293Y3041753D01*
G01X1096806Y3040325D01*
G01X1096806Y3040325D01*
G01X1097548Y3038370D01*
G01X1097548Y3038370D01*
G01X1098285Y3036305D01*
G01X1098285Y3036305D01*
G01X1099003Y3034187D01*
G01X1099003Y3034187D01*
G01X1099911Y3030906D01*
G01X1099911Y3030906D01*
G01X1100597Y3028207D01*
G01X1100597Y3028207D01*
G01X1101137Y3026210D01*
G01X1101137Y3026210D01*
G01X1102011Y3022393D01*
G01X1102011Y3022393D01*
G01X1102756Y3018770D01*
G01X1102756Y3018770D01*
G01X1103492Y3013557D01*
G01X1103492Y3013557D01*
G01X1104173Y3007042D01*
G01X1104173Y3007042D01*
G01X1102866Y2983420D01*
G01X1102866Y2983420D01*
G01X1101980Y2978859D01*
G01X1101980Y2978859D01*
G01X1101175Y2975927D01*
G01X1101175Y2975927D01*
G01X1100450Y2973283D01*
G01X1100450Y2973283D01*
G01X1099694Y2971166D01*
G01X1099694Y2971166D01*
G01X1099169Y2969724D01*
G01X1099169Y2969724D01*
G01X1098438Y2967619D01*
G01X1098438Y2967619D01*
G01X1097718Y2965677D01*
G01X1097718Y2965677D01*
G01X1096981Y2963921D01*
G01X1096246Y2962828D01*
G01X1096765Y2962128D01*
G01X1096765Y2962128D01*
G01X1098424Y2960288D01*
G01X1098424Y2960288D01*
G01X1100710Y2957893D01*
G01X1100710Y2957893D01*
G01X1102594Y2955939D01*
G01X1102594Y2955939D01*
G01X1106451Y2951491D01*
G01X1106451Y2951491D01*
G01X1108684Y2948722D01*
G01X1108684Y2948722D01*
G01X1110657Y2946034D01*
G01X1110657Y2946034D01*
G01X1111311Y2945301D01*
G01X1111311Y2945301D01*
G01X1112224Y2944243D01*
G01X1112224Y2944243D01*
G01X1113550Y2942206D01*
G01X1113550Y2942206D01*
G01X1114829Y2940251D01*
G01X1114829Y2940251D01*
G01X1116232Y2937971D01*
G01X1116232Y2937971D01*
G01X1124342Y2922658D01*
G01X1124342Y2922658D01*
G01X1125587Y2919725D01*
G01X1125587Y2919725D01*
G01X1127934Y2913007D01*
G01X1127934Y2913007D01*
G01X1128477Y2911619D01*
G01X1128477Y2911619D01*
G01X1129226Y2909338D01*
G01X1129226Y2909338D01*
G01X1130122Y2906122D01*
G01X1130122Y2906122D01*
G01X1130808Y2903098D01*
G01X1130808Y2903098D01*
G01X1131365Y2900741D01*
G01X1131365Y2900741D01*
G01X1132246Y2896597D01*
G01X1132246Y2896597D01*
G01X1132944Y2892535D01*
G01X1132944Y2892535D01*
G01X1132948Y2847222D01*
G01X1132948Y2847222D01*
G01X1132226Y2842021D01*
G01X1132226Y2842021D01*
G01X1131380Y2836319D01*
G01X1131380Y2836319D01*
G01X1130658Y2832248D01*
G01X1130658Y2832248D01*
G01X1129916Y2828500D01*
G01X1129916Y2828500D01*
G01X1129385Y2825814D01*
G01X1129385Y2825814D01*
G01X1128680Y2822555D01*
G01X1128680Y2822555D01*
G01X1127746Y2819052D01*
G01X1127746Y2819052D01*
G01X1127165Y2816855D01*
G01X1127165Y2816855D01*
G01X1126464Y2814501D01*
G01X1126464Y2814501D01*
G01X1125579Y2811811D01*
G01X1125579Y2811811D01*
G01X1125040Y2810255D01*
G01X1125040Y2810255D01*
G01X1124482Y2808301D01*
G01X1124482Y2808301D01*
G01X1123457Y2805531D01*
G01X1123457Y2805531D01*
G01X1122018Y2801784D01*
G01X1122018Y2801784D01*
G01X1120533Y2797970D01*
G01X1120533Y2797970D01*
G01X1119649Y2796240D01*
G01X1119649Y2796240D01*
G01X1119298Y2795330D01*
G01X1119298Y2795330D01*
G01X1118620Y2793612D01*
G01X1118620Y2793612D01*
G01X1117700Y2791599D01*
G01X1117700Y2791599D01*
G01X1116939Y2790202D01*
G01X1116939Y2790202D01*
G01X1116422Y2789216D01*
G01X1116422Y2789216D01*
G01X1114984Y2786146D01*
G01X1114984Y2786146D01*
G01X1113545Y2783221D01*
G01X1113545Y2783221D01*
G01X1113032Y2782307D01*
G01X1113032Y2782307D01*
G01X1111960Y2780736D01*
G01X1111960Y2780736D01*
G01X1111050Y2779141D01*
G01X1111050Y2779141D01*
G01X1108995Y2775883D01*
G01X1108995Y2775883D01*
G01X1106821Y2772853D01*
G01X1106821Y2772853D01*
G01X1106351Y2772150D01*
G01X1106351Y2772150D01*
G01X1104913Y2770058D01*
G01X1104913Y2770058D01*
G01X1103474Y2768202D01*
G01X1103474Y2768202D01*
G01X1102562Y2766970D01*
G01X1102562Y2766970D01*
G01X1101033Y2765243D01*
G01X1101033Y2765243D01*
G01X1082651Y2748189D01*
G01X1082651Y2748189D01*
G01X1080247Y2746398D01*
G01X1080247Y2746398D01*
G01X1077409Y2744443D01*
G01X1077409Y2744443D01*
G01X1073399Y2741755D01*
G01X1073399Y2741755D01*
G01X1070899Y2740370D01*
G01X1070899Y2740370D01*
G01X1070133Y2739926D01*
G01X1070133Y2739926D01*
G01X1068766Y2738939D01*
G01X1068766Y2738939D01*
G01X1066607Y2737754D01*
G01X1066607Y2737754D01*
G01X1064384Y2736628D01*
G01X1064384Y2736628D01*
G01X1063032Y2735839D01*
G01X1063032Y2735839D01*
G01X1060579Y2734508D01*
G01X1060579Y2734508D01*
G01X1056897Y2732706D01*
G01X1056897Y2732706D01*
G01X1054919Y2731712D01*
G01X1054919Y2731712D01*
G01X1049523Y2729307D01*
G01X1049523Y2729307D01*
G01X1043230Y2726689D01*
G01X1043230Y2726689D01*
G01X1040133Y2725419D01*
G01X1040133Y2725419D01*
G01X1038074Y2724732D01*
G01X1038074Y2724732D01*
G01X1036494Y2724082D01*
G01X1036494Y2724082D01*
G01X1034598Y2723427D01*
G01X1034598Y2723427D01*
G01X1032799Y2722777D01*
G01X1032799Y2722777D01*
G01X1031073Y2722127D01*
G01X1031073Y2722127D01*
G01X1029275Y2721582D01*
G01X1029275Y2721582D01*
G01X1026865Y2720793D01*
G01X1026865Y2720793D01*
G01X1020930Y2719120D01*
G01X1020930Y2719120D01*
G01X1017873Y2718355D01*
G01X1017873Y2718355D01*
G01X1014277Y2717453D01*
G01X1014277Y2717453D01*
G01X1006903Y2715893D01*
G01X1006903Y2715893D01*
G01X1003221Y2715080D01*
G01X1003221Y2715080D01*
G01X998725Y2714325D01*
G01X998725Y2714325D01*
G01X995101Y2713689D01*
G01X995101Y2713689D01*
G01X991505Y2713132D01*
G01X991505Y2713132D01*
G01X987183Y2712490D01*
G01X987183Y2712490D01*
G01X982146Y2711844D01*
G01X982146Y2711844D01*
G01X977040Y2711195D01*
G01X977040Y2711195D01*
G01X971644Y2710554D01*
G01X971644Y2710554D01*
G01X965978Y2709865D01*
G01X968012Y2707313D01*
G01X968012Y2707313D01*
G01X972346Y2703228D01*
G01X972346Y2703228D01*
G01X974910Y2700595D01*
G01X974910Y2700595D01*
G01X975432Y2699699D01*
G01X975432Y2699699D01*
G01X975731Y2699318D01*
G01X975731Y2699318D01*
G01X978423Y2695653D01*
G01X978423Y2695653D01*
G01X978990Y2695084D01*
G01X978990Y2695084D01*
G01X979748Y2693943D01*
G01X979748Y2693943D01*
G01X980419Y2692803D01*
G01X980419Y2692803D01*
G01X981560Y2690939D01*
G01X981560Y2690939D01*
G01X983255Y2687663D01*
G01X983255Y2687663D01*
G01X984064Y2685769D01*
G01X984064Y2685769D01*
G01X984583Y2684565D01*
G01X984583Y2684565D01*
G01X985458Y2682540D01*
G01X985458Y2682540D01*
G01X987383Y2677001D01*
G01X987383Y2677001D01*
G01X988084Y2674395D01*
G01X988084Y2674395D01*
G01X988776Y2671462D01*
G01X988776Y2671462D01*
G01X989489Y2667716D01*
G01X989489Y2667716D01*
G01X990230Y2662991D01*
G01X990230Y2662991D01*
G01X991234Y2604183D01*
G01X991258Y2552870D01*
G01X992028Y2550753D01*
G01X992028Y2550753D01*
G01X993172Y2547983D01*
G01X993172Y2547983D01*
G01X993980Y2546575D01*
G01X993980Y2546575D01*
G01X998541Y2541773D01*
G01X998541Y2541773D01*
G01X999890Y2540427D01*
G01X999890Y2540000D01*
G01X1011312Y2540000D01*
G01X1022736Y2540000D01*
G01X1023173Y2540636D01*
G01X1023611Y2541271D01*
G01X1024968Y2541483D01*
G01X1024968Y2541483D01*
G01X1027787Y2542313D01*
G01X1027787Y2542313D01*
G01X1029780Y2542933D01*
G01X1029780Y2542933D01*
G01X1031720Y2543585D01*
G01X1031720Y2543585D01*
G01X1033586Y2544236D01*
G01X1033586Y2544236D01*
G01X1035218Y2544886D01*
G01X1035218Y2544886D01*
G01X1037060Y2545538D01*
G01X1037060Y2545538D01*
G01X1038679Y2546006D01*
G01X1038679Y2546006D01*
G01X1044108Y2548146D01*
G01X1044108Y2548146D01*
G01X1045833Y2548797D01*
G01X1045833Y2548797D01*
G01X1047554Y2549449D01*
G01X1047554Y2549449D01*
G01X1049344Y2550100D01*
G01X1049344Y2550100D01*
G01X1051174Y2550753D01*
G01X1051174Y2550753D01*
G01X1052034Y2551232D01*
G01X1052034Y2551232D01*
G01X1053684Y2551918D01*
G01X1053684Y2551918D01*
G01X1055309Y2552578D01*
G01X1055309Y2552578D01*
G01X1056096Y2553033D01*
G01X1056096Y2553033D01*
G01X1058479Y2553888D01*
G01X1058479Y2553888D01*
G01X1062112Y2555403D01*
G01X1062112Y2555403D01*
G01X1064270Y2556340D01*
G01X1064270Y2556340D01*
G01X1065709Y2556943D01*
G01X1065709Y2556943D01*
G01X1067148Y2557594D01*
G01X1067148Y2557594D01*
G01X1068586Y2558246D01*
G01X1068586Y2558246D01*
G01X1070024Y2558876D01*
G01X1070024Y2558876D01*
G01X1073082Y2560375D01*
G01X1073082Y2560375D01*
G01X1077038Y2562333D01*
G01X1077038Y2562333D01*
G01X1080275Y2563955D01*
G01X1080275Y2563955D01*
G01X1085218Y2566498D01*
G01X1085218Y2566498D01*
G01X1089354Y2568676D01*
G01X1089354Y2568676D01*
G01X1092361Y2570387D01*
G01X1092361Y2570387D01*
G01X1094734Y2571604D01*
G01X1094734Y2571604D01*
G01X1095741Y2572255D01*
G01X1095741Y2572255D01*
G01X1096758Y2572907D01*
G01X1096758Y2572907D01*
G01X1097691Y2573358D01*
G01X1097691Y2573358D01*
G01X1100281Y2574777D01*
G01X1100281Y2574777D01*
G01X1104020Y2576933D01*
G01X1104020Y2576933D01*
G01X1106179Y2578119D01*
G01X1106179Y2578119D01*
G01X1107064Y2578600D01*
G01X1107064Y2578600D01*
G01X1110435Y2580897D01*
G01X1110435Y2580897D01*
G01X1120619Y2587443D01*
G01X1120619Y2587443D01*
G01X1122507Y2588546D01*
G01X1122507Y2588546D01*
G01X1122897Y2588821D01*
G01X1122897Y2588821D01*
G01X1125159Y2590602D01*
G01X1125159Y2590602D01*
G01X1128279Y2592932D01*
G01X1128279Y2592932D01*
G01X1129574Y2593758D01*
G01X1129574Y2593758D01*
G01X1130198Y2594196D01*
G01X1130198Y2594196D01*
G01X1132345Y2595812D01*
G01X1132345Y2595812D01*
G01X1137683Y2599704D01*
G01X1137683Y2599704D01*
G01X1143218Y2604033D01*
G01X1143218Y2604033D01*
G01X1146136Y2606302D01*
G01X1146136Y2606302D01*
G01X1151320Y2610700D01*
G01X1151320Y2610700D01*
G01X1173969Y2631542D01*
G01X1173969Y2631542D01*
G01X1176487Y2634113D01*
G01X1176487Y2634113D01*
G01X1179004Y2636767D01*
G01X1179004Y2636767D01*
G01X1181370Y2639205D01*
G01X1181370Y2639205D01*
G01X1184942Y2643117D01*
G01X1184942Y2643117D01*
G01X1189884Y2648414D01*
G01X1189884Y2648414D01*
G01X1190513Y2649237D01*
G01X1190513Y2649237D01*
G01X1193311Y2652667D01*
G01X1193311Y2652667D01*
G01X1196753Y2656742D01*
G01X1196753Y2656742D01*
G01X1198181Y2658359D01*
G01X1198181Y2658359D01*
G01X1200045Y2660591D01*
G01X1200045Y2660591D01*
G01X1205808Y2668048D01*
G01X1205808Y2668048D01*
G01X1206339Y2668717D01*
G01X1206339Y2668717D01*
G01X1207507Y2670505D01*
G01X1207507Y2670505D01*
G01X1209335Y2673046D01*
G01X1209335Y2673046D01*
G01X1211044Y2675272D01*
G01X1211044Y2675272D01*
G01X1212094Y2676659D01*
G01X1212094Y2676659D01*
G01X1214162Y2679693D01*
G01X1214162Y2679693D01*
G01X1216689Y2683354D01*
G01X1216689Y2683354D01*
G01X1218548Y2686286D01*
G01X1218548Y2686286D01*
G01X1220726Y2689444D01*
G01X1220726Y2689444D01*
G01X1222002Y2691381D01*
G01X1222002Y2691381D01*
G01X1223814Y2694184D01*
G01X1223814Y2694184D01*
G01X1225200Y2696550D01*
G01X1225200Y2696550D01*
G01X1227367Y2700133D01*
G01X1227367Y2700133D01*
G01X1229021Y2702903D01*
G01X1229021Y2702903D01*
G01X1229717Y2704206D01*
G01X1229717Y2704206D01*
G01X1230398Y2705509D01*
G01X1230398Y2705509D01*
G01X1231116Y2706813D01*
G01X1231116Y2706813D01*
G01X1231832Y2708116D01*
G01X1231832Y2708116D01*
G01X1233126Y2710559D01*
G01X1233126Y2710559D01*
G01X1234427Y2713003D01*
G01X1234427Y2713003D01*
G01X1234969Y2713981D01*
G01X1234969Y2713981D01*
G01X1238882Y2721474D01*
G01X1238882Y2721474D01*
G01X1239590Y2723324D01*
G01X1239590Y2723324D01*
G01X1240351Y2724749D01*
G01X1240351Y2724749D01*
G01X1240867Y2725673D01*
G01X1240867Y2725673D01*
G01X1241587Y2727424D01*
G01X1241587Y2727424D01*
G01X1242306Y2728986D01*
G01X1242306Y2728986D01*
G01X1244658Y2733962D01*
G01X1244658Y2733962D01*
G01X1245183Y2735433D01*
G01X1245183Y2735433D01*
G01X1245902Y2737197D01*
G01X1245902Y2737197D01*
G01X1246625Y2738984D01*
G01X1246625Y2738984D01*
G01X1247341Y2740533D01*
G01X1247341Y2740533D01*
G01X1248058Y2742330D01*
G01X1248058Y2742330D01*
G01X1248780Y2744365D01*
G01X1248780Y2744365D01*
G01X1249499Y2746165D01*
G01X1249499Y2746165D01*
G01X1250218Y2748026D01*
G01X1250218Y2748026D01*
G01X1250938Y2749948D01*
G01X1250938Y2749948D01*
G01X1251617Y2751915D01*
G01X1251617Y2751915D01*
G01X1252662Y2754543D01*
G01X1252662Y2754543D01*
G01X1253408Y2756823D01*
G01X1253408Y2756823D01*
G01X1255438Y2762850D01*
G01X1255438Y2762850D01*
G01X1257419Y2769530D01*
G01X1257419Y2769530D01*
G01X1259026Y2775557D01*
G01X1259026Y2775557D01*
G01X1260456Y2780770D01*
G01X1260456Y2780770D01*
G01X1261187Y2783702D01*
G01X1261187Y2783702D01*
G01X1261778Y2786059D01*
G01X1261778Y2786059D01*
G01X1262471Y2789317D01*
G01X1262471Y2789317D01*
G01X1263336Y2793314D01*
G01X1263336Y2793314D01*
G01X1264049Y2797037D01*
G01X1264049Y2797037D01*
G01X1264765Y2801109D01*
G01X1264765Y2801109D01*
G01X1265504Y2805206D01*
G01X1265504Y2805206D01*
G01X1266216Y2809604D01*
G01X1266216Y2809604D01*
G01X1266923Y2815420D01*
G01X1266923Y2815420D01*
G01X1267648Y2821121D01*
G01X1267648Y2821121D01*
G01X1268370Y2828758D01*
G01X1268370Y2828758D01*
G01X1269609Y2839677D01*
G01X1270000Y2839795D01*
G01X1270000Y2855705D01*
G01X1270000Y2871615D01*
G01X1269609Y2871734D01*
G01X1269609Y2871734D01*
G01X1268359Y2882652D01*
G01X1268359Y2882652D01*
G01X1267629Y2890639D01*
G01X1267629Y2890639D01*
G01X1266919Y2896503D01*
G01X1266919Y2896503D01*
G01X1266197Y2901842D01*
G01X1266197Y2901842D01*
G01X1265328Y2906891D01*
G01X1265328Y2906891D01*
G01X1264433Y2912395D01*
G01X1264433Y2912395D01*
G01X1263894Y2915694D01*
G01X1263894Y2915694D01*
G01X1263355Y2918240D01*
G01X1263355Y2918240D01*
G01X1262587Y2921783D01*
G01X1262587Y2921783D01*
G01X1261871Y2925040D01*
G01X1261871Y2925040D01*
G01X1261166Y2927808D01*
G01X1261166Y2927808D01*
G01X1260257Y2931375D01*
G01X1260257Y2931375D01*
G01X1259569Y2934236D01*
G01X1259569Y2934236D01*
G01X1259014Y2936428D01*
G01X1259014Y2936428D01*
G01X1258143Y2939431D01*
G01X1258143Y2939431D01*
G01X1257303Y2942695D01*
G01X1257303Y2942695D01*
G01X1255385Y2949044D01*
G01X1255385Y2949044D01*
G01X1254508Y2951358D01*
G01X1254508Y2951358D01*
G01X1253953Y2953316D01*
G01X1253953Y2953316D01*
G01X1253258Y2955598D01*
G01X1253258Y2955598D01*
G01X1252536Y2957553D01*
G01X1252536Y2957553D01*
G01X1251922Y2959234D01*
G01X1251922Y2959234D01*
G01X1251090Y2961352D01*
G01X1251090Y2961352D01*
G01X1248726Y2967654D01*
G01X1248726Y2967654D01*
G01X1248061Y2969529D01*
G01X1248061Y2969529D01*
G01X1247341Y2971280D01*
G01X1247341Y2971280D01*
G01X1246622Y2973073D01*
G01X1246622Y2973073D01*
G01X1245902Y2974865D01*
G01X1245902Y2974865D01*
G01X1245183Y2976494D01*
G01X1245183Y2976494D01*
G01X1244464Y2978123D01*
G01X1244464Y2978123D01*
G01X1243745Y2979751D01*
G01X1243745Y2979751D01*
G01X1243025Y2981380D01*
G01X1243025Y2981380D01*
G01X1242306Y2983025D01*
G01X1242306Y2983025D01*
G01X1241630Y2984660D01*
G01X1241630Y2984660D01*
G01X1240403Y2987004D01*
G01X1240403Y2987004D01*
G01X1238920Y2989998D01*
G01X1238920Y2989998D01*
G01X1237990Y2992214D01*
G01X1237990Y2992214D01*
G01X1236127Y2995801D01*
G01X1236127Y2995801D01*
G01X1234287Y2999384D01*
G01X1234287Y2999384D01*
G01X1233257Y3001340D01*
G01X1233257Y3001340D01*
G01X1232595Y3002643D01*
G01X1232595Y3002643D01*
G01X1231888Y3003947D01*
G01X1231888Y3003947D01*
G01X1229521Y3008018D01*
G01X1229521Y3008018D01*
G01X1226056Y3014047D01*
G01X1226056Y3014047D01*
G01X1225189Y3015513D01*
G01X1225189Y3015513D01*
G01X1223764Y3017793D01*
G01X1223764Y3017793D01*
G01X1222168Y3020399D01*
G01X1222168Y3020399D01*
G01X1220733Y3022680D01*
G01X1220733Y3022680D01*
G01X1219386Y3024674D01*
G01X1219386Y3024674D01*
G01X1216399Y3029196D01*
G01X1216399Y3029196D01*
G01X1215171Y3031177D01*
G01X1215171Y3031177D01*
G01X1214093Y3032602D01*
G01X1214093Y3032602D01*
G01X1213532Y3033299D01*
G01X1213532Y3033299D01*
G01X1209879Y3038549D01*
G01X1209879Y3038549D01*
G01X1209216Y3039756D01*
G01X1209216Y3039756D01*
G01X1208726Y3040338D01*
G01X1208726Y3040338D01*
G01X1207557Y3041701D01*
G01X1207557Y3041701D01*
G01X1205715Y3044358D01*
G01X1205715Y3044358D01*
G01X1203461Y3047086D01*
G01X1203461Y3047086D01*
G01X1199741Y3051840D01*
G01X1199741Y3051840D01*
G01X1197642Y3054467D01*
G01X1197642Y3054467D01*
G01X1194460Y3058307D01*
G01X1194460Y3058307D01*
G01X1192661Y3060483D01*
G01X1192661Y3060483D01*
G01X1190963Y3062362D01*
G01X1190963Y3062362D01*
G01X1190513Y3063069D01*
G01X1190513Y3063069D01*
G01X1190185Y3063623D01*
G01X1190185Y3063623D01*
G01X1187831Y3066012D01*
G01X1187831Y3066012D01*
G01X1182765Y3071539D01*
G01X1182765Y3071539D01*
G01X1179707Y3074807D01*
G01X1179707Y3074807D01*
G01X1175947Y3078721D01*
G01X1175947Y3078721D01*
G01X1171841Y3082796D01*
G01X1171841Y3082796D01*
G01X1152192Y3100548D01*
G01X1152192Y3100548D01*
G01X1146816Y3105109D01*
G01X1146816Y3105109D01*
G01X1142311Y3108689D01*
G01X1142311Y3108689D01*
G01X1138901Y3111318D01*
G01X1138901Y3111318D01*
G01X1134357Y3114587D01*
G01X1134357Y3114587D01*
G01X1128864Y3118792D01*
G01X1128864Y3118792D01*
G01X1127540Y3119770D01*
G01X1127540Y3119770D01*
G01X1123253Y3122490D01*
G01X1123253Y3122490D01*
G01X1115887Y3127426D01*
G01X1115887Y3127426D01*
G01X1109174Y3131767D01*
G01X1109174Y3131767D01*
G01X1105411Y3134019D01*
G01X1105411Y3134019D01*
G01X1104553Y3134607D01*
G01X1104553Y3134607D01*
G01X1102579Y3135747D01*
G01X1102579Y3135747D01*
G01X1100006Y3137252D01*
G01X1100006Y3137252D01*
G01X1099094Y3137851D01*
G01X1099094Y3137851D01*
G01X1095562Y3139840D01*
G01X1095562Y3139840D01*
G01X1094302Y3140585D01*
G01X1094302Y3140585D01*
G01X1092145Y3141762D01*
G01X1092145Y3141762D01*
G01X1086210Y3144909D01*
G01X1086210Y3144909D01*
G01X1083692Y3146332D01*
G01X1083692Y3146332D01*
G01X1082253Y3147106D01*
G01X1082253Y3147106D01*
G01X1078117Y3149086D01*
G01X1078117Y3149086D01*
G01X1074161Y3151029D01*
G01X1074161Y3151029D01*
G01X1072543Y3151802D01*
G01X1072543Y3151802D01*
G01X1059324Y3157726D01*
G01X1059324Y3157726D01*
G01X1058515Y3158215D01*
G01X1058515Y3158215D01*
G01X1057441Y3158703D01*
G01X1057441Y3158703D01*
G01X1055900Y3159355D01*
G01X1055900Y3159355D01*
G01X1054570Y3160007D01*
G01X1054570Y3160007D01*
G01X1052109Y3160849D01*
G01X1052109Y3160849D01*
G01X1045747Y3163431D01*
G01X1045747Y3163431D01*
G01X1042511Y3164717D01*
G01X1042511Y3164717D01*
G01X1039273Y3165852D01*
G01X1039273Y3165852D01*
G01X1035786Y3167190D01*
G01X1035786Y3167190D01*
G01X1033987Y3167828D01*
G01X1033987Y3167828D01*
G01X1032440Y3168348D01*
G01X1032440Y3168348D01*
G01X1029742Y3169287D01*
G01X1029742Y3169287D01*
G01X1024167Y3171063D01*
G01X1024167Y3171063D01*
G01X1017693Y3173068D01*
G01X1017693Y3173068D01*
G01X1015176Y3173826D01*
G01X1015176Y3173826D01*
G01X1012658Y3174597D01*
G01X1012658Y3174597D01*
G01X1010141Y3175271D01*
G01X1010141Y3175271D01*
G01X1003486Y3177088D01*
G01X1003486Y3177088D01*
G01X1000429Y3177864D01*
G01X1000429Y3177864D01*
G01X992157Y3179755D01*
G01X992157Y3179755D01*
G01X989818Y3180369D01*
G01X989818Y3180369D01*
G01X986969Y3180995D01*
G01X986969Y3180995D01*
G01X984311Y3181565D01*
G01X984311Y3181565D01*
G01X981058Y3182197D01*
G01X981058Y3182197D01*
G01X977063Y3182953D01*
G01X977063Y3182953D01*
G01X973454Y3183616D01*
G01X973454Y3183616D01*
G01X969497Y3184273D01*
G01X969497Y3184273D01*
G01X965001Y3185057D01*
G01X965001Y3185057D01*
G01X960326Y3185715D01*
G01X960326Y3185715D01*
G01X955133Y3186353D01*
G01X951917Y3186657D01*
G01X951496Y3187178D01*
G01X951075Y3187700D01*
G01X900939Y3187700D01*
G01X850803Y3187700D01*
G01X850431Y3187166D01*
G37*
G36*
G01X1879041Y1282700D02*
G01X1854245Y1282700D01*
G01X1854200Y1283512D01*
G01X1854271Y1292985D01*
G01X1854787Y1303168D01*
G01X1855756Y1315838D01*
G01X1858054Y1340854D01*
G01X1859971Y1357613D01*
G01X1863154Y1380815D01*
G01X1865450Y1396084D01*
G01X1866776Y1403882D01*
G01X1870057Y1422725D01*
G01X1872387Y1435070D01*
G01X1876047Y1453005D01*
G01X1879576Y1468544D01*
G01X2091854Y1468544D01*
G01X2092730Y1465622D01*
G01X2093732Y1463174D01*
G01X2094911Y1461393D01*
G01X2096215Y1460086D01*
G01X2102005Y1460086D01*
G01X2105021Y1462400D01*
G01X2108413Y1465540D01*
G01X2111693Y1469778D01*
G01X2115077Y1475433D01*
G01X2118784Y1482828D01*
G01X2121474Y1487730D01*
G01X2122176Y1488408D01*
G01X2126346Y1487891D01*
G01X2137530Y1486279D01*
G01X2144546Y1485183D01*
G01X2144546Y1483892D01*
G01X2142044Y1472806D01*
G01X2138160Y1457272D01*
G01X2136776Y1451533D01*
G01X2136995Y1447679D01*
G01X2137214Y1443825D01*
G01X2138233Y1442087D01*
G01X2140661Y1439009D01*
G01X2142070Y1437669D01*
G01X2142070Y1437669D01*
G01X2147862Y1437669D01*
G01X2150919Y1439619D01*
G01X2153975Y1441568D01*
G01X2156826Y1445260D01*
G01X2159677Y1448952D01*
G01X2161264Y1453057D01*
G01X2163332Y1459761D01*
G01X2164932Y1467559D01*
G01X2166495Y1475356D01*
G01X2167584Y1481687D01*
G01X2188933Y1481687D01*
G01X2188933Y1458366D01*
G01X2189736Y1452241D01*
G01X2191458Y1442939D01*
G01X2194019Y1434645D01*
G01X2197361Y1427431D01*
G01X2201427Y1421368D01*
G01X2206160Y1416527D01*
G01X2211501Y1412980D01*
G01X2217392Y1410799D01*
G01X2220527Y1410243D01*
G01X2223777Y1410055D01*
G01X2223777Y1410055D01*
G01X2225714Y1410054D01*
G01X2229389Y1412264D01*
G01X2232483Y1414399D01*
G01X2235073Y1416765D01*
G01X2237108Y1419311D01*
G01X2238539Y1421983D01*
G01X2239641Y1424674D01*
G01X2239635Y1428248D01*
G01X2239628Y1431821D01*
G01X2238456Y1434275D01*
G01X2237378Y1436207D01*
G01X2236207Y1437337D01*
G01X2234598Y1437871D01*
G01X2232205Y1438017D01*
G01X2228434Y1438282D01*
G01X2225129Y1439038D01*
G01X2222260Y1440314D01*
G01X2219798Y1442137D01*
G01X2217711Y1444535D01*
G01X2215970Y1447537D01*
G01X2214544Y1451171D01*
G01X2213404Y1455464D01*
G01X2212402Y1460070D01*
G01X2212402Y1477176D01*
G01X2213189Y1482438D01*
G01X2216038Y1496659D01*
G01X2219059Y1507673D01*
G01X2219544Y1509496D01*
G01X2221806Y1516465D01*
G01X2225740Y1526424D01*
G01X2227715Y1530261D01*
G01X2230047Y1533782D01*
G01X2232530Y1536709D01*
G01X2234957Y1538766D01*
G01X2236850Y1540008D01*
G01X2239294Y1540004D01*
G01X2241738Y1539999D01*
G01X2243013Y1538850D01*
G01X2247039Y1534328D01*
G01X2249790Y1530955D01*
G01X2252267Y1529907D01*
G01X2254743Y1528859D01*
G01X2256447Y1529575D01*
G01X2257905Y1530487D01*
G01X2259290Y1531928D01*
G01X2261564Y1536047D01*
G01X2262401Y1538258D01*
G01X2262395Y1542869D01*
G01X2262126Y1547468D01*
G01X2261343Y1551757D01*
G01X2260070Y1555698D01*
G01X2258329Y1559252D01*
G01X2256142Y1562383D01*
G01X2253532Y1565052D01*
G01X2250520Y1567220D01*
G01X2247130Y1568851D01*
G01X2244359Y1569897D01*
G01X2239477Y1569839D01*
G01X2235684Y1569600D01*
G01X2232055Y1568974D01*
G01X2228586Y1567952D01*
G01X2225268Y1566526D01*
G01X2222097Y1564688D01*
G01X2219067Y1562432D01*
G01X2216170Y1559750D01*
G01X2213400Y1556634D01*
G01X2208221Y1549068D01*
G01X2203477Y1539675D01*
G01X2199121Y1528394D01*
G01X2195103Y1515163D01*
G01X2191264Y1499072D01*
G01X2189704Y1488593D01*
G01X2188933Y1481687D01*
G01X2167584Y1481687D01*
G01X2167781Y1482828D01*
G01X2170090Y1497213D01*
G01X2171905Y1510930D01*
G01X2173322Y1524808D01*
G01X2174439Y1539674D01*
G01X2175268Y1552660D01*
G01X2175011Y1561116D01*
G01X2174489Y1571489D01*
G01X2173632Y1580700D01*
G01X2172523Y1588054D01*
G01X2171243Y1592854D01*
G01X2169104Y1597445D01*
G01X2166713Y1601470D01*
G01X2164337Y1604535D01*
G01X2162242Y1606243D01*
G01X2160028Y1606809D01*
G01X2157545Y1606578D01*
G01X2154882Y1605613D01*
G01X2152130Y1603977D01*
G01X2149378Y1601733D01*
G01X2146716Y1598945D01*
G01X2144233Y1595676D01*
G01X2142020Y1591989D01*
G01X2138310Y1583880D01*
G01X2129742Y1563075D01*
G01X2121707Y1543906D01*
G01X2111646Y1520515D01*
G01X2101570Y1497123D01*
G01X2097567Y1488026D01*
G01X2093366Y1477815D01*
G01X2092515Y1474773D01*
G01X2092138Y1472055D01*
G01X2091854Y1468544D01*
G01X1879576Y1468544D01*
G01X1880397Y1472161D01*
G01X1884755Y1489665D01*
G01X1888439Y1502646D01*
G01X1889358Y1505895D01*
G01X1890820Y1510838D01*
G01X1980986Y1510838D01*
G01X1981622Y1505379D01*
G01X1982470Y1501529D01*
G01X1984240Y1499340D01*
G01X1986010Y1497150D01*
G01X1987775Y1496728D01*
G01X1990224Y1496488D01*
G01X1992813Y1496869D01*
G01X1995483Y1497831D01*
G01X1998173Y1499334D01*
G01X2000822Y1501339D01*
G01X2003371Y1503806D01*
G01X2005759Y1506696D01*
G01X2007925Y1509969D01*
G01X2011105Y1516104D01*
G01X2017427Y1531621D01*
G01X2022474Y1544231D01*
G01X2024152Y1544124D01*
G01X2026898Y1543347D01*
G01X2030772Y1541264D01*
G01X2035186Y1538956D01*
G01X2037361Y1538058D01*
G01X2038815Y1537420D01*
G01X2044548Y1534443D01*
G01X2051053Y1531152D01*
G01X2052711Y1530200D01*
G01X2052711Y1528310D01*
G01X2050726Y1513810D01*
G01X2047883Y1497123D01*
G01X2046452Y1488667D01*
G01X2046291Y1481879D01*
G01X2046595Y1478006D01*
G01X2047888Y1475518D01*
G01X2049282Y1473388D01*
G01X2050818Y1471760D01*
G01X2052455Y1470488D01*
G01X2055375Y1470485D01*
G01X2055375Y1470485D01*
G01X2058295Y1470482D01*
G01X2061243Y1472255D01*
G01X2064190Y1474028D01*
G01X2067506Y1478283D01*
G01X2070823Y1482537D01*
G01X2072534Y1486744D01*
G01X2075512Y1496128D01*
G01X2080989Y1517591D01*
G01X2084073Y1529937D01*
G01X2088422Y1548455D01*
G01X2090422Y1557227D01*
G01X2093852Y1573146D01*
G01X2095290Y1579969D01*
G01X2096819Y1588415D01*
G01X2098120Y1595888D01*
G01X2099375Y1602710D01*
G01X2100170Y1607259D01*
G01X2099474Y1610532D01*
G01X2098531Y1613871D01*
G01X2097221Y1616821D01*
G01X2095583Y1619309D01*
G01X2093659Y1621261D01*
G01X2091286Y1623178D01*
G01X2083425Y1623178D01*
G01X2080560Y1620725D01*
G01X2078767Y1618720D01*
G01X2076713Y1615575D01*
G01X2071929Y1606103D01*
G01X2066420Y1592778D01*
G01X2060398Y1576070D01*
G01X2058543Y1570888D01*
G01X2057162Y1568358D01*
G01X2056472Y1567901D01*
G01X2055688Y1567882D01*
G01X2053553Y1568860D01*
G01X2045823Y1572990D01*
G01X2036255Y1578024D01*
G01X2032245Y1580708D01*
G01X2031679Y1581575D01*
G01X2032524Y1586295D01*
G01X2033856Y1593364D01*
G01X2034416Y1598091D01*
G01X2034399Y1603680D01*
G01X2033867Y1609807D01*
G01X2032881Y1616144D01*
G01X2031502Y1622367D01*
G01X2029793Y1628147D01*
G01X2027814Y1633160D01*
G01X2025626Y1637079D01*
G01X2023413Y1640259D01*
G01X2020843Y1641784D01*
G01X2018683Y1642758D01*
G01X2016538Y1643132D01*
G01X2014436Y1642922D01*
G01X2012407Y1642141D01*
G01X2010479Y1640807D01*
G01X2008682Y1638933D01*
G01X2007043Y1636537D01*
G01X2005592Y1633632D01*
G01X2004284Y1630573D01*
G01X2002981Y1622165D01*
G01X1998905Y1597852D01*
G01X1994392Y1574524D01*
G01X1989593Y1552911D01*
G01X1984660Y1533743D01*
G01X1982496Y1524939D01*
G01X1981275Y1517331D01*
G01X1980986Y1510838D01*
G01X1890820Y1510838D01*
G01X1900734Y1544358D01*
G01X1901693Y1547778D01*
G01X1902179Y1549601D01*
G01X1905489Y1559323D01*
G01X1908072Y1566916D01*
G01X1909346Y1570785D01*
G01X1913990Y1584031D01*
G01X1915469Y1588392D01*
G01X1917764Y1594948D01*
G01X1920060Y1601432D01*
G01X1922043Y1607058D01*
G01X1925168Y1615706D01*
G01X1934227Y1639107D01*
G01X1945193Y1666063D01*
G01X1951028Y1679047D01*
G01X1954814Y1685757D01*
G01X1956736Y1688233D01*
G01X1961129Y1687830D01*
G01X1962027Y1685393D01*
G01X1962925Y1682957D01*
G01X1963948Y1682957D01*
G01X1965857Y1683575D01*
G01X1973375Y1687525D01*
G01X1977457Y1689496D01*
G01X1987916Y1693385D01*
G01X1994925Y1695548D01*
G01X2002898Y1697480D01*
G01X2011607Y1699131D01*
G01X2020824Y1700452D01*
G01X2030517Y1701629D01*
G01X2061117Y1701800D01*
G01X2071072Y1700814D01*
G01X2086063Y1698929D01*
G01X2104495Y1695723D01*
G01X2125669Y1690454D01*
G01X2131949Y1688731D01*
G01X2138326Y1686754D01*
G01X2145311Y1684531D01*
G01X2151178Y1682601D01*
G01X2155770Y1680995D01*
G01X2166820Y1677007D01*
G01X2181430Y1671242D01*
G01X2195028Y1665556D01*
G01X2203040Y1661806D01*
G01X2205150Y1660865D01*
G01X2207114Y1659894D01*
G01X2209366Y1658919D01*
G01X2210641Y1658373D01*
G01X2213677Y1656663D01*
G01X2230003Y1648536D01*
G01X2235615Y1645605D01*
G01X2241227Y1642681D01*
G01X2247350Y1639372D01*
G01X2255768Y1634716D01*
G01X2261890Y1631140D01*
G01X2270054Y1626264D01*
G01X2292757Y1612966D01*
G01X2305002Y1606522D01*
G01X2311201Y1603338D01*
G01X2313594Y1602386D01*
G01X2314695Y1601736D01*
G01X2315797Y1601086D01*
G01X2318190Y1600138D01*
G01X2330836Y1594547D01*
G01X2347858Y1588040D01*
G01X2364452Y1582836D01*
G01X2378980Y1578968D01*
G01X2387143Y1577101D01*
G01X2396837Y1575126D01*
G01X2406786Y1573490D01*
G01X2419285Y1571839D01*
G01X2430765Y1570392D01*
G01X2435612Y1569622D01*
G01X2485100Y1569622D01*
G01X2489947Y1570397D01*
G01X2501682Y1571849D01*
G01X2514947Y1573492D01*
G01X2525661Y1575091D01*
G01X2531073Y1576049D01*
G01X2535920Y1577036D01*
G01X2541987Y1578306D01*
G01X2549130Y1579987D01*
G01X2567497Y1584538D01*
G01X2596437Y1593603D01*
G01X2602700Y1595931D01*
G01X2619101Y1602432D01*
G01X2638097Y1610614D01*
G01X2654731Y1618271D01*
G01X2664044Y1623201D01*
G01X2665436Y1623828D01*
G01X2669756Y1626102D01*
G01X2673880Y1628376D01*
G01X2676838Y1629939D01*
G01X2682418Y1633188D01*
G01X2704763Y1646443D01*
G01X2723954Y1659288D01*
G01X2739933Y1671027D01*
G01X2741586Y1672110D01*
G01X2743063Y1672561D01*
G01X2744415Y1672561D01*
G01X2744697Y1671187D01*
G01X2744979Y1669814D01*
G01X2739848Y1657055D01*
G01X2734329Y1643646D01*
G01X2726738Y1624802D01*
G01X2713166Y1591015D01*
G01X2708666Y1579578D01*
G01X2706789Y1573981D01*
G01X2706780Y1572542D01*
G01X2707928Y1571707D01*
G01X2709076Y1570872D01*
G01X2792916Y1570872D01*
G01X2794000Y1568662D01*
G01X2792719Y1566723D01*
G01X2777166Y1548507D01*
G01X2755503Y1524411D01*
G01X2742749Y1510800D01*
G01X2723307Y1490970D01*
G01X2702618Y1470653D01*
G01X2678861Y1448487D01*
G01X2659587Y1431717D01*
G01X2639117Y1414605D01*
G01X2618728Y1398847D01*
G01X2604427Y1388318D01*
G01X2590243Y1378482D01*
G01X2576204Y1369354D01*
G01X2562336Y1360951D01*
G01X2548668Y1353288D01*
G01X2535228Y1346382D01*
G01X2522043Y1340249D01*
G01X2509140Y1334905D01*
G01X2496989Y1330433D01*
G01X2481019Y1325560D01*
G01X2472346Y1323626D01*
G01X2462652Y1321672D01*
G01X2455582Y1320713D01*
G01X2445914Y1320092D01*
G01X2421059Y1319834D01*
G01X2392639Y1320835D01*
G01X2365205Y1323032D01*
G01X2353470Y1324275D01*
G01X2339583Y1326077D01*
G01X2322348Y1328875D01*
G01X2314951Y1330108D01*
G01X2308573Y1331327D01*
G01X2300410Y1333050D01*
G01X2272080Y1339686D01*
G01X2241738Y1348100D01*
G01X2229238Y1351895D01*
G01X2213422Y1357159D01*
G01X2157045Y1377996D01*
G01X2135872Y1386036D01*
G01X2101535Y1399028D01*
G01X2087305Y1403978D01*
G01X2255122Y1403978D01*
G01X2255983Y1401981D01*
G01X2258154Y1398755D01*
G01X2259465Y1397527D01*
G01X2262550Y1397583D01*
G01X2265634Y1397639D01*
G01X2268821Y1399637D01*
G01X2272008Y1401635D01*
G01X2275514Y1406007D01*
G01X2280422Y1412877D01*
G01X2284537Y1420454D01*
G01X2288197Y1429454D01*
G01X2291735Y1440593D01*
G01X2292850Y1444078D01*
G01X2293908Y1446037D01*
G01X2295275Y1446896D01*
G01X2297319Y1447081D01*
G01X2299394Y1446939D01*
G01X2300609Y1445982D01*
G01X2301437Y1443384D01*
G01X2302353Y1438319D01*
G01X2307561Y1405506D01*
G01X2309069Y1395135D01*
G01X2310318Y1388981D01*
G01X2311776Y1385349D01*
G01X2313913Y1382543D01*
G01X2316400Y1380452D01*
G01X2316400Y1380452D01*
G01X2319231Y1379195D01*
G01X2322199Y1378723D01*
G01X2325095Y1378992D01*
G01X2327710Y1379954D01*
G01X2329836Y1381563D01*
G01X2331265Y1383772D01*
G01X2331787Y1386535D01*
G01X2332299Y1388354D01*
G01X2333267Y1393636D01*
G01X2333723Y1398267D01*
G01X2333293Y1403157D01*
G01X2332359Y1410512D01*
G01X2331001Y1417527D01*
G01X2324369Y1443842D01*
G01X2322043Y1450522D01*
G01X2319457Y1456195D01*
G01X2318370Y1458069D01*
G01X2319304Y1459890D01*
G01X2319635Y1460411D01*
G01X2395326Y1460411D01*
G01X2395339Y1427273D01*
G01X2396454Y1419785D01*
G01X2398272Y1409981D01*
G01X2400634Y1401306D01*
G01X2403529Y1393774D01*
G01X2406951Y1387399D01*
G01X2410890Y1382194D01*
G01X2415337Y1378173D01*
G01X2420284Y1375350D01*
G01X2420284Y1375350D01*
G01X2425721Y1373739D01*
G01X2429605Y1373055D01*
G01X2434563Y1374003D01*
G01X2441399Y1375915D01*
G01X2444241Y1377227D01*
G01X2446717Y1378790D01*
G01X2448843Y1380614D01*
G01X2450632Y1382711D01*
G01X2452099Y1385090D01*
G01X2453258Y1387762D01*
G01X2454337Y1390778D01*
G01X2454145Y1395610D01*
G01X2453953Y1400443D01*
G01X2452300Y1402325D01*
G01X2450646Y1404206D01*
G01X2445752Y1404206D01*
G01X2436696Y1400308D01*
G01X2430339Y1400308D01*
G01X2428118Y1401521D01*
G01X2424639Y1404158D01*
G01X2421579Y1407930D01*
G01X2418943Y1412663D01*
G01X2416737Y1418184D01*
G01X2414965Y1424322D01*
G01X2413634Y1430904D01*
G01X2412748Y1437756D01*
G01X2412312Y1444707D01*
G01X2412332Y1451584D01*
G01X2412812Y1458214D01*
G01X2413759Y1464424D01*
G01X2415177Y1470042D01*
G01X2417071Y1474895D01*
G01X2419446Y1478811D01*
G01X2422309Y1481617D01*
G01X2425663Y1483140D01*
G01X2427448Y1483549D01*
G01X2429625Y1482564D01*
G01X2433451Y1479993D01*
G01X2437166Y1477357D01*
G01X2439050Y1476601D01*
G01X2440730Y1476330D01*
G01X2442408Y1476330D01*
G01X2443729Y1478330D01*
G01X2445050Y1480329D01*
G01X2445050Y1484165D01*
G01X2444855Y1487179D01*
G01X2444275Y1490132D01*
G01X2442015Y1495764D01*
G01X2440484Y1497912D01*
G01X2462896Y1497912D01*
G01X2463668Y1487647D01*
G01X2466696Y1457201D01*
G01X2469782Y1426948D01*
G01X2471823Y1404885D01*
G01X2473244Y1394671D01*
G01X2473244Y1394671D01*
G01X2473845Y1392992D01*
G01X2478297Y1390561D01*
G01X2482298Y1390561D01*
G01X2488760Y1391185D01*
G01X2494794Y1392537D01*
G01X2505253Y1395045D01*
G01X2511630Y1397073D01*
G01X2522600Y1400970D01*
G01X2526383Y1402867D01*
G01X2529372Y1405092D01*
G01X2531530Y1407528D01*
G01X2532817Y1410058D01*
G01X2533195Y1412566D01*
G01X2532625Y1414934D01*
G01X2531069Y1417045D01*
G01X2528487Y1418782D01*
G01X2526173Y1419908D01*
G01X2522728Y1419659D01*
G01X2519171Y1419088D01*
G01X2515457Y1418065D01*
G01X2508350Y1415849D01*
G01X2501744Y1414317D01*
G01X2496157Y1413564D01*
G01X2492103Y1413689D01*
G01X2489889Y1414112D01*
G01X2489114Y1415619D01*
G01X2488339Y1417125D01*
G01X2487906Y1423823D01*
G01X2486881Y1442218D01*
G01X2485166Y1468733D01*
G01X2484203Y1477675D01*
G01X2483077Y1484778D01*
G01X2481556Y1493296D01*
G01X2480050Y1500597D01*
G01X2478198Y1506637D01*
G01X2476076Y1511213D01*
G01X2473761Y1514119D01*
G01X2472169Y1515025D01*
G01X2470569Y1515137D01*
G01X2469009Y1514511D01*
G01X2467536Y1513201D01*
G01X2466198Y1511263D01*
G01X2465043Y1508752D01*
G01X2464118Y1505722D01*
G01X2463470Y1502229D01*
G01X2462896Y1497912D01*
G01X2440484Y1497912D01*
G01X2438363Y1500889D01*
G01X2433418Y1505331D01*
G01X2430204Y1507667D01*
G01X2426020Y1507894D01*
G01X2420736Y1507474D01*
G01X2415838Y1505650D01*
G01X2411361Y1502471D01*
G01X2407340Y1497982D01*
G01X2403808Y1492233D01*
G01X2400802Y1485268D01*
G01X2398355Y1477136D01*
G01X2396503Y1467884D01*
G01X2395326Y1460411D01*
G01X2319635Y1460411D01*
G01X2321548Y1463422D01*
G01X2332113Y1477978D01*
G01X2339427Y1489891D01*
G01X2341923Y1494966D01*
G01X2343677Y1499511D01*
G01X2344712Y1503570D01*
G01X2345052Y1507188D01*
G01X2345052Y1511241D01*
G01X2343697Y1512967D01*
G01X2342377Y1514302D01*
G01X2341107Y1515088D01*
G01X2339871Y1515483D01*
G01X2336420Y1513758D01*
G01X2331465Y1510454D01*
G01X2325324Y1504910D01*
G01X2318024Y1497154D01*
G01X2309594Y1487214D01*
G01X2302961Y1479077D01*
G01X2302772Y1480140D01*
G01X2303392Y1487376D01*
G01X2305032Y1501705D01*
G01X2305627Y1515049D01*
G01X2305695Y1517846D01*
G01X2520413Y1517846D01*
G01X2520750Y1512520D01*
G01X2521324Y1506792D01*
G01X2522431Y1499969D01*
G01X2526649Y1480879D01*
G01X2530270Y1465284D01*
G01X2534147Y1450000D01*
G01X2535966Y1444351D01*
G01X2537839Y1439746D01*
G01X2539864Y1435971D01*
G01X2542142Y1432810D01*
G01X2544772Y1430050D01*
G01X2547855Y1427476D01*
G01X2551896Y1424909D01*
G01X2558253Y1422257D01*
G01X2560913Y1421789D01*
G01X2564885Y1421581D01*
G01X2564885Y1421581D01*
G01X2569793Y1421557D01*
G01X2572599Y1422742D01*
G01X2575332Y1424145D01*
G01X2577739Y1425946D01*
G01X2579858Y1428210D01*
G01X2581728Y1431003D01*
G01X2583385Y1434393D01*
G01X2584867Y1438444D01*
G01X2587461Y1448801D01*
G01X2589018Y1456513D01*
G01X2588749Y1465309D01*
G01X2587939Y1478304D01*
G01X2586340Y1490859D01*
G01X2583682Y1508840D01*
G01X2580802Y1521660D01*
G01X2579192Y1526432D01*
G01X2577422Y1530271D01*
G01X2575457Y1533296D01*
G01X2573263Y1535627D01*
G01X2570227Y1537577D01*
G01X2567583Y1537921D01*
G01X2565393Y1536795D01*
G01X2563719Y1534336D01*
G01X2562624Y1530683D01*
G01X2562169Y1525971D01*
G01X2562417Y1520338D01*
G01X2563430Y1513922D01*
G01X2566507Y1496407D01*
G01X2568541Y1478971D01*
G01X2569369Y1463489D01*
G01X2569279Y1457067D01*
G01X2568826Y1451836D01*
G01X2568169Y1447159D01*
G01X2566818Y1444903D01*
G01X2565467Y1442648D01*
G01X2563616Y1441870D01*
G01X2561574Y1441362D01*
G01X2559493Y1441479D01*
G01X2557447Y1442163D01*
G01X2555511Y1443356D01*
G01X2553758Y1445001D01*
G01X2552265Y1447041D01*
G01X2551106Y1449417D01*
G01X2550355Y1452073D01*
G01X2549677Y1454563D01*
G01X2547063Y1464683D01*
G01X2544518Y1476980D01*
G01X2542768Y1486727D01*
G01X2540618Y1498098D01*
G01X2538390Y1509603D01*
G01X2536396Y1517288D01*
G01X2534289Y1522215D01*
G01X2531726Y1525442D01*
G01X2530055Y1527012D01*
G01X2528064Y1527012D01*
G01X2526216Y1526680D01*
G01X2524569Y1525880D01*
G01X2523064Y1524749D01*
G01X2521738Y1521298D01*
G01X2520413Y1517846D01*
G01X2305695Y1517846D01*
G01X2305914Y1526802D01*
G01X2304998Y1530643D01*
G01X2303626Y1535203D01*
G01X2301838Y1539083D01*
G01X2299602Y1542338D01*
G01X2296889Y1545023D01*
G01X2296266Y1545531D01*
G01X2594282Y1545531D01*
G01X2594314Y1541632D01*
G01X2594346Y1537734D01*
G01X2596780Y1527987D01*
G01X2599873Y1515641D01*
G01X2601056Y1510768D01*
G01X2603120Y1501997D01*
G01X2612471Y1459599D01*
G01X2613191Y1456855D01*
G01X2614069Y1455050D01*
G01X2614069Y1455050D01*
G01X2615058Y1453913D01*
G01X2620486Y1454016D01*
G01X2625914Y1454118D01*
G01X2628975Y1455415D01*
G01X2638264Y1460017D01*
G01X2645926Y1465249D01*
G01X2649143Y1468093D01*
G01X2651949Y1471086D01*
G01X2654342Y1474224D01*
G01X2656320Y1477504D01*
G01X2657883Y1480925D01*
G01X2659028Y1484481D01*
G01X2659754Y1488172D01*
G01X2660059Y1491993D01*
G01X2659942Y1495942D01*
G01X2659401Y1500015D01*
G01X2657041Y1508524D01*
G01X2655253Y1513388D01*
G01X2652280Y1517151D01*
G01X2647770Y1521675D01*
G01X2645626Y1523187D01*
G01X2644094Y1523764D01*
G01X2643006Y1524738D01*
G01X2642370Y1525713D01*
G01X2642871Y1526525D01*
G01X2644545Y1531886D01*
G01X2646276Y1537995D01*
G01X2646748Y1545143D01*
G01X2646664Y1550729D01*
G01X2645616Y1554239D01*
G01X2643437Y1559752D01*
G01X2640573Y1564214D01*
G01X2639179Y1565897D01*
G01X2636045Y1566923D01*
G01X2631819Y1567411D01*
G01X2626525Y1566683D01*
G01X2620578Y1564933D01*
G01X2614391Y1562358D01*
G01X2608377Y1559153D01*
G01X2602950Y1555515D01*
G01X2598522Y1551638D01*
G01X2595508Y1547720D01*
G01X2594282Y1545531D01*
G01X2296266Y1545531D01*
G01X2294898Y1546647D01*
G01X2292042Y1546949D01*
G01X2289186Y1547251D01*
G01X2287315Y1545593D01*
G01X2285445Y1543934D01*
G01X2284146Y1540509D01*
G01X2282930Y1536501D01*
G01X2281983Y1531507D01*
G01X2280757Y1517591D01*
G01X2279564Y1496778D01*
G01X2278223Y1482280D01*
G01X2276325Y1470818D01*
G01X2273460Y1459112D01*
G01X2267565Y1441217D01*
G01X2264230Y1432453D01*
G01X2261894Y1427273D01*
G01X2258533Y1419194D01*
G01X2255565Y1411764D01*
G01X2255343Y1407871D01*
G01X2255122Y1403978D01*
G01X2087305Y1403978D01*
G01X2078354Y1407092D01*
G01X2034599Y1421427D01*
G01X2025160Y1424386D01*
G01X2010133Y1428643D01*
G01X1991998Y1433084D01*
G01X1979459Y1435689D01*
G01X1967968Y1437617D01*
G01X1956625Y1438997D01*
G01X1944531Y1439959D01*
G01X1933325Y1440659D01*
G01X1921974Y1439951D01*
G01X1904499Y1438324D01*
G01X1895406Y1436956D01*
G01X1892436Y1436505D01*
G01X1891743Y1435138D01*
G01X1890439Y1429519D01*
G01X1888635Y1416877D01*
G01X1885585Y1391536D01*
G01X1884339Y1377566D01*
G01X1883555Y1369171D01*
G01X1882535Y1358232D01*
G01X1881470Y1339037D01*
G01X1880628Y1317344D01*
G01X1880279Y1298912D01*
G01X1880265Y1284259D01*
G01X1879041Y1282700D01*
G37*
G36*
G01X2625020Y1471782D02*
G01X2624301Y1471782D01*
G01X2623680Y1474869D01*
G01X2619736Y1496237D01*
G01X2619422Y1498275D01*
G01X2622481Y1500558D01*
G01X2625595Y1502560D01*
G01X2628788Y1504167D01*
G01X2632802Y1505806D01*
G01X2636490Y1506140D01*
G01X2640563Y1505452D01*
G01X2642575Y1504685D01*
G01X2646023Y1499553D01*
G01X2646609Y1496223D01*
G01X2647194Y1492893D01*
G01X2646588Y1490025D01*
G01X2645981Y1487157D01*
G01X2640606Y1480474D01*
G01X2636576Y1477835D01*
G01X2629547Y1473714D01*
G01X2625020Y1471782D01*
G37*
G36*
G01X2622211Y1520881D02*
G01X2619143Y1518762D01*
G01X2617201Y1517916D01*
G01X2616119Y1517916D01*
G01X2613671Y1525226D01*
G01X2610069Y1536242D01*
G01X2608916Y1539950D01*
G01X2611293Y1541337D01*
G01X2615172Y1543479D01*
G01X2618771Y1544902D01*
G01X2622343Y1546200D01*
G01X2625973Y1546454D01*
G01X2629093Y1546506D01*
G01X2630499Y1545097D01*
G01X2632245Y1542623D01*
G01X2633103Y1539642D01*
G01X2633060Y1536242D01*
G01X2632105Y1532511D01*
G01X2630908Y1529237D01*
G01X2628411Y1526428D01*
G01X2625576Y1523646D01*
G01X2622211Y1520881D01*
G37*
G36*
G01X2154492Y1521399D02*
G01X2153976Y1520131D01*
G01X2152609Y1519645D01*
G01X2149781Y1519907D01*
G01X2144885Y1520886D01*
G01X2134852Y1523004D01*
G01X2132556Y1523450D01*
G01X2132261Y1526063D01*
G01X2136033Y1533198D01*
G01X2143701Y1547480D01*
G01X2150015Y1559162D01*
G01X2153348Y1564863D01*
G01X2154263Y1566028D01*
G01X2155234Y1565366D01*
G01X2156206Y1564703D01*
G01X2156572Y1560970D01*
G01X2156721Y1553134D01*
G01X2156309Y1541739D01*
G01X2155509Y1530067D01*
G01X2154492Y1521399D01*
G37*
G04 Image End*

G04 Text Start*
G54D10*
G01X-1437640Y3370580D02*
G01X-1437640Y3183890D01*
G01X-1437640Y3183890D02*
G01X-1330960Y3183890D01*
G01X-1267968Y3370580D02*
G01X-1267968Y3183890D01*
G01X-1267968Y3370580D02*
G01X-1152398Y3370580D01*
G01X-1267968Y3281680D02*
G01X-1196848Y3281680D01*
G01X-1267968Y3183890D02*
G01X-1152398Y3183890D01*
G01X-1089406Y3370580D02*
G01X-1089406Y3183890D01*
G01X-1089406Y3370580D02*
G01X-1027176Y3370580D01*
G01X-1000506Y3361690D01*
G01X-982726Y3343910D01*
G01X-973836Y3326130D01*
G01X-964946Y3299460D01*
G01X-964946Y3255010D01*
G01X-973836Y3228340D01*
G01X-982726Y3210560D01*
G01X-1000506Y3192780D01*
G01X-1027176Y3183890D01*
G01X-1089406Y3183890D01*
G01X-569468Y3326130D02*
G01X-578358Y3343910D01*
G01X-596138Y3361690D01*
G01X-613918Y3370580D01*
G01X-649478Y3370580D01*
G01X-667258Y3361690D01*
G01X-685038Y3343910D01*
G01X-693928Y3326130D01*
G01X-702818Y3299460D01*
G01X-702818Y3255010D01*
G01X-693928Y3228340D01*
G01X-685038Y3210560D01*
G01X-667258Y3192780D01*
G01X-649478Y3183890D01*
G01X-613918Y3183890D01*
G01X-596138Y3192780D01*
G01X-578358Y3210560D01*
G01X-569468Y3228340D01*
G01X-506476Y3370580D02*
G01X-506476Y3183890D01*
G01X-382016Y3370580D02*
G01X-382016Y3183890D01*
G01X-506476Y3281680D02*
G01X-382016Y3281680D01*
G01X-247904Y3370580D02*
G01X-319024Y3183890D01*
G01X-247904Y3370580D02*
G01X-176784Y3183890D01*
G01X-292354Y3246120D02*
G01X-203454Y3246120D01*
G01X10668Y3343910D02*
G01X-7112Y3361690D01*
G01X-33782Y3370580D01*
G01X-69342Y3370580D01*
G01X-96012Y3361690D01*
G01X-113792Y3343910D01*
G01X-113792Y3326130D01*
G01X-104902Y3308350D01*
G01X-96012Y3299460D01*
G01X-78232Y3290570D01*
G01X-24892Y3272790D01*
G01X-7112Y3263900D01*
G01X1778Y3255010D01*
G01X10668Y3237230D01*
G01X10668Y3210560D01*
G01X-7112Y3192780D01*
G01X-33782Y3183890D01*
G01X-69342Y3183890D01*
G01X-96012Y3192780D01*
G01X-113792Y3210560D01*
G01X73660Y3370580D02*
G01X73660Y3183890D01*
G01X73660Y3370580D02*
G01X189230Y3370580D01*
G01X73660Y3281680D02*
G01X144780Y3281680D01*
G01X73660Y3183890D02*
G01X189230Y3183890D01*
G01X252222Y3370580D02*
G01X252222Y3183890D01*
G01X252222Y3370580D02*
G01X332232Y3370580D01*
G01X358902Y3361690D01*
G01X367792Y3352800D01*
G01X376682Y3335020D01*
G01X376682Y3317240D01*
G01X367792Y3299460D01*
G01X358902Y3290570D01*
G01X332232Y3281680D01*
G01X252222Y3281680D01*
G01X314452Y3281680D02*
G01X376682Y3183890D01*
G01X-1710690Y2854960D02*
G01X-1719580Y2872740D01*
G01X-1737360Y2881630D01*
G01X-1764030Y2881630D01*
G01X-1781810Y2872740D01*
G01X-1790700Y2863850D01*
G01X-1799590Y2837180D01*
G01X-1799590Y2810510D01*
G01X-1790700Y2792730D01*
G01X-1772920Y2783840D01*
G01X-1746250Y2783840D01*
G01X-1728470Y2792730D01*
G01X-1719580Y2810510D01*
G01X-1764030Y2881630D02*
G01X-1781810Y2863850D01*
G01X-1790700Y2837180D01*
G01X-1790700Y2810510D01*
G01X-1781810Y2792730D01*
G01X-1772920Y2783840D01*
G01X-1710690Y2881630D02*
G01X-1719580Y2810510D01*
G01X-1719580Y2792730D01*
G01X-1701800Y2783840D01*
G01X-1684020Y2783840D01*
G01X-1666240Y2801620D01*
G01X-1657350Y2828290D01*
G01X-1657350Y2846070D01*
G01X-1666240Y2872740D01*
G01X-1675130Y2890520D01*
G01X-1692910Y2908300D01*
G01X-1710690Y2917190D01*
G01X-1737360Y2926080D01*
G01X-1764030Y2926080D01*
G01X-1790700Y2917190D01*
G01X-1808480Y2908300D01*
G01X-1826260Y2890520D01*
G01X-1835150Y2872740D01*
G01X-1844040Y2846070D01*
G01X-1844040Y2819400D01*
G01X-1835150Y2792730D01*
G01X-1826260Y2774950D01*
G01X-1808480Y2757170D01*
G01X-1790700Y2748280D01*
G01X-1764030Y2739390D01*
G01X-1737360Y2739390D01*
G01X-1710690Y2748280D01*
G01X-1692910Y2757170D01*
G01X-1684020Y2766060D01*
G01X-1701800Y2881630D02*
G01X-1710690Y2810510D01*
G01X-1710690Y2792730D01*
G01X-1701800Y2783840D01*
G01X-1594358Y2863850D02*
G01X-1594358Y2739390D01*
G01X-1594358Y2828290D02*
G01X-1567688Y2854960D01*
G01X-1549908Y2863850D01*
G01X-1523238Y2863850D01*
G01X-1505458Y2854960D01*
G01X-1496568Y2828290D01*
G01X-1496568Y2739390D01*
G01X-1433576Y2810510D02*
G01X-1326896Y2810510D01*
G01X-1326896Y2828290D01*
G01X-1335786Y2846070D01*
G01X-1344676Y2854960D01*
G01X-1362456Y2863850D01*
G01X-1389126Y2863850D01*
G01X-1406906Y2854960D01*
G01X-1424686Y2837180D01*
G01X-1433576Y2810510D01*
G01X-1433576Y2792730D01*
G01X-1424686Y2766060D01*
G01X-1406906Y2748280D01*
G01X-1389126Y2739390D01*
G01X-1362456Y2739390D01*
G01X-1344676Y2748280D01*
G01X-1326896Y2766060D01*
G01X-1210564Y2926080D02*
G01X-1237234Y2917190D01*
G01X-1255014Y2890520D01*
G01X-1263904Y2846070D01*
G01X-1263904Y2819400D01*
G01X-1255014Y2774950D01*
G01X-1237234Y2748280D01*
G01X-1210564Y2739390D01*
G01X-1192784Y2739390D01*
G01X-1166114Y2748280D01*
G01X-1148334Y2774950D01*
G01X-1139444Y2819400D01*
G01X-1139444Y2846070D01*
G01X-1148334Y2890520D01*
G01X-1166114Y2917190D01*
G01X-1192784Y2926080D01*
G01X-1210564Y2926080D01*
G01X-969772Y2926080D02*
G01X-1058672Y2926080D01*
G01X-1067562Y2846070D01*
G01X-1058672Y2854960D01*
G01X-1032002Y2863850D01*
G01X-1005332Y2863850D01*
G01X-978662Y2854960D01*
G01X-960882Y2837180D01*
G01X-951992Y2810510D01*
G01X-951992Y2792730D01*
G01X-960882Y2766060D01*
G01X-978662Y2748280D01*
G01X-1005332Y2739390D01*
G01X-1032002Y2739390D01*
G01X-1058672Y2748280D01*
G01X-1067562Y2757170D01*
G01X-1076452Y2774950D01*
G01X-862330Y2926080D02*
G01X-862330Y2774950D01*
G01X-853440Y2748280D01*
G01X-835660Y2739390D01*
G01X-817880Y2739390D01*
G01X-889000Y2863850D02*
G01X-826770Y2863850D01*
G01X-648208Y2863850D02*
G01X-648208Y2739390D01*
G01X-648208Y2837180D02*
G01X-665988Y2854960D01*
G01X-683768Y2863850D01*
G01X-710438Y2863850D01*
G01X-728218Y2854960D01*
G01X-745998Y2837180D01*
G01X-754888Y2810510D01*
G01X-754888Y2792730D01*
G01X-745998Y2766060D01*
G01X-728218Y2748280D01*
G01X-710438Y2739390D01*
G01X-683768Y2739390D01*
G01X-665988Y2748280D01*
G01X-648208Y2766060D01*
G01X-585216Y2863850D02*
G01X-585216Y2739390D01*
G01X-585216Y2828290D02*
G01X-558546Y2854960D01*
G01X-540766Y2863850D01*
G01X-514096Y2863850D01*
G01X-496316Y2854960D01*
G01X-487426Y2828290D01*
G01X-487426Y2739390D01*
G01X-424434Y2810510D02*
G01X-317754Y2810510D01*
G01X-317754Y2828290D01*
G01X-326644Y2846070D01*
G01X-335534Y2854960D01*
G01X-353314Y2863850D01*
G01X-379984Y2863850D01*
G01X-397764Y2854960D01*
G01X-415544Y2837180D01*
G01X-424434Y2810510D01*
G01X-424434Y2792730D01*
G01X-415544Y2766060D01*
G01X-397764Y2748280D01*
G01X-379984Y2739390D01*
G01X-353314Y2739390D01*
G01X-335534Y2748280D01*
G01X-317754Y2766060D01*
G01X-11176Y2863850D02*
G01X-28956Y2854960D01*
G01X-46736Y2837180D01*
G01X-55626Y2810510D01*
G01X-55626Y2792730D01*
G01X-46736Y2766060D01*
G01X-28956Y2748280D01*
G01X-11176Y2739390D01*
G01X15494Y2739390D01*
G01X33274Y2748280D01*
G01X51054Y2766060D01*
G01X59944Y2792730D01*
G01X59944Y2810510D01*
G01X51054Y2837180D01*
G01X33274Y2854960D01*
G01X15494Y2863850D01*
G01X-11176Y2863850D01*
G01X122936Y2863850D02*
G01X122936Y2739390D01*
G01X122936Y2828290D02*
G01X149606Y2854960D01*
G01X167386Y2863850D01*
G01X194056Y2863850D01*
G01X211836Y2854960D01*
G01X220726Y2828290D01*
G01X220726Y2739390D01*
G01X-1297940Y-3270250D02*
G01X-1297940Y-3394710D01*
G01X-1297940Y-3305810D02*
G01X-1271270Y-3279140D01*
G01X-1253490Y-3270250D01*
G01X-1226820Y-3270250D01*
G01X-1209040Y-3279140D01*
G01X-1200150Y-3305810D01*
G01X-1200150Y-3394710D01*
G01X-1200150Y-3305810D02*
G01X-1173480Y-3279140D01*
G01X-1155700Y-3270250D01*
G01X-1129030Y-3270250D01*
G01X-1111250Y-3279140D01*
G01X-1102360Y-3305810D01*
G01X-1102360Y-3394710D01*
G01X-932688Y-3270250D02*
G01X-932688Y-3394710D01*
G01X-932688Y-3296920D02*
G01X-950468Y-3279140D01*
G01X-968248Y-3270250D01*
G01X-994918Y-3270250D01*
G01X-1012698Y-3279140D01*
G01X-1030478Y-3296920D01*
G01X-1039368Y-3323590D01*
G01X-1039368Y-3341370D01*
G01X-1030478Y-3368040D01*
G01X-1012698Y-3385820D01*
G01X-994918Y-3394710D01*
G01X-968248Y-3394710D01*
G01X-950468Y-3385820D01*
G01X-932688Y-3368040D01*
G01X-763016Y-3208020D02*
G01X-763016Y-3394710D01*
G01X-763016Y-3296920D02*
G01X-780796Y-3279140D01*
G01X-798576Y-3270250D01*
G01X-825246Y-3270250D01*
G01X-843026Y-3279140D01*
G01X-860806Y-3296920D01*
G01X-869696Y-3323590D01*
G01X-869696Y-3341370D01*
G01X-860806Y-3368040D01*
G01X-843026Y-3385820D01*
G01X-825246Y-3394710D01*
G01X-798576Y-3394710D01*
G01X-780796Y-3385820D01*
G01X-763016Y-3368040D01*
G01X-700024Y-3323590D02*
G01X-593344Y-3323590D01*
G01X-593344Y-3305810D01*
G01X-602234Y-3288030D01*
G01X-611124Y-3279140D01*
G01X-628904Y-3270250D01*
G01X-655574Y-3270250D01*
G01X-673354Y-3279140D01*
G01X-691134Y-3296920D01*
G01X-700024Y-3323590D01*
G01X-700024Y-3341370D01*
G01X-691134Y-3368040D01*
G01X-673354Y-3385820D01*
G01X-655574Y-3394710D01*
G01X-628904Y-3394710D01*
G01X-611124Y-3385820D01*
G01X-593344Y-3368040D01*
G01X-331216Y-3208020D02*
G01X-331216Y-3394710D01*
G01X-331216Y-3296920D02*
G01X-313436Y-3279140D01*
G01X-295656Y-3270250D01*
G01X-268986Y-3270250D01*
G01X-251206Y-3279140D01*
G01X-233426Y-3296920D01*
G01X-224536Y-3323590D01*
G01X-224536Y-3341370D01*
G01X-233426Y-3368040D01*
G01X-251206Y-3385820D01*
G01X-268986Y-3394710D01*
G01X-295656Y-3394710D01*
G01X-313436Y-3385820D01*
G01X-331216Y-3368040D01*
G01X-152654Y-3270250D02*
G01X-99314Y-3394710D01*
G01X-45974Y-3270250D02*
G01X-99314Y-3394710D01*
G01X-117094Y-3430270D01*
G01X-134874Y-3448050D01*
G01X-152654Y-3456940D01*
G01X-161544Y-3456940D01*
G01X322834Y-3270250D02*
G01X322834Y-3394710D01*
G01X322834Y-3296920D02*
G01X305054Y-3279140D01*
G01X287274Y-3270250D01*
G01X260604Y-3270250D01*
G01X242824Y-3279140D01*
G01X225044Y-3296920D01*
G01X216154Y-3323590D01*
G01X216154Y-3341370D01*
G01X225044Y-3368040D01*
G01X242824Y-3385820D01*
G01X260604Y-3394710D01*
G01X287274Y-3394710D01*
G01X305054Y-3385820D01*
G01X322834Y-3368040D01*
G01X385826Y-3270250D02*
G01X385826Y-3394710D01*
G01X385826Y-3305810D02*
G01X412496Y-3279140D01*
G01X430276Y-3270250D01*
G01X456946Y-3270250D01*
G01X474726Y-3279140D01*
G01X483616Y-3305810D01*
G01X483616Y-3394710D01*
G01X653288Y-3270250D02*
G01X653288Y-3394710D01*
G01X653288Y-3296920D02*
G01X635508Y-3279140D01*
G01X617728Y-3270250D01*
G01X591058Y-3270250D01*
G01X573278Y-3279140D01*
G01X555498Y-3296920D01*
G01X546608Y-3323590D01*
G01X546608Y-3341370D01*
G01X555498Y-3368040D01*
G01X573278Y-3385820D01*
G01X591058Y-3394710D01*
G01X617728Y-3394710D01*
G01X635508Y-3385820D01*
G01X653288Y-3368040D01*
G01X716280Y-3270250D02*
G01X716280Y-3394710D01*
G01X716280Y-3305810D02*
G01X742950Y-3279140D01*
G01X760730Y-3270250D01*
G01X787400Y-3270250D01*
G01X805180Y-3279140D01*
G01X814070Y-3305810D01*
G01X814070Y-3394710D01*
G01X877062Y-3270250D02*
G01X877062Y-3394710D01*
G01X877062Y-3305810D02*
G01X903732Y-3279140D01*
G01X921512Y-3270250D01*
G01X948182Y-3270250D01*
G01X965962Y-3279140D01*
G01X974852Y-3305810D01*
G01X974852Y-3394710D01*
G01X1144524Y-3270250D02*
G01X1144524Y-3394710D01*
G01X1144524Y-3296920D02*
G01X1126744Y-3279140D01*
G01X1108964Y-3270250D01*
G01X1082294Y-3270250D01*
G01X1064514Y-3279140D01*
G01X1046734Y-3296920D01*
G01X1037844Y-3323590D01*
G01X1037844Y-3341370D01*
G01X1046734Y-3368040D01*
G01X1064514Y-3385820D01*
G01X1082294Y-3394710D01*
G01X1108964Y-3394710D01*
G01X1126744Y-3385820D01*
G01X1144524Y-3368040D01*
G01X1207516Y-3270250D02*
G01X1207516Y-3394710D01*
G01X1207516Y-3305810D02*
G01X1234186Y-3279140D01*
G01X1251966Y-3270250D01*
G01X1278636Y-3270250D01*
G01X1296416Y-3279140D01*
G01X1305306Y-3305810D01*
G01X1305306Y-3394710D01*
G01X1474978Y-3270250D02*
G01X1474978Y-3394710D01*
G01X1474978Y-3296920D02*
G01X1457198Y-3279140D01*
G01X1439418Y-3270250D01*
G01X1412748Y-3270250D01*
G01X1394968Y-3279140D01*
G01X1377188Y-3296920D01*
G01X1368298Y-3323590D01*
G01X1368298Y-3341370D01*
G01X1377188Y-3368040D01*
G01X1394968Y-3385820D01*
G01X1412748Y-3394710D01*
G01X1439418Y-3394710D01*
G01X1457198Y-3385820D01*
G01X1474978Y-3368040D01*
G54D11*
G01X-1823810Y-875448D02*
G01X-1826858Y-869098D01*
G01X-1833208Y-863002D01*
G01X-1839304Y-859954D01*
G01X-1851750Y-859954D01*
G01X-1857846Y-863002D01*
G01X-1864196Y-869098D01*
G01X-1867244Y-875448D01*
G01X-1870292Y-884592D01*
G01X-1870292Y-900086D01*
G01X-1867244Y-909484D01*
G01X-1864196Y-915580D01*
G01X-1857846Y-921930D01*
G01X-1851750Y-924978D01*
G01X-1839304Y-924978D01*
G01X-1833208Y-921930D01*
G01X-1826858Y-915580D01*
G01X-1823810Y-909484D01*
G01X-1793584Y-872400D02*
G01X-1787488Y-869098D01*
G01X-1778344Y-859954D01*
G01X-1778344Y-924978D01*
G01X1063351Y-2262480D02*
G01X1066399Y-2268830D01*
G01X1072749Y-2274926D01*
G01X1078845Y-2277974D01*
G01X1091291Y-2277974D01*
G01X1097387Y-2274926D01*
G01X1103737Y-2268830D01*
G01X1106785Y-2262480D01*
G01X1109833Y-2253336D01*
G01X1109833Y-2237842D01*
G01X1106785Y-2228444D01*
G01X1103737Y-2222348D01*
G01X1097387Y-2215998D01*
G01X1091291Y-2212950D01*
G01X1078845Y-2212950D01*
G01X1072749Y-2215998D01*
G01X1066399Y-2222348D01*
G01X1063351Y-2228444D01*
G01X1030077Y-2262480D02*
G01X1030077Y-2265528D01*
G01X1027029Y-2271878D01*
G01X1023981Y-2274926D01*
G01X1017885Y-2277974D01*
G01X1005439Y-2277974D01*
G01X999089Y-2274926D01*
G01X996041Y-2271878D01*
G01X992993Y-2265528D01*
G01X992993Y-2259432D01*
G01X996041Y-2253336D01*
G01X1002391Y-2243938D01*
G01X1033125Y-2212950D01*
G01X989945Y-2212950D01*
G01X-365760Y-2276094D02*
G01X-365760Y-2211070D01*
G01X-409194Y-2276094D02*
G01X-409194Y-2211070D01*
G01X-365760Y-2245106D02*
G01X-409194Y-2245106D01*
G01X-439420Y-2263648D02*
G01X-445516Y-2266950D01*
G01X-454660Y-2276094D01*
G01X-454660Y-2211070D01*
G01X-4484121Y207597D02*
G01X-4484121Y142573D01*
G01X-4484121Y142573D02*
G01X-4447037Y142573D01*
G01X-4416811Y207597D02*
G01X-4416811Y142573D01*
G01X-4416811Y207597D02*
G01X-4376679Y207597D01*
G01X-4416811Y176609D02*
G01X-4392173Y176609D01*
G01X-4416811Y142573D02*
G01X-4376679Y142573D01*
G01X-4346453Y207597D02*
G01X-4346453Y142573D01*
G01X-4346453Y207597D02*
G01X-4324863Y207597D01*
G01X-4315719Y204549D01*
G01X-4309369Y198453D01*
G01X-4306321Y192103D01*
G01X-4303273Y182959D01*
G01X-4303273Y167465D01*
G01X-4306321Y158067D01*
G01X-4309369Y151971D01*
G01X-4315719Y145621D01*
G01X-4324863Y142573D01*
G01X-4346453Y142573D01*
G01X-4273047Y195151D02*
G01X-4266951Y198453D01*
G01X-4257807Y207597D01*
G01X-4257807Y142573D01*
G01X-2109221Y4119197D02*
G01X-2109221Y4054173D01*
G01X-2109221Y4054173D02*
G01X-2072137Y4054173D01*
G01X-2041911Y4119197D02*
G01X-2041911Y4054173D01*
G01X-2041911Y4119197D02*
G01X-2001779Y4119197D01*
G01X-2041911Y4088209D02*
G01X-2017273Y4088209D01*
G01X-2041911Y4054173D02*
G01X-2001779Y4054173D01*
G01X-1971553Y4119197D02*
G01X-1971553Y4054173D01*
G01X-1971553Y4119197D02*
G01X-1949963Y4119197D01*
G01X-1940819Y4116149D01*
G01X-1934469Y4110053D01*
G01X-1931421Y4103703D01*
G01X-1928373Y4094559D01*
G01X-1928373Y4079065D01*
G01X-1931421Y4069667D01*
G01X-1934469Y4063571D01*
G01X-1940819Y4057221D01*
G01X-1949963Y4054173D01*
G01X-1971553Y4054173D01*
G01X-1895099Y4103703D02*
G01X-1895099Y4106751D01*
G01X-1892051Y4113101D01*
G01X-1889003Y4116149D01*
G01X-1882907Y4119197D01*
G01X-1870461Y4119197D01*
G01X-1864111Y4116149D01*
G01X-1861063Y4113101D01*
G01X-1858015Y4106751D01*
G01X-1858015Y4100655D01*
G01X-1861063Y4094559D01*
G01X-1867413Y4085161D01*
G01X-1898147Y4054173D01*
G01X-1854967Y4054173D01*
G01X989579Y4258897D02*
G01X989579Y4193873D01*
G01X989579Y4193873D02*
G01X1026663Y4193873D01*
G01X1056889Y4258897D02*
G01X1056889Y4193873D01*
G01X1056889Y4258897D02*
G01X1097021Y4258897D01*
G01X1056889Y4227909D02*
G01X1081527Y4227909D01*
G01X1056889Y4193873D02*
G01X1097021Y4193873D01*
G01X1127247Y4258897D02*
G01X1127247Y4193873D01*
G01X1127247Y4258897D02*
G01X1148837Y4258897D01*
G01X1157981Y4255849D01*
G01X1164331Y4249753D01*
G01X1167379Y4243403D01*
G01X1170427Y4234259D01*
G01X1170427Y4218765D01*
G01X1167379Y4209367D01*
G01X1164331Y4203271D01*
G01X1157981Y4196921D01*
G01X1148837Y4193873D01*
G01X1127247Y4193873D01*
G01X1206749Y4258897D02*
G01X1240785Y4258897D01*
G01X1222243Y4234259D01*
G01X1231387Y4234259D01*
G01X1237737Y4231211D01*
G01X1240785Y4227909D01*
G01X1243833Y4218765D01*
G01X1243833Y4212415D01*
G01X1240785Y4203271D01*
G01X1234689Y4196921D01*
G01X1225291Y4193873D01*
G01X1215893Y4193873D01*
G01X1206749Y4196921D01*
G01X1203701Y4200223D01*
G01X1200653Y4206319D01*
G01X3478779Y2747597D02*
G01X3478779Y2682573D01*
G01X3478779Y2682573D02*
G01X3515863Y2682573D01*
G01X3546089Y2747597D02*
G01X3546089Y2682573D01*
G01X3546089Y2747597D02*
G01X3586221Y2747597D01*
G01X3546089Y2716609D02*
G01X3570727Y2716609D01*
G01X3546089Y2682573D02*
G01X3586221Y2682573D01*
G01X3616447Y2747597D02*
G01X3616447Y2682573D01*
G01X3616447Y2747597D02*
G01X3638037Y2747597D01*
G01X3647181Y2744549D01*
G01X3653531Y2738453D01*
G01X3656579Y2732103D01*
G01X3659627Y2722959D01*
G01X3659627Y2707465D01*
G01X3656579Y2698067D01*
G01X3653531Y2691971D01*
G01X3647181Y2685621D01*
G01X3638037Y2682573D01*
G01X3616447Y2682573D01*
G01X3720587Y2747597D02*
G01X3689853Y2704417D01*
G01X3736081Y2704417D01*
G01X3720587Y2747597D02*
G01X3720587Y2682573D01*
G01X4278879Y271097D02*
G01X4278879Y206073D01*
G01X4278879Y206073D02*
G01X4315963Y206073D01*
G01X4346189Y271097D02*
G01X4346189Y206073D01*
G01X4346189Y271097D02*
G01X4386321Y271097D01*
G01X4346189Y240109D02*
G01X4370827Y240109D01*
G01X4346189Y206073D02*
G01X4386321Y206073D01*
G01X4416547Y271097D02*
G01X4416547Y206073D01*
G01X4416547Y271097D02*
G01X4438137Y271097D01*
G01X4447281Y268049D01*
G01X4453631Y261953D01*
G01X4456679Y255603D01*
G01X4459727Y246459D01*
G01X4459727Y230965D01*
G01X4456679Y221567D01*
G01X4453631Y215471D01*
G01X4447281Y209121D01*
G01X4438137Y206073D01*
G01X4416547Y206073D01*
G01X4527037Y271097D02*
G01X4496049Y271097D01*
G01X4493001Y243411D01*
G01X4496049Y246459D01*
G01X4505193Y249507D01*
G01X4514591Y249507D01*
G01X4523989Y246459D01*
G01X4530085Y240109D01*
G01X4533133Y230965D01*
G01X4533133Y224615D01*
G01X4530085Y215471D01*
G01X4523989Y209121D01*
G01X4514591Y206073D01*
G01X4505193Y206073D01*
G01X4496049Y209121D01*
G01X4493001Y212423D01*
G01X4489953Y218519D01*
G01X3696721Y-2823797D02*
G01X3696721Y-2758773D01*
G01X3696721Y-2758773D02*
G01X3659637Y-2758773D01*
G01X3629411Y-2823797D02*
G01X3629411Y-2758773D01*
G01X3629411Y-2823797D02*
G01X3589279Y-2823797D01*
G01X3629411Y-2792809D02*
G01X3604773Y-2792809D01*
G01X3629411Y-2758773D02*
G01X3589279Y-2758773D01*
G01X3559053Y-2823797D02*
G01X3559053Y-2758773D01*
G01X3559053Y-2823797D02*
G01X3537463Y-2823797D01*
G01X3528319Y-2820749D01*
G01X3521969Y-2814653D01*
G01X3518921Y-2808303D01*
G01X3515873Y-2799159D01*
G01X3515873Y-2783665D01*
G01X3518921Y-2774267D01*
G01X3521969Y-2768171D01*
G01X3528319Y-2761821D01*
G01X3537463Y-2758773D01*
G01X3559053Y-2758773D01*
G01X3448563Y-2814653D02*
G01X3451611Y-2820749D01*
G01X3461009Y-2823797D01*
G01X3467105Y-2823797D01*
G01X3476503Y-2820749D01*
G01X3482599Y-2811351D01*
G01X3485647Y-2796111D01*
G01X3485647Y-2780617D01*
G01X3482599Y-2768171D01*
G01X3476503Y-2761821D01*
G01X3467105Y-2758773D01*
G01X3464057Y-2758773D01*
G01X3454913Y-2761821D01*
G01X3448563Y-2768171D01*
G01X3445515Y-2777315D01*
G01X3445515Y-2780617D01*
G01X3448563Y-2789761D01*
G01X3454913Y-2796111D01*
G01X3464057Y-2799159D01*
G01X3467105Y-2799159D01*
G01X3476503Y-2796111D01*
G01X3482599Y-2789761D01*
G01X3485647Y-2780617D01*
G01X-1715521Y-3526203D02*
G01X-1715521Y-3591227D01*
G01X-1715521Y-3591227D02*
G01X-1678437Y-3591227D01*
G01X-1648211Y-3526203D02*
G01X-1648211Y-3591227D01*
G01X-1648211Y-3526203D02*
G01X-1608079Y-3526203D01*
G01X-1648211Y-3557191D02*
G01X-1623573Y-3557191D01*
G01X-1648211Y-3591227D02*
G01X-1608079Y-3591227D01*
G01X-1577853Y-3526203D02*
G01X-1577853Y-3591227D01*
G01X-1577853Y-3526203D02*
G01X-1556263Y-3526203D01*
G01X-1547119Y-3529251D01*
G01X-1540769Y-3535347D01*
G01X-1537721Y-3541697D01*
G01X-1534673Y-3550841D01*
G01X-1534673Y-3566335D01*
G01X-1537721Y-3575733D01*
G01X-1540769Y-3581829D01*
G01X-1547119Y-3588179D01*
G01X-1556263Y-3591227D01*
G01X-1577853Y-3591227D01*
G01X-1461267Y-3526203D02*
G01X-1492255Y-3591227D01*
G01X-1504447Y-3526203D02*
G01X-1461267Y-3526203D01*
G01X-3645921Y-2091103D02*
G01X-3645921Y-2156127D01*
G01X-3645921Y-2156127D02*
G01X-3608837Y-2156127D01*
G01X-3578611Y-2091103D02*
G01X-3578611Y-2156127D01*
G01X-3578611Y-2091103D02*
G01X-3538479Y-2091103D01*
G01X-3578611Y-2122091D02*
G01X-3553973Y-2122091D01*
G01X-3578611Y-2156127D02*
G01X-3538479Y-2156127D01*
G01X-3508253Y-2091103D02*
G01X-3508253Y-2156127D01*
G01X-3508253Y-2091103D02*
G01X-3486663Y-2091103D01*
G01X-3477519Y-2094151D01*
G01X-3471169Y-2100247D01*
G01X-3468121Y-2106597D01*
G01X-3465073Y-2115741D01*
G01X-3465073Y-2131235D01*
G01X-3468121Y-2140633D01*
G01X-3471169Y-2146729D01*
G01X-3477519Y-2153079D01*
G01X-3486663Y-2156127D01*
G01X-3508253Y-2156127D01*
G01X-3419607Y-2091103D02*
G01X-3428751Y-2094151D01*
G01X-3431799Y-2100247D01*
G01X-3431799Y-2106597D01*
G01X-3428751Y-2112693D01*
G01X-3422655Y-2115741D01*
G01X-3410209Y-2118789D01*
G01X-3400811Y-2122091D01*
G01X-3394715Y-2128187D01*
G01X-3391667Y-2134283D01*
G01X-3391667Y-2143681D01*
G01X-3394715Y-2149777D01*
G01X-3397763Y-2153079D01*
G01X-3407161Y-2156127D01*
G01X-3419607Y-2156127D01*
G01X-3428751Y-2153079D01*
G01X-3431799Y-2149777D01*
G01X-3434847Y-2143681D01*
G01X-3434847Y-2134283D01*
G01X-3431799Y-2128187D01*
G01X-3425703Y-2122091D01*
G01X-3416305Y-2118789D01*
G01X-3404113Y-2115741D01*
G01X-3397763Y-2112693D01*
G01X-3394715Y-2106597D01*
G01X-3394715Y-2100247D01*
G01X-3397763Y-2094151D01*
G01X-3407161Y-2091103D01*
G01X-3419607Y-2091103D01*
G01X-4052321Y2353897D02*
G01X-4052321Y2288873D01*
G01X-4052321Y2288873D02*
G01X-4015237Y2288873D01*
G01X-3985011Y2353897D02*
G01X-3985011Y2288873D01*
G01X-3985011Y2353897D02*
G01X-3944879Y2353897D01*
G01X-3985011Y2322909D02*
G01X-3960373Y2322909D01*
G01X-3985011Y2288873D02*
G01X-3944879Y2288873D01*
G01X-3914653Y2353897D02*
G01X-3914653Y2288873D01*
G01X-3914653Y2353897D02*
G01X-3893063Y2353897D01*
G01X-3883919Y2350849D01*
G01X-3877569Y2344753D01*
G01X-3874521Y2338403D01*
G01X-3871473Y2329259D01*
G01X-3871473Y2313765D01*
G01X-3874521Y2304367D01*
G01X-3877569Y2298271D01*
G01X-3883919Y2291921D01*
G01X-3893063Y2288873D01*
G01X-3914653Y2288873D01*
G01X-3801115Y2332307D02*
G01X-3804163Y2322909D01*
G01X-3810513Y2316813D01*
G01X-3819657Y2313765D01*
G01X-3822705Y2313765D01*
G01X-3832103Y2316813D01*
G01X-3838199Y2322909D01*
G01X-3841247Y2332307D01*
G01X-3841247Y2335355D01*
G01X-3838199Y2344753D01*
G01X-3832103Y2350849D01*
G01X-3822705Y2353897D01*
G01X-3819657Y2353897D01*
G01X-3810513Y2350849D01*
G01X-3804163Y2344753D01*
G01X-3801115Y2332307D01*
G01X-3801115Y2316813D01*
G01X-3804163Y2301319D01*
G01X-3810513Y2291921D01*
G01X-3819657Y2288873D01*
G01X-3826007Y2288873D01*
G01X-3835151Y2291921D01*
G01X-3838199Y2298271D01*
G01X960803Y-4153921D02*
G01X1025827Y-4153921D01*
G01X1025827Y-4153921D02*
G01X1025827Y-4116837D01*
G01X960803Y-4086611D02*
G01X1025827Y-4086611D01*
G01X960803Y-4086611D02*
G01X960803Y-4046479D01*
G01X991791Y-4086611D02*
G01X991791Y-4061973D01*
G01X1025827Y-4086611D02*
G01X1025827Y-4046479D01*
G01X960803Y-4016253D02*
G01X1025827Y-4016253D01*
G01X960803Y-4016253D02*
G01X960803Y-3994663D01*
G01X963851Y-3985519D01*
G01X969947Y-3979169D01*
G01X976297Y-3976121D01*
G01X985441Y-3973073D01*
G01X1000935Y-3973073D01*
G01X1010333Y-3976121D01*
G01X1016429Y-3979169D01*
G01X1022779Y-3985519D01*
G01X1025827Y-3994663D01*
G01X1025827Y-4016253D01*
G01X973249Y-3942847D02*
G01X969947Y-3936751D01*
G01X960803Y-3927607D01*
G01X1025827Y-3927607D01*
G01X960803Y-3878839D02*
G01X963851Y-3888237D01*
G01X973249Y-3894333D01*
G01X988489Y-3897381D01*
G01X997887Y-3897381D01*
G01X1013381Y-3894333D01*
G01X1022779Y-3888237D01*
G01X1025827Y-3878839D01*
G01X1025827Y-3872743D01*
G01X1022779Y-3863345D01*
G01X1013381Y-3857249D01*
G01X997887Y-3854201D01*
G01X988489Y-3854201D01*
G01X973249Y-3857249D01*
G01X963851Y-3863345D01*
G01X960803Y-3872743D01*
G01X960803Y-3878839D01*
G01X2286306Y848375D02*
G01X2221282Y848375D01*
G01X2286306Y848375D02*
G01X2286306Y820435D01*
G01X2283258Y811291D01*
G01X2280210Y808243D01*
G01X2273860Y804941D01*
G01X2264716Y804941D01*
G01X2258620Y808243D01*
G01X2255318Y811291D01*
G01X2252270Y820435D01*
G01X2252270Y848375D01*
G01X2273860Y774715D02*
G01X2277162Y768619D01*
G01X2286306Y759475D01*
G01X2221282Y759475D01*
G01X2723835Y-339728D02*
G01X2658811Y-339728D01*
G01X2723835Y-339728D02*
G01X2723835Y-367668D01*
G01X2720787Y-376812D01*
G01X2717739Y-379860D01*
G01X2711389Y-383162D01*
G01X2705293Y-383162D01*
G01X2699197Y-379860D01*
G01X2696149Y-376812D01*
G01X2692847Y-367668D01*
G01X2692847Y-339728D01*
G01X2692847Y-361318D02*
G01X2658811Y-383162D01*
G01X2711389Y-413388D02*
G01X2714691Y-419484D01*
G01X2723835Y-428628D01*
G01X2658811Y-428628D01*
G01X1948434Y-304315D02*
G01X1883410Y-304315D01*
G01X1948434Y-304315D02*
G01X1948434Y-332255D01*
G01X1945386Y-341399D01*
G01X1942338Y-344447D01*
G01X1935988Y-347749D01*
G01X1929892Y-347749D01*
G01X1923796Y-344447D01*
G01X1920748Y-341399D01*
G01X1917446Y-332255D01*
G01X1917446Y-304315D01*
G01X1917446Y-325905D02*
G01X1883410Y-347749D01*
G01X1932940Y-381023D02*
G01X1935988Y-381023D01*
G01X1942338Y-384071D01*
G01X1945386Y-387119D01*
G01X1948434Y-393215D01*
G01X1948434Y-405661D01*
G01X1945386Y-412011D01*
G01X1942338Y-415059D01*
G01X1935988Y-418107D01*
G01X1929892Y-418107D01*
G01X1923796Y-415059D01*
G01X1914398Y-408709D01*
G01X1883410Y-377975D01*
G01X1883410Y-421155D01*
G01X953580Y1043666D02*
G01X953580Y1108690D01*
G01X953580Y1043666D02*
G01X925640Y1043666D01*
G01X916496Y1046714D01*
G01X913448Y1049762D01*
G01X910146Y1056112D01*
G01X910146Y1062208D01*
G01X913448Y1068304D01*
G01X916496Y1071352D01*
G01X925640Y1074654D01*
G01X953580Y1074654D01*
G01X931990Y1074654D02*
G01X910146Y1108690D01*
G01X873824Y1043666D02*
G01X839788Y1043666D01*
G01X858330Y1068304D01*
G01X849186Y1068304D01*
G01X842836Y1071352D01*
G01X839788Y1074654D01*
G01X836740Y1083798D01*
G01X836740Y1090148D01*
G01X839788Y1099292D01*
G01X845884Y1105642D01*
G01X855282Y1108690D01*
G01X864680Y1108690D01*
G01X873824Y1105642D01*
G01X876872Y1102340D01*
G01X879920Y1096244D01*
G01X-1227766Y1518178D02*
G01X-1274248Y1518178D01*
G01X-1283392Y1515130D01*
G01X-1289742Y1508780D01*
G01X-1292790Y1499636D01*
G01X-1292790Y1493286D01*
G01X-1289742Y1484142D01*
G01X-1283392Y1478046D01*
G01X-1274248Y1474744D01*
G01X-1227766Y1474744D01*
G01X-1240212Y1444518D02*
G01X-1236910Y1438422D01*
G01X-1227766Y1429278D01*
G01X-1292790Y1429278D01*
G01X-997264Y593601D02*
G01X-997264Y547119D01*
G01X-994216Y537975D01*
G01X-987866Y531625D01*
G01X-978722Y528577D01*
G01X-972372Y528577D01*
G01X-963228Y531625D01*
G01X-957132Y537975D01*
G01X-953830Y547119D01*
G01X-953830Y593601D01*
G01X-920556Y578107D02*
G01X-920556Y581155D01*
G01X-917508Y587505D01*
G01X-914460Y590553D01*
G01X-908364Y593601D01*
G01X-895918Y593601D01*
G01X-889568Y590553D01*
G01X-886520Y587505D01*
G01X-883472Y581155D01*
G01X-883472Y575059D01*
G01X-886520Y568963D01*
G01X-892870Y559565D01*
G01X-923604Y528577D01*
G01X-880424Y528577D01*
G04 Text End*

G04 PolygonModel Start*
G54D12*
G01X-1764513Y-1081913D02*
G01X-1662913Y-1081913D01*
G01X-1712900Y-1031900D02*
G01X-1712900Y-1133500D01*
G36*
G01X-1433500Y-1066800D02*
G02X-1433500Y-1397000I-157746J-165100D01*
G01X-1433500Y-1066800D01*
G37*
G01X1098499Y-2155800D02*
G01X298501Y-2155800D01*
G01X298501Y-2155800D02*
G01X298501Y-1755800D01*
G01X298501Y-1755800D02*
G01X1098499Y-1755800D01*
G01X1098499Y-1755800D02*
G01X1098499Y-2155800D01*
G54D13*
G01X-876300Y-2159000D02*
G01X-876300Y-1905000D01*
G01X-876300Y-1905000D02*
G01X-368300Y-1905000D01*
G01X-368300Y-1905000D02*
G01X-368300Y-2159000D01*
G01X-368300Y-2159000D02*
G01X-558800Y-2159000D01*
G54D10*
G01X-876300Y-2159000D02*
G01X-558800Y-2159000D01*
G54D12*
G01X-4152900Y-25400D02*
G01X-4152900Y-76200D01*
G01X-4178300Y-50800D02*
G01X-4127500Y-50800D01*
G01X-4228328Y87963D02*
G02X-3946106Y-194259I0J-282222D01*
G01X-3946106Y-194259D02*
G01X-3946106Y-204607D01*
G01X-3946106Y-204607D02*
G02X-4231150Y-489651I-285044J0D01*
G01X-4231150Y-489651D02*
G02X-4435099Y-405173I0J288430D01*
G01X-4435099Y-405173D02*
G01X-4451281Y-388991D01*
G01X-4451281Y-388991D02*
G01X-4464987Y-375285D01*
G01X-4464987Y-375285D02*
G02X-4477624Y-344777I30508J30508D01*
G01X-4477624Y-344777D02*
G01X-4477624Y-60968D01*
G01X-4477624Y-60968D02*
G02X-4470098Y-42799I25695J-0D01*
G01X-4470098Y-42799D02*
G01X-4417830Y9469D01*
G01X-4417830Y9469D02*
G02X-4228328Y87963I189502J-189504D01*
G01X-1778000Y3886200D02*
G01X-1778000Y3835400D01*
G01X-1803400Y3860800D02*
G01X-1752600Y3860800D01*
G01X-1853428Y3999563D02*
G02X-1571206Y3717341I0J-282222D01*
G01X-1571206Y3717341D02*
G01X-1571206Y3706993D01*
G01X-1571206Y3706993D02*
G02X-1856250Y3421949I-285044J0D01*
G01X-1856250Y3421949D02*
G02X-2060199Y3506427I0J288430D01*
G01X-2060199Y3506427D02*
G01X-2076381Y3522609D01*
G01X-2076381Y3522609D02*
G01X-2090087Y3536315D01*
G01X-2090087Y3536315D02*
G02X-2102724Y3566823I30508J30508D01*
G01X-2102724Y3566823D02*
G01X-2102724Y3850632D01*
G01X-2102724Y3850632D02*
G02X-2095198Y3868801I25695J-0D01*
G01X-2095198Y3868801D02*
G01X-2042930Y3921069D01*
G01X-2042930Y3921069D02*
G02X-1853428Y3999563I189502J-189504D01*
G01X1320800Y4025900D02*
G01X1320800Y3975100D01*
G01X1295400Y4000500D02*
G01X1346200Y4000500D01*
G01X1245372Y4139263D02*
G02X1527594Y3857041I0J-282222D01*
G01X1527594Y3857041D02*
G01X1527594Y3846693D01*
G01X1527594Y3846693D02*
G02X1242550Y3561649I-285044J0D01*
G01X1242550Y3561649D02*
G02X1038601Y3646127I0J288430D01*
G01X1038601Y3646127D02*
G01X1022419Y3662309D01*
G01X1022419Y3662309D02*
G01X1008713Y3676015D01*
G01X1008713Y3676015D02*
G02X996076Y3706523I30508J30508D01*
G01X996076Y3706523D02*
G01X996076Y3990332D01*
G01X996076Y3990332D02*
G02X1003602Y4008501I25695J-0D01*
G01X1003602Y4008501D02*
G01X1055870Y4060769D01*
G01X1055870Y4060769D02*
G02X1245372Y4139263I189502J-189504D01*
G01X3810000Y2514600D02*
G01X3810000Y2463800D01*
G01X3784600Y2489200D02*
G01X3835400Y2489200D01*
G01X3734572Y2627963D02*
G02X4016794Y2345741I0J-282222D01*
G01X4016794Y2345741D02*
G01X4016794Y2335393D01*
G01X4016794Y2335393D02*
G02X3731750Y2050349I-285044J0D01*
G01X3731750Y2050349D02*
G02X3527801Y2134827I0J288430D01*
G01X3527801Y2134827D02*
G01X3511619Y2151009D01*
G01X3511619Y2151009D02*
G01X3497913Y2164715D01*
G01X3497913Y2164715D02*
G02X3485276Y2195223I30508J30508D01*
G01X3485276Y2195223D02*
G01X3485276Y2479032D01*
G01X3485276Y2479032D02*
G02X3492802Y2497201I25695J-0D01*
G01X3492802Y2497201D02*
G01X3545070Y2549469D01*
G01X3545070Y2549469D02*
G02X3734572Y2627963I189502J-189504D01*
G01X4610100Y38100D02*
G01X4610100Y-12700D01*
G01X4584700Y12700D02*
G01X4635500Y12700D01*
G01X4534672Y151463D02*
G02X4816894Y-130759I0J-282222D01*
G01X4816894Y-130759D02*
G01X4816894Y-141107D01*
G01X4816894Y-141107D02*
G02X4531850Y-426151I-285044J0D01*
G01X4531850Y-426151D02*
G02X4327901Y-341673I0J288430D01*
G01X4327901Y-341673D02*
G01X4311719Y-325491D01*
G01X4311719Y-325491D02*
G01X4298013Y-311785D01*
G01X4298013Y-311785D02*
G02X4285376Y-281277I30508J30508D01*
G01X4285376Y-281277D02*
G01X4285376Y2532D01*
G01X4285376Y2532D02*
G02X4292902Y20701I25695J-0D01*
G01X4292902Y20701D02*
G01X4345170Y72969D01*
G01X4345170Y72969D02*
G02X4534672Y151463I189502J-189504D01*
G01X3365500Y-2590800D02*
G01X3365500Y-2540000D01*
G01X3390900Y-2565400D02*
G01X3340100Y-2565400D01*
G01X3440928Y-2704163D02*
G02X3158706Y-2421941I0J282222D01*
G01X3158706Y-2421941D02*
G01X3158706Y-2411593D01*
G01X3158706Y-2411593D02*
G02X3443750Y-2126549I285044J0D01*
G01X3443750Y-2126549D02*
G02X3647699Y-2211027I0J-288430D01*
G01X3647699Y-2211027D02*
G01X3663881Y-2227209D01*
G01X3663881Y-2227209D02*
G01X3677587Y-2240915D01*
G01X3677587Y-2240915D02*
G02X3690224Y-2271423I-30508J-30508D01*
G01X3690224Y-2271423D02*
G01X3690224Y-2555232D01*
G01X3690224Y-2555232D02*
G02X3682698Y-2573401I-25695J0D01*
G01X3682698Y-2573401D02*
G01X3630430Y-2625669D01*
G01X3630430Y-2625669D02*
G02X3440928Y-2704163I-189502J189504D01*
G01X-1384300Y-3759200D02*
G01X-1384300Y-3810000D01*
G01X-1409700Y-3784600D02*
G01X-1358900Y-3784600D01*
G01X-1459728Y-3645837D02*
G02X-1177506Y-3928059I0J-282222D01*
G01X-1177506Y-3928059D02*
G01X-1177506Y-3938407D01*
G01X-1177506Y-3938407D02*
G02X-1462550Y-4223451I-285044J0D01*
G01X-1462550Y-4223451D02*
G02X-1666499Y-4138973I0J288430D01*
G01X-1666499Y-4138973D02*
G01X-1682681Y-4122791D01*
G01X-1682681Y-4122791D02*
G01X-1696387Y-4109085D01*
G01X-1696387Y-4109085D02*
G02X-1709024Y-4078577I30508J30508D01*
G01X-1709024Y-4078577D02*
G01X-1709024Y-3794768D01*
G01X-1709024Y-3794768D02*
G02X-1701498Y-3776599I25695J-0D01*
G01X-1701498Y-3776599D02*
G01X-1649230Y-3724331D01*
G01X-1649230Y-3724331D02*
G02X-1459728Y-3645837I189502J-189504D01*
G01X-3314700Y-2324100D02*
G01X-3314700Y-2374900D01*
G01X-3340100Y-2349500D02*
G01X-3289300Y-2349500D01*
G01X-3390128Y-2210737D02*
G02X-3107906Y-2492959I0J-282222D01*
G01X-3107906Y-2492959D02*
G01X-3107906Y-2503307D01*
G01X-3107906Y-2503307D02*
G02X-3392950Y-2788351I-285044J0D01*
G01X-3392950Y-2788351D02*
G02X-3596899Y-2703873I0J288430D01*
G01X-3596899Y-2703873D02*
G01X-3613081Y-2687691D01*
G01X-3613081Y-2687691D02*
G01X-3626787Y-2673985D01*
G01X-3626787Y-2673985D02*
G02X-3639424Y-2643477I30508J30508D01*
G01X-3639424Y-2643477D02*
G01X-3639424Y-2359668D01*
G01X-3639424Y-2359668D02*
G02X-3631898Y-2341499I25695J-0D01*
G01X-3631898Y-2341499D02*
G01X-3579630Y-2289231D01*
G01X-3579630Y-2289231D02*
G02X-3390128Y-2210737I189502J-189504D01*
G01X-3721100Y2120900D02*
G01X-3721100Y2070100D01*
G01X-3746500Y2095500D02*
G01X-3695700Y2095500D01*
G01X-3796528Y2234263D02*
G02X-3514306Y1952041I0J-282222D01*
G01X-3514306Y1952041D02*
G01X-3514306Y1941693D01*
G01X-3514306Y1941693D02*
G02X-3799350Y1656649I-285044J0D01*
G01X-3799350Y1656649D02*
G02X-4003299Y1741127I0J288430D01*
G01X-4003299Y1741127D02*
G01X-4019481Y1757309D01*
G01X-4019481Y1757309D02*
G01X-4033187Y1771015D01*
G01X-4033187Y1771015D02*
G02X-4045824Y1801523I30508J30508D01*
G01X-4045824Y1801523D02*
G01X-4045824Y2085332D01*
G01X-4045824Y2085332D02*
G02X-4038298Y2103501I25695J-0D01*
G01X-4038298Y2103501D02*
G01X-3986030Y2155769D01*
G01X-3986030Y2155769D02*
G02X-3796528Y2234263I189502J-189504D01*
G01X1193800Y-3822700D02*
G01X1244600Y-3822700D01*
G01X1219200Y-3848100D02*
G01X1219200Y-3797300D01*
G01X1080437Y-3898128D02*
G02X1362659Y-3615906I282222J0D01*
G01X1362659Y-3615906D02*
G01X1373007Y-3615906D01*
G01X1373007Y-3615906D02*
G02X1658051Y-3900950I0J-285044D01*
G01X1658051Y-3900950D02*
G02X1573573Y-4104899I-288430J0D01*
G01X1573573Y-4104899D02*
G01X1557391Y-4121081D01*
G01X1557391Y-4121081D02*
G01X1543685Y-4134787D01*
G01X1543685Y-4134787D02*
G02X1513177Y-4147424I-30508J30508D01*
G01X1513177Y-4147424D02*
G01X1229368Y-4147424D01*
G01X1229368Y-4147424D02*
G02X1211199Y-4139898I0J25695D01*
G01X1211199Y-4139898D02*
G01X1158931Y-4087630D01*
G01X1158931Y-4087630D02*
G02X1080437Y-3898128I189504J189502D01*
G01X2166672Y589295D02*
G01X1912672Y589295D01*
G01X1912672Y589295D02*
G01X1912672Y843295D01*
G01X1912672Y843295D02*
G01X2166672Y843295D01*
G01X2166672Y843295D02*
G01X2166672Y589295D01*
G01X2489200Y-495221D02*
G01X2489200Y-602099D01*
G01X2488796Y-1252101D02*
G01X2488796Y-1358979D01*
G01X2374199Y-602099D02*
G01X2604201Y-602099D01*
G01X2604201Y-602099D02*
G01X2604201Y-1252101D01*
G01X2601199Y-1252101D02*
G01X2377201Y-1252101D01*
G01X2374199Y-1252101D02*
G01X2374199Y-602099D01*
G01X1714500Y-571495D02*
G01X1714500Y-495295D01*
G01X1714500Y-1231895D02*
G01X1714500Y-1308095D01*
G01X584990Y2260298D02*
G01X585500Y2192299D01*
G01X453497Y1163300D02*
G01X943503Y1163300D01*
G01X943503Y1163300D02*
G01X948500Y1163300D01*
G01X948500Y1163300D02*
G01X948500Y1212799D01*
G01X948500Y1212799D02*
G01X898500Y1212799D01*
G01X898500Y1212799D02*
G01X898500Y2063801D01*
G01X898500Y2063801D02*
G01X948500Y2063801D01*
G01X948500Y2063801D02*
G01X948500Y2113834D01*
G01X948500Y2113834D02*
G01X943503Y2113834D01*
G01X943503Y2113834D02*
G01X453497Y2113834D01*
G01X453497Y1163300D02*
G01X453497Y2113300D01*
G54D14*
G01X-1726700Y1433800D02*
G01X-1727200Y1433830D01*
G01X-1727200Y1433830D02*
G01X-1525778Y1433830D01*
G01X-1525778Y1433830D02*
G01X-1525778Y443738D01*
G01X-1525778Y443738D02*
G01X-2055622Y443738D01*
G01X-2055622Y443738D02*
G01X-2055622Y1433830D01*
G01X-2055622Y1433830D02*
G01X-1854200Y1433830D01*
G01X-1854200Y1433830D02*
G01X-1854700Y1433800D01*
G01X-1854700Y1433800D02*
G03X-1727700Y1433800I63500J0D01*
G54D15*
G01X-2171700Y1463294D02*
G03X-2171573Y1438296I127J-12499D01*
G03X-2171446Y1463294I0J12499D01*
G54D16*
G01X-1955800Y1384808D02*
G03X-1955546Y1324809I254J-29999D01*
G03X-1955292Y1384808I0J30000D01*
G54D11*
G01X-921734Y-79710D02*
G01X-921734Y-284474D01*
G01X-921734Y-284474D02*
G01X1024003Y-284474D01*
G01X1024003Y-284474D02*
G01X1024003Y283805D01*
G01X1024003Y283805D02*
G01X-921734Y283805D01*
G01X-921734Y283805D02*
G01X-921734Y79040D01*
G01X-921733Y-79709D02*
G03X-921733Y79040I0J79375D01*

G04 Rect Start*
G54D12*
G01X1600200Y-584187D02*
G01X1828800Y-584187D01*
G01X1828800Y-1231887D01*
G01X1600200Y-1231887D01*
G01X1600200Y-584187D01*
G01X691490Y2262289D02*
G01X691490Y2113293D01*
G01X478485Y2113293D01*
G01X478485Y2262289D01*
G01X691490Y2262289D01*
G04 Rect End*

G04 Circle Start*
G54D18*
G01X-1862912Y-1231900D02*
G03X-1362888Y-1231900I250012J0D01*
G03X-1862912Y-1231900I-250012J0D01*
G01X-989884Y-402340D02*
G03X-959862Y-402340I15011J0D01*
G03X-989884Y-402340I-15011J0D01*
G04 Circle End*

M02*

