G04 Layer: TopLayer*
G04 EasyEDA Pro v2.2.47.7, 2026-06-08 22:07:34*
G04 Gerber Generator version 0.3*
G04 Scale: 100 percent, Rotated: No, Reflected: No*
G04 Dimensions in millimeters*
G04 Leading zeros omitted, absolute positions, 4 integers and 5 decimals*
G04 Generated by one-click*
G04 Object Configs: Pad,Via,Track,Text,Image,Dimension,BoardOutline,BoardCutout,CopperFilled,SolidRegion,FPCStiffener,Line,PlaneZone,ComponentProperty,ComponentSilkscreen,TearDrop*
G04 Layer Configs: 1,2,3,4,5,6,7,8,9,10,11,13,14,56*
G04 Copper Areas: 0*
%FSLAX45Y45*%
%MOMM*%
%ADD10C,1.3*%
%ADD11C,1.8*%
%ADD12R,2.0X2.0*%
%ADD13C,2.0*%
%ADD14R,1.7X1.7*%
%ADD15C,1.4*%
%ADD16C,1.6*%
%ADD17C,1.524*%
%ADD18R,1.5029X1.5*%
%ADD19R,1.5X1.5*%
%ADD20C,1.5*%
%ADD21O,1.44X1.8*%
%ADD22C,0.61*%
%ADD23C,0.254*%
G75*


G04 Pad Start*
G54D10*
G01X-1712900Y-1231900D03*
G01X-1512900Y-1231900D03*
G54D11*
G01X952500Y-1955800D03*
G01X444500Y-1955800D03*
G54D12*
G01X-495300Y-2032000D03*
G54D13*
G01X-749300Y-2032000D03*
G54D11*
G01X-4356100Y-203200D03*
G01X-4102100Y-203200D03*
G01X-1981200Y3708400D03*
G01X-1727200Y3708400D03*
G01X1117600Y3848100D03*
G01X1371600Y3848100D03*
G01X3606800Y2336800D03*
G01X3860800Y2336800D03*
G01X4406900Y-139700D03*
G01X4660900Y-139700D03*
G01X3568700Y-2413000D03*
G01X3314700Y-2413000D03*
G01X-1587500Y-3937000D03*
G01X-1333500Y-3937000D03*
G01X-3517900Y-2501900D03*
G01X-3263900Y-2501900D03*
G01X-3924300Y1943100D03*
G01X-3670300Y1943100D03*
G01X1371600Y-4025900D03*
G01X1371600Y-3771900D03*
G54D14*
G01X2039672Y716295D03*
G54D15*
G01X2489200Y-402107D03*
G01X2489200Y-1452093D03*
G54D16*
G01X1714500Y-376695D03*
G01X1714500Y-1426705D03*
G54D17*
G01X698500Y1638313D03*
G01X698500Y1388301D03*
G01X698500Y1888300D03*
G54D19*
G01X-2171700Y1320800D03*
G54D20*
G01X-2171700Y1066800D03*
G01X-2171700Y812800D03*
G01X-2171700Y558800D03*
G01X-1409700Y1320800D03*
G01X-1409700Y1066800D03*
G01X-1409700Y812800D03*
G01X-1409700Y558800D03*
G54D21*
G01X-837865Y-397337D03*
G01X-837865Y396667D03*
G01X-583865Y-397337D03*
G01X-583865Y396667D03*
G01X-329865Y-397337D03*
G01X-329865Y396667D03*
G01X-75865Y-397337D03*
G01X-75865Y396667D03*
G01X178135Y-397337D03*
G01X178135Y396667D03*
G01X432135Y-397337D03*
G01X432135Y396667D03*
G01X686135Y-397337D03*
G01X686135Y396667D03*
G01X940135Y-397337D03*
G01X940135Y396667D03*
G04 Pad End*

G04 Via Start*
G54D22*
G01X-749300Y-1536700D03*
G01X558800Y-1333500D03*
G01X1549400Y-1854200D03*
G01X3441700Y1638300D03*
G01X-850900Y977900D03*
G01X1638300Y584200D03*
G01X177800Y-1790700D03*
G01X-330200Y977900D03*
G01X-2032000Y-673100D03*
G01X-584200Y977900D03*
G01X1358900Y-596900D03*
G01X1612900Y-165100D03*
G01X-1828800Y-622300D03*
G01X-1092200Y-1104900D03*
G01X-952500Y-812800D03*
G01X-584200Y-812800D03*
G04 Via End*

G04 Track Start*
G54D23*
G01X-1512900Y-1231900D02*
G01X-1257300Y-1231900D01*
G01X-749300Y-1739900D02*
G01X-596900Y-1739900D01*
G01X-495300Y-1841500D01*
G01X-495300Y-2032000D01*
G01X-1257300Y-1231900D02*
G01X-749300Y-1739900D01*
G01X-1712900Y-1231900D02*
G01X-1712900Y-214300D01*
G01X-1193800Y304800D01*
G01X-1193800Y596900D01*
G01X-1409700Y812800D01*
G01X-837865Y396667D02*
G01X-1231900Y2633D01*
G01X-1231900Y-1066800D01*
G01X-1213939Y-1084761D01*
G01X-1201239Y-1084761D01*
G01X-749300Y-1536700D01*
G01X-495300Y-2032000D02*
G01X-254000Y-2032000D01*
G01X228600Y-1549400D01*
G01X546100Y-1549400D01*
G01X940135Y-397337D02*
G01X940135Y-1943435D01*
G01X952500Y-1955800D01*
G01X546100Y-1549400D02*
G01X940135Y-1943435D01*
G01X940135Y-397337D02*
G01X1668458Y-397337D01*
G01X1714500Y-351295D01*
G01X1951495Y-351295D01*
G01X2057400Y-457200D01*
G01X2057400Y-1358900D01*
G01X2171700Y-1473200D01*
G01X2468093Y-1473200D01*
G01X2489200Y-1452093D01*
G01X-1409700Y812800D02*
G01X-1181100Y812800D01*
G01X-889000Y1104900D01*
G01X50800Y1104900D01*
G01X342900Y1397000D01*
G01X689801Y1397000D01*
G01X698500Y1388301D01*
G01X-583865Y396667D02*
G01X-370933Y609600D01*
G01X-177800Y609600D01*
G01X-75865Y507665D01*
G01X-75865Y396667D01*
G01X698500Y1638313D02*
G01X1054087Y1638313D01*
G01X1295400Y1397000D01*
G01X1295400Y635000D01*
G01X1752600Y177800D01*
G01X2336800Y177800D01*
G01X2476500Y38100D01*
G01X2476500Y-389407D01*
G01X2489200Y-402107D01*
G01X-1409700Y1066800D02*
G01X-1168400Y1308100D01*
G01X-101600Y1308100D01*
G01X228613Y1638313D01*
G01X698500Y1638313D01*
G01X-837865Y-397337D02*
G01X-837865Y-965535D01*
G01X-228600Y-1574800D01*
G01X-12700Y-1574800D01*
G01X228600Y-1333500D01*
G01X558800Y-1333500D01*
G01X1549400Y-1854200D02*
G01X2755900Y-1854200D01*
G01X3314700Y-2413000D01*
G01X3441700Y1638300D02*
G01X3441700Y1917700D01*
G01X3860800Y2336800D01*
G01X-2171700Y558800D02*
G01X-2387600Y774700D01*
G01X-2387600Y1701800D01*
G01X-2369639Y1719761D01*
G01X-1491161Y1719761D01*
G01X-1409700Y1638300D02*
G01X-1409700Y1320800D01*
G01X-1491161Y1719761D02*
G01X-1409700Y1638300D01*
G01X-850900Y977900D02*
G01X-850900Y409702D01*
G01X-837865Y396667D01*
G01X1638300Y584200D02*
G01X1905000Y317500D01*
G01X2857500Y76200D02*
G01X2857500Y-571500D01*
G01X2997200Y-711200D01*
G01X4584700Y-711200D01*
G01X4673600Y-622300D01*
G01X4673600Y-152400D02*
G01X4660900Y-139700D01*
G01X1905000Y317500D02*
G01X2616200Y317500D01*
G01X2857500Y76200D01*
G01X4673600Y-622300D02*
G01X4673600Y-152400D01*
G01X-1333500Y-3937000D02*
G01X177800Y-2425700D01*
G01X177800Y-1790700D01*
G01X940135Y396667D02*
G01X940135Y431465D01*
G01X698500Y673100D01*
G01X-4102100Y-203200D02*
G01X-3683000Y-203200D01*
G01X-3213100Y-673100D01*
G01X-2032000Y-673100D01*
G01X698500Y673100D02*
G01X-25400Y673100D01*
G01X-330200Y977900D01*
G01X-584200Y977900D02*
G01X-584200Y397002D01*
G01X-583865Y396667D01*
G01X1371600Y-3771900D02*
G01X1371600Y-609600D01*
G01X1358900Y-596900D01*
G01X1612900Y-165100D02*
G01X1270000Y177800D01*
G01X546100Y177800D01*
G01X432135Y291765D01*
G01X432135Y396667D01*
G01X727515Y514567D02*
G01X742190Y499892D01*
G01X821363Y499892D01*
G01X840234Y481020D01*
G01X840234Y337288D01*
G01X898754Y278768D01*
G01X1737854Y142200D02*
G01X2322054Y142200D01*
G01X2448648Y-500007D02*
G01X2529752Y-500007D01*
G01X2587100Y-442659D01*
G01X2587100Y-361556D01*
G01X2512100Y-286556D01*
G01X2512100Y52846D01*
G01X2351546Y213400D01*
G01X1767346Y213400D01*
G01X-75865Y-397337D02*
G01X332234Y10763D01*
G01X332234Y456047D01*
G01X390754Y514567D01*
G01X727515Y514567D01*
G01X898754Y278768D02*
G01X1601287Y278768D01*
G01X1737854Y142200D01*
G01X2322054Y142200D02*
G01X2391300Y72954D01*
G01X2391300Y-442659D01*
G01X2448648Y-500007D01*
G01X1767346Y213400D02*
G01X1371600Y609146D01*
G01X1371600Y3848100D01*
G01X-1727200Y3708400D02*
G01X-1727200Y3124200D01*
G01X-3403600Y1447800D01*
G01X-3403600Y215900D01*
G01X-2933700Y-254000D01*
G01X-2197100Y-254000D01*
G01X-1828800Y-622300D01*
G01X-1092200Y-1104900D02*
G01X-952500Y-965200D01*
G01X-952500Y-812800D01*
G01X-583865Y-397337D02*
G01X-583865Y-812465D01*
G01X-584200Y-812800D01*
G04 Track End*

M02*

