G04 Layer: DrillDrawingLayer*
G04 EasyEDA Pro v2.2.47.7, 2026-06-08 22:07:34*
G04 Gerber Generator version 0.3*
G04 Scale: 100 percent, Rotated: No, Reflected: No*
G04 Dimensions in millimeters*
G04 Leading zeros omitted, absolute positions, 4 integers and 5 decimals*
G04 Generated by one-click*
G04 Object Configs: Pad,Via,Track,Text,Image,Dimension,BoardOutline,BoardCutout,CopperFilled,SolidRegion,FPCStiffener,Line,PlaneZone,ComponentProperty,ComponentSilkscreen,TearDrop*
G04 Layer Configs: 1,2,3,4,5,6,7,8,9,10,11,13,14,56*
G04 Copper Areas: 0*
%FSLAX45Y45*%
%MOMM*%
%AMIconRect*4,1,4,0.28,-0.28,-0.28,-0.28,-0.28,0.28,0.28,0.28,0.28,-0.28,0*4,0,4,0.233333,-0.233333,0.233333,0.233333,-0.233333,0.233333,-0.233333,-0.233333,0.233333,-0.233333,0*%
%AMIconTriangle*4,1,3,-0.339593,0.240473,0.339593,0.240473,0,-0.37884,-0.339593,0.240473,0*4,0,3,-0.265673,0.19404,0,-0.27342,0.266233,0.19404,-0.265673,0.19404,0*%
%AMIconStar6*4,1,12,0.12068,0.20888,0.298527,0.172713,0.241313,0,0.298527,-0.17206,0.12068,-0.208227,0,-0.344073,-0.120073,-0.208227,-0.298573,-0.17206,-0.240707,0,-0.298573,0.17206,-0.120073,0.20888,0,0.344073,0.12068,0.20888,0*4,0,12,-0.000467,0.273467,-0.090067,0.171733,-0.237533,0.136733,-0.193667,-0.007467,-0.237533,-0.1372,-0.090067,-0.171733,-0.000467,-0.273933,0.090067,-0.171733,0.237533,-0.1372,0.194133,0.007,0.237533,0.1372,0.090067,0.171267,-0.000467,0.273467,0*%
%AMIconStar4*4,1,8,-0.311733,0.311733,0,0.202533,0.311733,0.311733,0.202533,0,0.311733,-0.311733,0,-0.202533,-0.304407,-0.311733,-0.202533,0,-0.311733,0.311733,0*4,0,8,0.233333,-0.233333,0.1512,0,0.233333,0.233333,0,0.1512,-0.233333,0.233333,-0.1512,0,-0.233333,-0.233333,0,-0.1512,0.233333,-0.233333,0*%
%AMIconPlus*4,1,12,0.1736,-0.28,-0.1736,-0.28,-0.1736,-0.1736,-0.28,-0.1736,-0.28,0.1736,-0.1736,0.1736,-0.1736,0.28,0.1736,0.28,0.1736,0.1736,0.28,0.1736,0.28,-0.1736,0.1736,-0.1736,0.1736,-0.28,0*4,0,12,0.126933,-0.233333,0.126933,-0.126933,0.233333,-0.126933,0.233333,0.126933,0.126933,0.126933,0.126933,0.233333,-0.126933,0.233333,-0.126933,0.126933,-0.233333,0.126933,-0.233333,-0.126933,-0.126933,-0.126933,-0.126933,-0.233333,0.126933,-0.233333,0*%
%AMIconX*4,1,16,0.28,-0.28,0.076347,-0.28,0,-0.203653,-0.076347,-0.28,-0.28,-0.28,-0.28,-0.076347,-0.203653,0,-0.28,0.076347,-0.28,0.28,-0.076347,0.28,0,0.203653,0.076347,0.28,0.28,0.28,0.28,0.076347,0.203653,0,0.28,-0.076347,0.28,-0.28,0*4,0,16,0.23352,-0.23296,0.23352,-0.095853,0.137107,0.000093,0.23352,0.095853,0.23352,0.2331,0.095853,0.2331,0,0.137107,-0.095853,0.2331,-0.23352,0.2331,-0.23352,0.095853,-0.137107,0.000093,-0.23352,-0.095853,-0.23352,-0.23296,-0.095853,-0.23296,0,-0.137107,0.095853,-0.23296,0.23352,-0.23296,0*%
%AMIconDiamond*4,1,4,0,-0.364,-0.364,0,0,0.364,0.364,0,0,-0.364,0*4,0,4,0,-0.284807,0.284807,0,0,0.28504,-0.284807,0,0,-0.284807,0*%
%AMIconRect2*4,1,6,0.28,-0.28,-0.28,-0.28,-0.28,0.28,-0.23352,0.2331,-0.233333,-0.233333,0.23352,-0.233333,0.28,-0.28,0*4,1,6,0.28,-0.28,0.23352,-0.233333,0.23352,0.2331,-0.23352,0.2331,-0.28,0.28,0.28,0.28,0.28,-0.28,0*4,1,6,0.186853,-0.186667,-0.186667,-0.186667,-0.186667,0.186853,-0.14,0.140187,-0.14,-0.14,0.140187,-0.14,0.186853,-0.186667,0*4,1,6,0.186853,-0.186667,0.140187,-0.14,0.140187,0.140187,-0.14,0.140187,-0.186667,0.186853,0.186853,0.186853,0.186853,-0.186667,0*%
%ADD10IconRect*%
%ADD11C,0.616X0.522667*%
%ADD12IconTriangle*%
%ADD13IconStar6*%
%ADD14IconStar4*%
%ADD15IconPlus*%
%ADD16IconX*%
%ADD17IconDiamond*%
%ADD18IconRect2*%
G75*


G04 Drill Drawing Start*
G54D10*
G01X2039672Y716295D03*
G54D11*
G01X2489200Y-1452093D03*
G01X2489200Y-402107D03*
G54D12*
G01X1714500Y-1426705D03*
G01X1714500Y-376695D03*
G54D13*
G01X698500Y1888300D03*
G01X698500Y1388301D03*
G01X698500Y1638313D03*
G54D14*
G01X-749300Y-2032000D03*
G01X-495300Y-2032000D03*
G01X444500Y-1955800D03*
G01X952500Y-1955800D03*
G54D15*
G01X-2171700Y558800D03*
G01X-2171700Y812800D03*
G01X-2171700Y1066800D03*
G01X-2171700Y1320800D03*
G01X-1409700Y558800D03*
G01X-1409700Y812800D03*
G01X-1409700Y1066800D03*
G01X-1409700Y1320800D03*
G54D16*
G01X-2032000Y-673100D03*
G01X-1828800Y-622300D03*
G01X-1092200Y-1104900D03*
G01X-952500Y-812800D03*
G01X-850900Y977900D03*
G01X-749300Y-1536700D03*
G01X-584200Y-812800D03*
G01X-584200Y977900D03*
G01X-330200Y977900D03*
G01X177800Y-1790700D03*
G01X558800Y-1333500D03*
G01X1358900Y-596900D03*
G01X1549400Y-1854200D03*
G01X1612900Y-165100D03*
G01X1638300Y584200D03*
G01X3441700Y1638300D03*
G54D17*
G01X-1712900Y-1231900D03*
G01X-1512900Y-1231900D03*
G01X-837865Y-397337D03*
G01X-837865Y396667D03*
G01X-583865Y-397337D03*
G01X-583865Y396667D03*
G01X-329865Y-397337D03*
G01X-329865Y396667D03*
G01X-75865Y-397337D03*
G01X-75865Y396667D03*
G01X178135Y-397337D03*
G01X178135Y396667D03*
G01X432135Y-397337D03*
G01X432135Y396667D03*
G01X686135Y-397337D03*
G01X686135Y396667D03*
G01X940135Y-397337D03*
G01X940135Y396667D03*
G54D18*
G01X-4356100Y-203200D03*
G01X-4102100Y-203200D03*
G01X-3924300Y1943100D03*
G01X-3670300Y1943100D03*
G01X-3517900Y-2501900D03*
G01X-3263900Y-2501900D03*
G01X-1981200Y3708400D03*
G01X-1727200Y3708400D03*
G01X-1587500Y-3937000D03*
G01X-1333500Y-3937000D03*
G01X1117600Y3848100D03*
G01X1371600Y-4025900D03*
G01X1371600Y-3771900D03*
G01X1371600Y3848100D03*
G01X3314700Y-2413000D03*
G01X3568700Y-2413000D03*
G01X3606800Y2336800D03*
G01X3860800Y2336800D03*
G01X4406900Y-139700D03*
G01X4660900Y-139700D03*
G04 Drill Drawing End*

M02*

